  0
SECTION
  2
HEADER
  9
$ACADVER
  1
AC1032
  9
$ACADMAINTVER
 90
       55
  9
$DWGCODEPAGE
  3
ANSI_1252
  9
$COMMENTS
  1
File was created by Mastercam 2024
  9
$LASTSAVEDBY
  1
systooling
  9
$REQUIREDVERSIONS
160
                 0
  9
$INSBASE
 10
0.0
 20
0.0
 30
0.0
  9
$EXTMIN
 10
-0.1489583333333331
 20
-0.2429107891465571
 30
0.0
  9
$EXTMAX
 10
0.1489583333333328
 20
0.0618127764859506
 30
0.0
  9
$LIMMIN
 10
0.0
 20
0.0
  9
$LIMMAX
 10
12.0
 20
9.0
  9
$ORTHOMODE
 70
     0
  9
$REGENMODE
 70
     1
  9
$FILLMODE
 70
     1
  9
$QTEXTMODE
 70
     0
  9
$MIRRTEXT
 70
     1
  9
$LTSCALE
 40
1.0
  9
$ATTMODE
 70
     1
  9
$TEXTSIZE
 40
0.2
  9
$TRACEWID
 40
0.05
  9
$TEXTSTYLE
  7
Standard
  9
$CLAYER
  8
0
  9
$CELTYPE
  6
ByLayer
  9
$CECOLOR
 62
   256
  9
$CELTSCALE
 40
1.0
  9
$DISPSILH
 70
     0
  9
$DIMSCALE
 40
1.0
  9
$DIMASZ
 40
0.18
  9
$DIMEXO
 40
0.0625
  9
$DIMDLI
 40
0.38
  9
$DIMRND
 40
0.0
  9
$DIMDLE
 40
0.0
  9
$DIMEXE
 40
0.18
  9
$DIMTP
 40
0.0
  9
$DIMTM
 40
0.0
  9
$DIMTXT
 40
0.18
  9
$DIMCEN
 40
0.09
  9
$DIMTSZ
 40
0.0
  9
$DIMTOL
 70
     0
  9
$DIMLIM
 70
     0
  9
$DIMTIH
 70
     1
  9
$DIMTOH
 70
     1
  9
$DIMSE1
 70
     0
  9
$DIMSE2
 70
     0
  9
$DIMTAD
 70
     0
  9
$DIMZIN
 70
     0
  9
$DIMBLK
  1

  9
$DIMASO
 70
     1
  9
$DIMSHO
 70
     1
  9
$DIMPOST
  1

  9
$DIMAPOST
  1

  9
$DIMALT
 70
     0
  9
$DIMALTD
 70
     2
  9
$DIMALTF
 40
25.4
  9
$DIMLFAC
 40
1.0
  9
$DIMTOFL
 70
     0
  9
$DIMTVP
 40
0.0
  9
$DIMTIX
 70
     0
  9
$DIMSOXD
 70
     0
  9
$DIMSAH
 70
     0
  9
$DIMBLK1
  1

  9
$DIMBLK2
  1

  9
$DIMSTYLE
  2
Standard
  9
$DIMCLRD
 70
     0
  9
$DIMCLRE
 70
     0
  9
$DIMCLRT
 70
     0
  9
$DIMTFAC
 40
1.0
  9
$DIMGAP
 40
0.09
  9
$DIMJUST
 70
     0
  9
$DIMSD1
 70
     0
  9
$DIMSD2
 70
     0
  9
$DIMTOLJ
 70
     1
  9
$DIMTZIN
 70
     0
  9
$DIMALTZ
 70
     0
  9
$DIMALTTZ
 70
     0
  9
$DIMUPT
 70
     0
  9
$DIMDEC
 70
     4
  9
$DIMTDEC
 70
     4
  9
$DIMALTU
 70
     2
  9
$DIMALTTD
 70
     2
  9
$DIMTXSTY
  7
Standard
  9
$DIMAUNIT
 70
     0
  9
$DIMADEC
 70
     0
  9
$DIMALTRND
 40
0.0
  9
$DIMAZIN
 70
     0
  9
$DIMDSEP
 70
    46
  9
$DIMATFIT
 70
     3
  9
$DIMFRAC
 70
     0
  9
$DIMLDRBLK
  1

  9
$DIMLUNIT
 70
     2
  9
$DIMLWD
 70
    -2
  9
$DIMLWE
 70
    -2
  9
$DIMTMOVE
 70
     0
  9
$DIMFXL
 40
1.0
  9
$DIMFXLON
 70
     0
  9
$DIMJOGANG
 40
0.7853981633974483
  9
$DIMTFILL
 70
     0
  9
$DIMTFILLCLR
 70
     0
  9
$DIMARCSYM
 70
     0
  9
$DIMLTYPE
  6

  9
$DIMLTEX1
  6

  9
$DIMLTEX2
  6

  9
$DIMTXTDIRECTION
 70
     0
  9
$LUNITS
 70
     2
  9
$LUPREC
 70
     4
  9
$SKETCHINC
 40
0.1
  9
$FILLETRAD
 40
0.0
  9
$AUNITS
 70
     0
  9
$AUPREC
 70
     0
  9
$MENU
  1
.
  9
$ELEVATION
 40
0.0
  9
$PELEVATION
 40
0.0
  9
$THICKNESS
 40
0.0
  9
$LIMCHECK
 70
     0
  9
$CHAMFERA
 40
0.0
  9
$CHAMFERB
 40
0.0
  9
$CHAMFERC
 40
0.0
  9
$CHAMFERD
 40
0.0
  9
$SKPOLY
 70
     0
  9
$TDCREATE
 40
2453737.5
  9
$TDUCREATE
 40
2453737.666666667
  9
$TDUPDATE
 40
2460612.424794502
  9
$TDUUPDATE
 40
2460612.591461169
  9
$TDINDWG
 40
0.0000000116
  9
$TDUSRTIMER
 40
0.0000000116
  9
$USRTIMER
 70
     1
  9
$ANGBASE
 50
0.0
  9
$ANGDIR
 70
     0
  9
$PDMODE
 70
     2
  9
$PDSIZE
 40
0.1
  9
$PLINEWID
 40
0.0
  9
$SPLFRAME
 70
     0
  9
$SPLINETYPE
 70
     6
  9
$SPLINESEGS
 70
     8
  9
$HANDSEED
  5
1C7
  9
$SURFTAB1
 70
     6
  9
$SURFTAB2
 70
     6
  9
$SURFTYPE
 70
     6
  9
$SURFU
 70
     6
  9
$SURFV
 70
     6
  9
$UCSBASE
  2

  9
$UCSNAME
  2

  9
$UCSORG
 10
0.0
 20
0.0
 30
0.0
  9
$UCSXDIR
 10
1.0
 20
0.0
 30
0.0
  9
$UCSYDIR
 10
0.0
 20
1.0
 30
0.0
  9
$UCSORTHOREF
  2

  9
$UCSORTHOVIEW
 70
     0
  9
$UCSORGTOP
 10
0.0
 20
0.0
 30
0.0
  9
$UCSORGBOTTOM
 10
0.0
 20
0.0
 30
0.0
  9
$UCSORGLEFT
 10
0.0
 20
0.0
 30
0.0
  9
$UCSORGRIGHT
 10
0.0
 20
0.0
 30
0.0
  9
$UCSORGFRONT
 10
0.0
 20
0.0
 30
0.0
  9
$UCSORGBACK
 10
0.0
 20
0.0
 30
0.0
  9
$PUCSBASE
  2

  9
$PUCSNAME
  2

  9
$PUCSORG
 10
0.0
 20
0.0
 30
0.0
  9
$PUCSXDIR
 10
1.0
 20
0.0
 30
0.0
  9
$PUCSYDIR
 10
0.0
 20
1.0
 30
0.0
  9
$PUCSORTHOREF
  2

  9
$PUCSORTHOVIEW
 70
     0
  9
$PUCSORGTOP
 10
0.0
 20
0.0
 30
0.0
  9
$PUCSORGBOTTOM
 10
0.0
 20
0.0
 30
0.0
  9
$PUCSORGLEFT
 10
0.0
 20
0.0
 30
0.0
  9
$PUCSORGRIGHT
 10
0.0
 20
0.0
 30
0.0
  9
$PUCSORGFRONT
 10
0.0
 20
0.0
 30
0.0
  9
$PUCSORGBACK
 10
0.0
 20
0.0
 30
0.0
  9
$USERI1
 70
     0
  9
$USERI2
 70
     0
  9
$USERI3
 70
     0
  9
$USERI4
 70
     0
  9
$USERI5
 70
     0
  9
$USERR1
 40
0.0
  9
$USERR2
 40
0.0
  9
$USERR3
 40
0.0
  9
$USERR4
 40
0.0
  9
$USERR5
 40
0.0
  9
$WORLDVIEW
 70
     1
  9
$SHADEDGE
 70
     3
  9
$SHADEDIF
 70
    70
  9
$TILEMODE
 70
     1
  9
$MAXACTVP
 70
    64
  9
$PINSBASE
 10
0.0
 20
0.0
 30
0.0
  9
$PLIMCHECK
 70
     0
  9
$PEXTMIN
 10
0.0
 20
0.0
 30
0.0
  9
$PEXTMAX
 10
0.0
 20
0.0
 30
0.0
  9
$PLIMMIN
 10
-0.25
 20
-0.25
  9
$PLIMMAX
 10
10.75
 20
8.25
  9
$UNITMODE
 70
     0
  9
$VISRETAIN
 70
     1
  9
$PLINEGEN
 70
     0
  9
$PSLTSCALE
 70
     1
  9
$TREEDEPTH
 70
  3020
  9
$CMLSTYLE
  2
Standard
  9
$CMLJUST
 70
     0
  9
$CMLSCALE
 40
1.0
  9
$PROXYGRAPHICS
 70
     1
  9
$MEASUREMENT
 70
     0
  9
$CELWEIGHT
370
    -1
  9
$ENDCAPS
280
     0
  9
$JOINSTYLE
280
     0
  9
$LWDISPLAY
290
     0
  9
$INSUNITS
 70
     1
  9
$HYPERLINKBASE
  1

  9
$STYLESHEET
  1

  9
$XEDIT
290
     1
  9
$CEPSNTYPE
380
     0
  9
$PSTYLEMODE
290
     1
  9
$FINGERPRINTGUID
  2
{54db51f3-0fc5-4158-bb39-f359361a2bea}
  9
$VERSIONGUID
  2
{FAEB1C32-E019-11D5-929B-00C0DF256EC4}
  9
$EXTNAMES
290
     1
  9
$PSVPSCALE
 40
0.0
  9
$OLESTARTUP
290
     0
  9
$SORTENTS
280
   127
  9
$INDEXCTL
280
     0
  9
$HIDETEXT
280
     1
  9
$XCLIPFRAME
280
     2
  9
$HALOGAP
280
     0
  9
$OBSCOLOR
 70
   257
  9
$OBSLTYPE
280
     0
  9
$INTERSECTIONDISPLAY
280
     0
  9
$INTERSECTIONCOLOR
 70
   257
  9
$DIMASSOC
280
     2
  9
$PROJECTNAME
  1

  9
$CAMERADISPLAY
290
     0
  9
$LENSLENGTH
 40
50.0
  9
$CAMERAHEIGHT
 40
0.0
  9
$STEPSPERSEC
 40
2.0
  9
$STEPSIZE
 40
6.0
  9
$3DDWFPREC
 40
2.0
  9
$PSOLWIDTH
 40
0.25
  9
$PSOLHEIGHT
 40
4.0
  9
$LOFTANG1
 40
1.570796326794897
  9
$LOFTANG2
 40
1.570796326794897
  9
$LOFTMAG1
 40
0.0
  9
$LOFTMAG2
 40
0.0
  9
$LOFTPARAM
 70
     7
  9
$LOFTNORMALS
280
     1
  9
$LATITUDE
 40
37.795
  9
$LONGITUDE
 40
-122.394
  9
$NORTHDIRECTION
 40
0.0
  9
$TIMEZONE
 70
 -8000
  9
$LIGHTGLYPHDISPLAY
280
     1
  9
$TILEMODELIGHTSYNCH
280
     1
  9
$CMATERIAL
347
44
  9
$SOLIDHIST
280
     0
  9
$SHOWHIST
280
     1
  9
$DWFFRAME
280
     2
  9
$DGNFRAME
280
     2
  9
$REALWORLDSCALE
290
     1
  9
$INTERFERECOLOR
 62
   256
  9
$CSHADOW
280
     0
  9
$SHADOWPLANELOCATION
 40
0.0
  0
ENDSEC
  0
SECTION
  2
CLASSES
  0
CLASS
  1
ACDBDICTIONARYWDFLT
  2
AcDbDictionaryWithDefault
  3
ObjectDBX Classes
 90
        0
 91
        3
280
     0
281
     0
  0
CLASS
  1
VISUALSTYLE
  2
AcDbVisualStyle
  3
ObjectDBX Classes
 90
     4095
 91
        3
280
     0
281
     0
  0
CLASS
  1
MATERIAL
  2
AcDbMaterial
  3
ObjectDBX Classes
 90
     1153
 91
        3
280
     0
281
     0
  0
CLASS
  1
SCALE
  2
AcDbScale
  3
ObjectDBX Classes
 90
     1153
 91
        3
280
     0
281
     0
  0
CLASS
  1
TABLESTYLE
  2
AcDbTableStyle
  3
ObjectDBX Classes
 90
     4095
 91
        3
280
     0
281
     0
  0
CLASS
  1
MLEADERSTYLE
  2
AcDbMLeaderStyle
  3
ACDB_MLEADERSTYLE_CLASS
 90
     4095
 91
        3
280
     0
281
     0
  0
CLASS
  1
SUN
  2
AcDbSun
  3
SCENEOE
 90
     1153
 91
        3
280
     0
281
     0
  0
CLASS
  1
DICTIONARYVAR
  2
AcDbDictionaryVar
  3
ObjectDBX Classes
 90
        0
 91
        3
280
     0
281
     0
  0
CLASS
  1
CELLSTYLEMAP
  2
AcDbCellStyleMap
  3
ObjectDBX Classes
 90
     1152
 91
        3
280
     0
281
     0
  0
ENDSEC
  0
SECTION
  2
TABLES
  0
TABLE
  2
VPORT
  5
8
330
0
100
AcDbSymbolTable
 70
     1
  0
VPORT
  5
29
330
8
100
AcDbSymbolTableRecord
100
AcDbViewportTableRecord
  2
*Active
 70
     0
 10
0.0
 20
0.0
 11
1.0
 21
1.0
 12
10.42990654205607
 22
4.5
 13
0.0
 23
0.0
 14
0.5
 24
0.5
 15
0.5
 25
0.5
 16
0.0
 26
0.0
 36
1.0
 17
0.0
 27
0.0
 37
0.0
 40
9.0
 41
1.972972972850329
 42
50.0
 43
0.0
 44
0.0
 50
0.0
 51
0.0
 71
     0
 72
   100
 73
     1
 74
     3
 75
     0
 76
     0
 77
     0
 78
     0
281
     0
 65
     1
110
0.0
120
0.0
130
0.0
111
1.0
121
0.0
131
0.0
112
0.0
122
1.0
132
0.0
 79
     0
146
0.0
348
2F
 60
     3
 61
     5
292
     1
282
     1
141
0.0
142
0.0
 63
   250
361
5D
  0
ENDTAB
  0
TABLE
  2
LTYPE
  5
5
330
0
100
AcDbSymbolTable
 70
     5
  0
LTYPE
  5
14
330
5
100
AcDbSymbolTableRecord
100
AcDbLinetypeTableRecord
  2
ByBlock
 70
     0
  3

 72
    65
 73
     0
 40
0.0
  0
LTYPE
  5
15
330
5
100
AcDbSymbolTableRecord
100
AcDbLinetypeTableRecord
  2
ByLayer
 70
     0
  3

 72
    65
 73
     0
 40
0.0
  0
LTYPE
  5
16
330
5
100
AcDbSymbolTableRecord
100
AcDbLinetypeTableRecord
  2
Continuous
 70
     0
  3
Solid line
 72
    65
 73
     0
 40
0.0
  0
LTYPE
  5
5F
330
5
100
AcDbSymbolTableRecord
100
AcDbLinetypeTableRecord
  2
Continuous2
 70
     0
  3
Solid Line
 72
    65
 73
     0
 40
0.0
  0
LTYPE
  5
60
330
5
100
AcDbSymbolTableRecord
100
AcDbLinetypeTableRecord
  2
DASHED
 70
     0
  3
__ __ __ __ __ __ __ __ __ __ __ __ __ __ __ __
 72
    83
 73
     2
 40
0.5
 49
0.375
 74
     0
 49
-0.125
 74
     0
  0
LTYPE
  5
61
330
5
100
AcDbSymbolTableRecord
100
AcDbLinetypeTableRecord
  2
CENTER
 70
     0
  3
____ _ ____ _ ____ _ ____ _ ____ _ ____ _ ____ _
 72
    83
 73
     4
 40
1.0
 49
0.625
 74
     0
 49
-0.125
 74
     0
 49
0.125
 74
     0
 49
-0.125
 74
     0
  0
LTYPE
  5
62
330
5
100
AcDbSymbolTableRecord
100
AcDbLinetypeTableRecord
  2
PHANTOM
 70
     0
  3
___ _ _ ___ _ _ ___ _ _ ___ _ _ ___ _ _ ___ _ _ 
 72
    83
 73
     6
 40
1.0
 49
0.5
 74
     0
 49
-0.1
 74
     0
 49
0.1
 74
     0
 49
-0.1
 74
     0
 49
0.1
 74
     0
 49
-0.1
 74
     0
  0
ENDTAB
  0
TABLE
  2
LAYER
  5
2
330
0
100
AcDbSymbolTable
 70
     2
  0
LAYER
  5
10
330
2
100
AcDbSymbolTableRecord
100
AcDbLayerTableRecord
  2
0
 70
     0
 62
     7
  6
Continuous
370
    -3
390
F
347
46
348
0
  0
LAYER
  5
64
330
2
100
AcDbSymbolTableRecord
100
AcDbLayerTableRecord
  2
Unnamed Level 255
 70
     0
 62
     1
  6
Continuous
370
    -3
390
F
347
46
348
0
  0
ENDTAB
  0
TABLE
  2
STYLE
  5
3
330
0
100
AcDbSymbolTable
 70
     2
  0
STYLE
  5
11
330
3
100
AcDbSymbolTableRecord
100
AcDbTextStyleTableRecord
  2
Standard
 70
     0
 40
0.0
 41
1.0
 50
0.0
 71
     0
 42
0.2
  3
txt
  4

  0
STYLE
  5
63
330
3
100
AcDbSymbolTableRecord
100
AcDbTextStyleTableRecord
  2
MCOLF SimpleSansCJK OC
 70
     0
 40
0.0
 41
1.0
 50
0.0
 71
     0
 42
0.2
  3

  4

1001
ACAD
1000
OLF SimpleSansCJK OC
1071
        0
  0
ENDTAB
  0
TABLE
  2
VIEW
  5
6
330
0
100
AcDbSymbolTable
 70
     0
  0
ENDTAB
  0
TABLE
  2
UCS
  5
7
330
0
100
AcDbSymbolTable
 70
     0
  0
ENDTAB
  0
TABLE
  2
APPID
  5
9
330
0
100
AcDbSymbolTable
 70
     2
  0
APPID
  5
12
330
9
100
AcDbSymbolTableRecord
100
AcDbRegAppTableRecord
  2
ACAD
 70
     0
  0
APPID
  5
5E
330
9
100
AcDbSymbolTableRecord
100
AcDbRegAppTableRecord
  2
Mastercam 2024
 70
     0
  0
ENDTAB
  0
TABLE
  2
DIMSTYLE
  5
A
330
0
100
AcDbSymbolTable
 70
     1
100
AcDbDimStyleTable
  0
DIMSTYLE
105
27
330
A
100
AcDbSymbolTableRecord
100
AcDbDimStyleTableRecord
  2
Standard
 70
     0
178
     0
340
11
  0
ENDTAB
  0
TABLE
  2
BLOCK_RECORD
  5
1
330
0
100
AcDbSymbolTable
 70
     0
  0
BLOCK_RECORD
  5
1F
330
1
100
AcDbSymbolTableRecord
100
AcDbBlockTableRecord
  2
*Model_Space
340
22
 70
     0
280
     1
281
     0
  0
BLOCK_RECORD
  5
23
330
1
100
AcDbSymbolTableRecord
100
AcDbBlockTableRecord
  2
*Paper_Space
340
26
 70
     0
280
     1
281
     0
  0
ENDTAB
  0
ENDSEC
  0
SECTION
  2
BLOCKS
  0
BLOCK
  5
20
330
1F
100
AcDbEntity
  8
0
100
AcDbBlockBegin
  2
*Model_Space
 70
     0
 10
0.0
 20
0.0
 30
0.0
  3
*Model_Space
  1

  0
ENDBLK
  5
21
330
1F
100
AcDbEntity
  8
0
100
AcDbBlockEnd
  0
BLOCK
  5
24
330
23
100
AcDbEntity
 67
     1
  8
0
100
AcDbBlockBegin
  2
*Paper_Space
 70
     0
 10
0.0
 20
0.0
 30
0.0
  3
*Paper_Space
  1

  0
ENDBLK
  5
25
330
23
100
AcDbEntity
 67
     1
  8
0
100
AcDbBlockEnd
  0
ENDSEC
  0
SECTION
  2
ENTITIES
  0
LINE
  5
65
330
1F
100
AcDbEntity
  8
Unnamed Level 255
  6
Continuous2
 62
    18
420
        0
370
    -3
100
AcDbLine
 10
0.1045833333333293
 20
0.0618127764859506
 30
0.0
 11
0.1056249999999959
 21
0.0607711098192839
 31
0.0
  0
ARC
  5
66
330
1F
100
AcDbEntity
  8
Unnamed Level 255
  6
Continuous2
 62
    18
420
        0
370
    -3
100
AcDbCircle
 10
-7.378499395494694
 20
3.768119474211951
 30
0.0
 40
8.352038665032854
100
AcDbArc
 50
333.1172078564197
 51
333.6479483819554
  0
LINE
  5
67
330
1F
100
AcDbEntity
  8
Unnamed Level 255
  6
Continuous2
 62
    18
420
        0
370
    -3
100
AcDbLine
 10
0.0709626040316255
 20
-0.0083955568473836
 30
0.0
 11
0.0719464945773305
 21
-0.0100622235140503
 31
0.0
  0
ARC
  5
68
330
1F
100
AcDbEntity
  8
Unnamed Level 255
  6
Continuous2
 62
    18
420
        0
370
    -3
100
AcDbCircle
 10
0.0221901320682817
 20
-0.0972332494707013
 30
0.0
 40
0.1003717259813091
100
AcDbArc
 50
34.72184472520838
 51
60.28270134858209
  0
ARC
  5
69
330
1F
100
AcDbEntity
  8
Unnamed Level 255
  6
Continuous2
 62
    18
420
        0
370
    -3
100
AcDbCircle
 10
-0.0173829296941778
 20
-0.1113660725147532
 30
0.0
 40
0.1413705697534959
100
AcDbArc
 50
21.9388784461878
 51
30.28990411722239
  0
LINE
  5
6A
330
1F
100
AcDbEntity
  8
Unnamed Level 255
  6
Continuous2
 62
    18
420
        0
370
    -3
100
AcDbLine
 10
0.1137499999999991
 20
-0.0585475838744095
 30
0.0
 11
0.124131496755204
 21
-0.0600622235140489
 31
0.0
  0
LINE
  5
6B
330
1F
100
AcDbEntity
  8
Unnamed Level 255
  6
Continuous2
 62
    18
420
        0
370
    -3
100
AcDbLine
 10
0.124131496755204
 20
-0.0600622235140489
 30
0.0
 11
0.1472036108125765
 21
-0.0708955568473816
 31
0.0
  0
LINE
  5
6C
330
1F
100
AcDbEntity
  8
Unnamed Level 255
  6
Continuous2
 62
    18
420
        0
370
    -3
100
AcDbLine
 10
0.1472036108125765
 20
-0.0708955568473816
 30
0.0
 11
0.1489583333333328
 21
-0.0725622235140482
 31
0.0
  0
LINE
  5
6D
330
1F
100
AcDbEntity
  8
Unnamed Level 255
  6
Continuous2
 62
    18
420
        0
370
    -3
100
AcDbLine
 10
0.1489583333333328
 20
-0.0725622235140482
 30
0.0
 11
0.1487500000000005
 21
-0.1085957184886886
 31
0.0
  0
LINE
  5
6E
330
1F
100
AcDbEntity
  8
Unnamed Level 255
  6
Continuous2
 62
    18
420
        0
370
    -3
100
AcDbLine
 10
0.1487500000000005
 20
-0.1085957184886886
 30
0.0
 11
0.145660757800388
 21
-0.1108955568473817
 31
0.0
  0
LINE
  5
6F
330
1F
100
AcDbEntity
  8
Unnamed Level 255
  6
Continuous2
 62
    18
420
        0
370
    -3
100
AcDbLine
 10
0.145660757800388
 20
-0.1108955568473817
 30
0.0
 11
0.1237500000000008
 21
-0.1211038901807156
 31
0.0
  0
LINE
  5
70
330
1F
100
AcDbEntity
  8
Unnamed Level 255
  6
Continuous2
 62
    18
420
        0
370
    -3
100
AcDbLine
 10
0.1237500000000008
 20
-0.1211038901807156
 30
0.0
 11
0.1137500000000008
 21
-0.122294366371192
 31
0.0
  0
ARC
  5
71
330
1F
100
AcDbEntity
  8
Unnamed Level 255
  6
Continuous2
 62
    18
420
        0
370
    -3
100
AcDbCircle
 10
0.0290005368385553
 20
-0.0912912926321477
 30
0.0
 40
0.0902422411480446
100
AcDbArc
 50
304.0919320454886
 51
339.9064546821342
  0
LINE
  5
72
330
1F
100
AcDbEntity
  8
Unnamed Level 255
  6
Continuous2
 62
    18
420
        0
370
    -3
100
AcDbLine
 10
0.0795833333333353
 20
-0.1660244364586287
 30
0.0
 11
0.0710080645161311
 21
-0.171728890180717
 31
0.0
  0
ARC
  5
73
330
1F
100
AcDbEntity
  8
Unnamed Level 255
  6
Continuous2
 62
    18
420
        0
370
    -3
100
AcDbCircle
 10
3.76282507758019
 20
1.632727177667007
 30
0.0
 40
4.109206074017425
100
AcDbArc
 50
206.0480807707538
 51
207.1265490958428
  0
ARC
  5
74
330
1F
100
AcDbEntity
  8
Unnamed Level 255
  6
Continuous2
 62
    18
420
        0
370
    -3
100
AcDbCircle
 10
0.1031717368393103
 20
-0.2404153115628435
 30
0.0
 40
0.0024998271278108
100
AcDbArc
 50
239.1848157007423
 51
348.9239713125154
  0
LINE
  5
75
330
1F
100
AcDbEntity
  8
Unnamed Level 255
  6
Continuous2
 62
    18
420
        0
370
    -3
100
AcDbLine
 10
0.101891149184088
 20
-0.2425622235140494
 30
0.0
 11
0.0587500000000026
 21
-0.1872994097065193
 31
0.0
  0
ARC
  5
76
330
1F
100
AcDbEntity
  8
Unnamed Level 255
  6
Continuous2
 62
    18
420
        0
370
    -3
100
AcDbCircle
 10
-0.0011329143211597
 20
-0.099064239148281
 30
0.0
 40
0.1066368076746349
100
AcDbArc
 50
289.5684989735507
 51
304.1637175589487
  0
ARC
  5
77
330
1F
100
AcDbEntity
  8
Unnamed Level 255
  6
Continuous2
 62
    18
420
        0
370
    -3
100
AcDbCircle
 10
0.0161700303176204
 20
-0.1232014206684375
 30
0.0
 40
0.07852972080309
100
AcDbArc
 50
270.433847840672
 51
283.5607129234706
  0
ARC
  5
78
330
1F
100
AcDbEntity
  8
Unnamed Level 255
  6
Continuous2
 62
    18
420
        0
370
    -3
100
AcDbCircle
 10
-0.0794193422268125
 20
1.04803476030369
 30
0.0
 40
1.253459430481543
100
AcDbArc
 50
271.3778914584685
 51
274.4009082111463
  0
ARC
  5
79
330
1F
100
AcDbEntity
  8
Unnamed Level 255
  6
Continuous2
 62
    18
420
        0
370
    -3
100
AcDbCircle
 10
-0.025815673900841
 20
-0.0830855582398758
 30
0.0
 40
0.1242126944255982
100
AcDbArc
 50
239.5580045383225
 51
259.1120271161835
  0
LINE
  5
7A
330
1F
100
AcDbEntity
  8
Unnamed Level 255
  6
Continuous2
 62
    18
420
        0
370
    -3
100
AcDbLine
 10
-0.0887499999999974
 20
-0.190174605555239
 30
0.0
 11
-0.0937499999999975
 21
-0.1861005731093005
 31
0.0
  0
LINE
  5
7B
330
1F
100
AcDbEntity
  8
Unnamed Level 255
  6
Continuous2
 62
    18
420
        0
370
    -3
100
AcDbLine
 10
-0.0937499999999975
 20
-0.1861005731093005
 30
0.0
 11
-0.096967559391636
 21
-0.1767288901807214
 31
0.0
  0
LINE
  5
7C
330
1F
100
AcDbEntity
  8
Unnamed Level 255
  6
Continuous2
 62
    18
420
        0
370
    -3
100
AcDbLine
 10
-0.096967559391636
 20
-0.1767288901807214
 30
0.0
 11
-0.1127397624499413
 21
-0.1608955568473885
 31
0.0
  0
ARC
  5
7D
330
1F
100
AcDbEntity
  8
Unnamed Level 255
  6
Continuous2
 62
    18
420
        0
370
    -3
100
AcDbCircle
 10
-0.0869903231490563
 20
-0.1450838973304788
 30
0.0
 40
0.0302165881758454
100
AcDbArc
 50
174.8163746210283
 51
211.5523549450984
  0
LINE
  5
7E
330
1F
100
AcDbEntity
  8
Unnamed Level 255
  6
Continuous2
 62
    18
420
        0
370
    -3
100
AcDbLine
 10
-0.117083333333332
 20
-0.142353890180722
 30
0.0
 11
-0.1162499999999987
 21
-0.1415205568473886
 31
0.0
  0
LINE
  5
7F
330
1F
100
AcDbEntity
  8
Unnamed Level 255
  6
Continuous2
 62
    18
420
        0
370
    -3
100
AcDbLine
 10
-0.1162499999999987
 20
-0.1415205568473886
 30
0.0
 11
-0.1031249999999987
 21
-0.1408955568473882
 31
0.0
  0
ARC
  5
80
330
1F
100
AcDbEntity
  8
Unnamed Level 255
  6
Continuous2
 62
    18
420
        0
370
    -3
100
AcDbCircle
 10
-0.0512881182264695
 20
-0.0630777540919888
 30
0.0
 40
0.0935022606019827
100
AcDbArc
 50
211.2196426379361
 51
236.3311698342124
  0
ARC
  5
81
330
1F
100
AcDbEntity
  8
Unnamed Level 255
  6
Continuous2
 62
    18
420
        0
370
    -3
100
AcDbCircle
 10
-6.683411410646363
 20
-15.60930512881628
 30
0.0
 40
16.82591707108266
100
AcDbArc
 50
67.08227721880999
 51
67.12848228974651
  0
LINE
  5
82
330
1F
100
AcDbEntity
  8
Unnamed Level 255
  6
Continuous2
 62
    18
420
        0
370
    -3
100
AcDbLine
 10
-0.1437499999999996
 20
-0.1062630429205662
 30
0.0
 11
-0.1489583333333331
 21
-0.1017288901807228
 31
0.0
  0
LINE
  5
83
330
1F
100
AcDbEntity
  8
Unnamed Level 255
  6
Continuous2
 62
    18
420
        0
370
    -3
100
AcDbLine
 10
-0.1489583333333331
 20
-0.1017288901807228
 30
0.0
 11
-0.1487500000000003
 21
-0.0790215272989463
 31
0.0
  0
LINE
  5
84
330
1F
100
AcDbEntity
  8
Unnamed Level 255
  6
Continuous2
 62
    18
420
        0
370
    -3
100
AcDbLine
 10
-0.1487500000000003
 20
-0.0790215272989463
 30
0.0
 11
-0.1437500000000005
 21
-0.0746875331062344
 31
0.0
  0
LINE
  5
85
330
1F
100
AcDbEntity
  8
Unnamed Level 255
  6
Continuous2
 62
    18
420
        0
370
    -3
100
AcDbLine
 10
-0.1437500000000005
 20
-0.0746875331062344
 30
0.0
 11
-0.1319382304682726
 21
-0.0700622235140557
 31
0.0
  0
ARC
  5
86
330
1F
100
AcDbEntity
  8
Unnamed Level 255
  6
Continuous2
 62
    18
420
        0
370
    -3
100
AcDbCircle
 10
-0.0372152903411743
 20
-0.1322013161642359
 30
0.0
 40
0.1132859312611655
100
AcDbArc
 50
125.5772168148833
 51
146.7347683702262
  0
LINE
  5
87
330
1F
100
AcDbEntity
  8
Unnamed Level 255
  6
Continuous2
 62
    18
420
        0
370
    -3
100
AcDbLine
 10
-0.1031250000000014
 20
-0.0400622235140549
 30
0.0
 11
-0.1164583333333347
 21
-0.0392288901807219
 31
0.0
  0
LINE
  5
88
330
1F
100
AcDbEntity
  8
Unnamed Level 255
  6
Continuous2
 62
    18
420
        0
370
    -3
100
AcDbLine
 10
-0.1164583333333347
 20
-0.0392288901807219
 30
0.0
 11
-0.1172916666666681
 21
-0.0383955568473886
 31
0.0
  0
ARC
  5
89
330
1F
100
AcDbEntity
  8
Unnamed Level 255
  6
Continuous2
 62
    18
420
        0
370
    -3
100
AcDbCircle
 10
-0.0516051008880973
 20
-0.0409911551664718
 30
0.0
 40
0.0657378281845129
100
AcDbArc
 50
165.2272091437052
 51
177.7371400659011
  0
LINE
  5
8A
330
1F
100
AcDbEntity
  8
Unnamed Level 255
  6
Continuous2
 62
    18
420
        0
370
    -3
100
AcDbLine
 10
-0.1151699380778836
 20
-0.0242288901807219
 30
0.0
 11
-0.1112500000000019
 21
-0.0182271246227338
 31
0.0
  0
LINE
  5
8B
330
1F
100
AcDbEntity
  8
Unnamed Level 255
  6
Continuous2
 62
    18
420
        0
370
    -3
100
AcDbLine
 10
-0.1112500000000019
 20
-0.0182271246227338
 30
0.0
 11
-0.0969423557417608
 21
-0.0042288901807214
 31
0.0
  0
ARC
  5
8C
330
1F
100
AcDbEntity
  8
Unnamed Level 255
  6
Continuous2
 62
    18
420
        0
370
    -3
100
AcDbCircle
 10
-0.0188238255432936
 20
-0.0284067036576504
 30
0.0
 40
0.0817745157423388
100
AcDbArc
 50
155.2946508322596
 51
162.8026177753142
  0
ARC
  5
8D
330
1F
100
AcDbEntity
  8
Unnamed Level 255
  6
Continuous2
 62
    18
420
        0
370
    -3
100
AcDbCircle
 10
-0.0434095059747124
 20
-0.0587190308758531
 30
0.0
 40
0.0814214985427033
100
AcDbArc
 50
112.5115541596332
 51
127.622218157479
  0
ARC
  5
8E
330
1F
100
AcDbEntity
  8
Unnamed Level 255
  6
Continuous2
 62
    18
420
        0
370
    -3
100
AcDbCircle
 10
0.0096621964543697
 20
-0.2153967736107929
 30
0.0
 40
0.246723839752476
100
AcDbArc
 50
103.6948800179154
 51
109.9656543254516
  0
ARC
  5
8F
330
1F
100
AcDbEntity
  8
Unnamed Level 255
  6
Continuous2
 62
    18
420
        0
370
    -3
100
AcDbCircle
 10
-0.1475354956914239
 20
-2.349026567851238
 30
0.0
 40
2.375394328851077
100
AcDbArc
 50
85.74398687520414
 51
87.616553742667
  0
ARC
  5
90
330
1F
100
AcDbEntity
  8
Unnamed Level 255
  6
Continuous2
 62
    18
420
        0
370
    -3
100
AcDbCircle
 10
0.0150822160419885
 20
-0.0480325379677492
 30
0.0
 40
0.0692128562139716
100
AcDbArc
 50
51.7656097364467
 51
78.61067835783777
  0
LINE
  5
91
330
1F
100
AcDbEntity
  8
Unnamed Level 255
  6
Continuous2
 62
    18
420
        0
370
    -3
100
AcDbLine
 10
0.057916666666664
 20
0.006333161742437
 30
0.0
 11
0.0597724268633254
 21
0.0074377764859494
 31
0.0
  0
LINE
  5
92
330
1F
100
AcDbEntity
  8
Unnamed Level 255
  6
Continuous2
 62
    18
420
        0
370
    -3
100
AcDbLine
 10
0.0597724268633254
 20
0.0074377764859494
 30
0.0
 11
0.1020833333333293
 21
0.0618127764859505
 31
0.0
  0
LINE
  5
93
330
1F
100
AcDbEntity
  8
Unnamed Level 255
  6
Continuous2
 62
    18
420
        0
370
    -3
100
AcDbLine
 10
0.1020833333333293
 20
0.0618127764859505
 30
0.0
 11
0.1045833333333293
 21
0.0618127764859506
 31
0.0
  0
LINE
  5
94
330
1F
100
AcDbEntity
  8
Unnamed Level 255
  6
Continuous2
 62
    18
420
        0
370
    -3
100
AcDbLine
 10
0.0887499999999966
 20
0.0380627764859502
 30
0.0
 11
0.0120833333333325
 21
-0.0610643259568198
 31
0.0
  0
LINE
  5
95
330
1F
100
AcDbEntity
  8
Unnamed Level 255
  6
Continuous2
 62
    18
420
        0
370
    -3
100
AcDbLine
 10
0.0120833333333325
 20
-0.0610643259568198
 30
0.0
 11
0.0097916666666659
 21
-0.0633955568473853
 31
0.0
  0
ARC
  5
96
330
1F
100
AcDbEntity
  8
Unnamed Level 255
  6
Continuous2
 62
    18
420
        0
370
    -3
100
AcDbCircle
 10
0.068304108461464
 20
0.0269819920044713
 30
0.0
 40
0.107665255218475
100
AcDbArc
 50
237.0800793966476
 51
244.3362592640319
  0
ARC
  5
97
330
1F
100
AcDbEntity
  8
Unnamed Level 255
  6
Continuous2
 62
    18
420
        0
370
    -3
100
AcDbCircle
 10
0.0265754726155608
 20
-0.042324609236548
 30
0.0
 40
0.0281670908644916
100
AcDbArc
 50
259.9817987331736
 51
283.0103909778309
  0
LINE
  5
98
330
1F
100
AcDbEntity
  8
Unnamed Level 255
  6
Continuous2
 62
    18
420
        0
370
    -3
100
AcDbLine
 10
0.0329166666666661
 20
-0.0697686298198145
 30
0.0
 11
0.0361314923543853
 21
-0.0667288901807179
 31
0.0
  0
LINE
  5
99
330
1F
100
AcDbEntity
  8
Unnamed Level 255
  6
Continuous2
 62
    18
420
        0
370
    -3
100
AcDbLine
 10
0.0361314923543853
 20
-0.0667288901807179
 30
0.0
 11
0.0890373959683688
 21
0.0366044431526169
 31
0.0
  0
LINE
  5
9A
330
1F
100
AcDbEntity
  8
Unnamed Level 255
  6
Continuous2
 62
    18
420
        0
370
    -3
100
AcDbLine
 10
0.0890373959683688
 20
0.0366044431526169
 30
0.0
 11
0.0887499999999966
 21
0.0380627764859502
 31
0.0
  0
ARC
  5
9B
330
1F
100
AcDbEntity
  8
Unnamed Level 255
  6
Continuous2
 62
    18
420
        0
370
    -3
100
AcDbCircle
 10
-0.0157927693312399
 20
-0.1304495668197296
 30
0.0
 40
0.1540014344329315
100
AcDbArc
 50
102.0400162305246
 51
116.4447747344009
  0
ARC
  5
9C
330
1F
100
AcDbEntity
  8
Unnamed Level 255
  6
Continuous2
 62
    18
420
        0
370
    -3
100
AcDbCircle
 10
-0.0630370708654133
 20
0.4106476415510678
 30
0.0
 40
0.4037740735926303
100
AcDbArc
 50
266.9707241488031
 51
272.2644342304777
  0
LINE
  5
9D
330
1F
100
AcDbEntity
  8
Unnamed Level 255
  6
Continuous2
 62
    18
420
        0
370
    -3
100
AcDbLine
 10
-0.0470833333333359
 20
0.0071888694759716
 30
0.0
 11
-0.0304166666666694
 21
0.012646109819382
 31
0.0
  0
LINE
  5
9E
330
1F
100
AcDbEntity
  8
Unnamed Level 255
  6
Continuous2
 62
    18
420
        0
370
    -3
100
AcDbLine
 10
-0.0304166666666694
 20
0.012646109819382
 30
0.0
 11
0.0029166666666639
 21
0.0130267625084799
 31
0.0
  0
LINE
  5
9F
330
1F
100
AcDbEntity
  8
Unnamed Level 255
  6
Continuous2
 62
    18
420
        0
370
    -3
100
AcDbLine
 10
0.0029166666666639
 20
0.0130267625084799
 30
0.0
 11
0.0102083333333305
 21
0.0166044431526148
 31
0.0
  0
ARC
  5
A0
330
1F
100
AcDbEntity
  8
Unnamed Level 255
  6
Continuous2
 62
    18
420
        0
370
    -3
100
AcDbCircle
 10
-0.1542547013602947
 20
-2.19250475747512
 30
0.0
 40
2.215222686340754
100
AcDbArc
 50
85.74231707841679
 51
87.2485551972156
  0
ARC
  5
A1
330
1F
100
AcDbEntity
  8
Unnamed Level 255
  6
Continuous2
 62
    18
420
        0
370
    -3
100
AcDbCircle
 10
0.0246818297019168
 20
-0.0129756706679952
 30
0.0
 40
0.0289846017963808
100
AcDbArc
 50
85.24734058863748
 51
127.7641249521936
  0
ARC
  5
A2
330
1F
100
AcDbEntity
  8
Unnamed Level 255
  6
Continuous2
 62
    18
420
        0
370
    -3
100
AcDbCircle
 10
0.1013929078396388
 20
0.0044685458452537
 30
0.0
 40
0.094619800507313
100
AcDbArc
 50
176.6863321385409
 51
184.6409238614889
  0
LINE
  5
A3
330
1F
100
AcDbEntity
  8
Unnamed Level 255
  6
Continuous2
 62
    18
420
        0
370
    -3
100
AcDbLine
 10
0.007083333333331
 20
-0.003187223514052
 30
0.0
 11
0.0087499999999976
 21
-0.0021819770709625
 31
0.0
  0
ARC
  5
A4
330
1F
100
AcDbEntity
  8
Unnamed Level 255
  6
Continuous2
 62
    18
420
        0
370
    -3
100
AcDbCircle
 10
0.0299236957456213
 20
-0.1354307894162544
 30
0.0
 40
0.1349206114089283
100
AcDbArc
 50
85.66842497440342
 51
99.02900691506588
  0
LINE
  5
A5
330
1F
100
AcDbEntity
  8
Unnamed Level 255
  6
Continuous2
 62
    18
420
        0
370
    -3
100
AcDbLine
 10
0.0401140137288409
 20
-0.0008955568473845
 30
0.0
 11
0.052083333333331
 21
-0.0019016304324284
 31
0.0
  0
LINE
  5
A6
330
1F
100
AcDbEntity
  8
Unnamed Level 255
  6
Continuous2
 62
    18
420
        0
370
    -3
100
AcDbLine
 10
0.052083333333331
 20
-0.0019016304324284
 30
0.0
 11
0.0560416666666642
 21
0.0024377764859493
 31
0.0
  0
ARC
  5
A7
330
1F
100
AcDbEntity
  8
Unnamed Level 255
  6
Continuous2
 62
    18
420
        0
370
    -3
100
AcDbCircle
 10
0.0148597254305728
 20
-0.0482267722923777
 30
0.0
 40
0.0652904953793763
100
AcDbArc
 50
50.89456591662242
 51
79.20947941714087
  0
ARC
  5
A8
330
1F
100
AcDbEntity
  8
Unnamed Level 255
  6
Continuous2
 62
    18
420
        0
370
    -3
100
AcDbCircle
 10
-0.0154161695744645
 20
-0.449429902740193
 30
0.0
 40
0.4581174612766798
100
AcDbArc
 50
87.91513745731856
 51
91.45934521706674
  0
ARC
  5
A9
330
1F
100
AcDbEntity
  8
Unnamed Level 255
  6
Continuous2
 62
    18
420
        0
370
    -3
100
AcDbCircle
 10
0.0070615134565211
 20
0.0037060121237078
 30
0.0
 40
0.0344851854391555
100
AcDbArc
 50
171.9437152781104
 51
194.9911244462352
  0
ARC
  5
AA
330
1F
100
AcDbEntity
  8
Unnamed Level 255
  6
Continuous2
 62
    18
420
        0
370
    -3
100
AcDbCircle
 10
-0.0134295673082195
 20
0.1799654743772456
 30
0.0
 40
0.1856229889190217
100
AcDbArc
 50
266.0395964402277
 51
274.5898928916338
  0
LINE
  5
AB
330
1F
100
AcDbEntity
  8
Unnamed Level 255
  6
Continuous2
 62
    18
420
        0
370
    -3
100
AcDbLine
 10
0.0014245576501179
 20
-0.0050622235140521
 30
0.0
 11
0.0023252688171966
 21
-0.0042288901807188
 31
0.0
  0
ARC
  5
AC
330
1F
100
AcDbEntity
  8
Unnamed Level 255
  6
Continuous2
 62
    18
420
        0
370
    -3
100
AcDbCircle
 10
0.4834610954770573
 20
0.0115356076952762
 30
0.0
 40
0.4813940206202709
100
AcDbArc
 50
180.470899718855
 51
181.876634676439
  0
LINE
  5
AD
330
1F
100
AcDbEntity
  8
Unnamed Level 255
  6
Continuous2
 62
    18
420
        0
370
    -3
100
AcDbLine
 10
0.0020833333333307
 20
0.0075791948695517
 30
0.0
 11
0.0012499999999974
 21
0.0083843031537543
 31
0.0
  0
ARC
  5
AE
330
1F
100
AcDbEntity
  8
Unnamed Level 255
  6
Continuous2
 62
    18
420
        0
370
    -3
100
AcDbCircle
 10
-0.0300323076455352
 20
-0.0179402205711714
 30
0.0
 40
0.0248971463852702
100
AcDbArc
 50
94.7253785579721
 51
121.5746924975335
  0
ARC
  5
AF
330
1F
100
AcDbEntity
  8
Unnamed Level 255
  6
Continuous2
 62
    18
420
        0
370
    -3
100
AcDbCircle
 10
0.0180961034790119
 20
-0.0027828853231164
 30
0.0
 40
0.0614636743968555
100
AcDbArc
 50
174.3473652533727
 51
186.9444266634157
  0
ARC
  5
B0
330
1F
100
AcDbEntity
  8
Unnamed Level 255
  6
Continuous2
 62
    18
420
        0
370
    -3
100
AcDbCircle
 10
-0.0488307409438984
 20
0.0243015203300622
 30
0.0
 40
0.0350187739644235
100
AcDbArc
 50
279.7228784728023
 51
300.4229291578549
  0
LINE
  5
B1
330
1F
100
AcDbEntity
  8
Unnamed Level 255
  6
Continuous2
 62
    18
420
        0
370
    -3
100
AcDbLine
 10
-0.0310979729729752
 20
-0.0058955568473863
 30
0.0
 11
-0.032083333333336
 21
0.0068723002954708
 31
0.0
  0
ARC
  5
B2
330
1F
100
AcDbEntity
  8
Unnamed Level 255
  6
Continuous2
 62
    18
420
        0
370
    -3
100
AcDbCircle
 10
-0.061498555341519
 20
-0.2762625706012818
 30
0.0
 40
0.2792986334934969
100
AcDbArc
 50
87.21268981405663
 51
95.80367047862156
  0
ARC
  5
B3
330
1F
100
AcDbEntity
  8
Unnamed Level 255
  6
Continuous2
 62
    18
420
        0
370
    -3
100
AcDbCircle
 10
-0.0659476074376059
 20
-0.0128083274859015
 30
0.0
 40
0.0278184290357489
100
AcDbArc
 50
148.7950081905169
 51
178.0544310409005
  0
ARC
  5
B4
330
1F
100
AcDbEntity
  8
Unnamed Level 255
  6
Continuous2
 62
    18
420
        0
370
    -3
100
AcDbCircle
 10
-0.0676645882902496
 20
1.081229933576615
 30
0.0
 40
1.093405028450346
100
AcDbArc
 50
268.6329623779513
 51
271.0348718514177
  0
ARC
  5
B5
330
1F
100
AcDbEntity
  8
Unnamed Level 255
  6
Continuous2
 62
    18
420
        0
370
    -3
100
AcDbCircle
 10
-0.1103955812805159
 20
-0.0046455568473884
 30
0.0
 40
0.0629098940767
100
AcDbArc
 50
353.2895029519634
 51
6.710497048039705
  0
ARC
  5
B6
330
1F
100
AcDbEntity
  8
Unnamed Level 255
  6
Continuous2
 62
    18
420
        0
370
    -3
100
AcDbCircle
 10
0.0283514662779313
 20
-0.1083816658612915
 30
0.0
 40
0.1038999589494501
100
AcDbArc
 50
84.71777725924242
 51
99.93995619789199
  0
ARC
  5
B7
330
1F
100
AcDbEntity
  8
Unnamed Level 255
  6
Continuous2
 62
    18
420
        0
370
    -3
100
AcDbCircle
 10
0.0187560475307775
 20
-0.0281530140772718
 30
0.0
 40
0.0236320093311882
100
AcDbArc
 50
110.6638745345446
 51
153.3746619682178
  0
ARC
  5
B8
330
1F
100
AcDbEntity
  8
Unnamed Level 255
  6
Continuous2
 62
    18
420
        0
370
    -3
100
AcDbCircle
 10
-0.1556781517898242
 20
-0.1230504059653092
 30
0.0
 40
0.1860945104662226
100
AcDbArc
 50
23.16184833818315
 51
34.53104778231313
  0
LINE
  5
B9
330
1F
100
AcDbEntity
  8
Unnamed Level 255
  6
Continuous2
 62
    18
420
        0
370
    -3
100
AcDbLine
 10
0.0154166666666656
 20
-0.0498538901807184
 30
0.0
 11
0.0285416666666651
 21
-0.0333955568473848
 31
0.0
  0
ARC
  5
BA
330
1F
100
AcDbEntity
  8
Unnamed Level 255
  6
Continuous2
 62
    18
420
        0
370
    -3
100
AcDbCircle
 10
0.0359478322371012
 20
-0.0142587257927998
 30
0.0
 40
0.0205199802940558
100
AcDbArc
 50
214.5480777805414
 51
248.8430105959193
  0
ARC
  5
BB
330
1F
100
AcDbEntity
  8
Unnamed Level 255
  6
Continuous2
 62
    18
420
        0
370
    -3
100
AcDbCircle
 10
0.0306386293065127
 20
-0.0203008230357669
 30
0.0
 40
0.0128715823560085
100
AcDbArc
 50
59.33728060614541
 51
205.7635218651644
  0
LINE
  5
BC
330
1F
100
AcDbEntity
  8
Unnamed Level 255
  6
Continuous2
 62
    18
420
        0
370
    -3
100
AcDbLine
 10
0.0372029217436909
 20
-0.0092288901807179
 30
0.0
 11
0.0429166666666647
 21
-0.0148538901807177
 31
0.0
  0
LINE
  5
BD
330
1F
100
AcDbEntity
  8
Unnamed Level 255
  6
Continuous2
 62
    18
420
        0
370
    -3
100
AcDbLine
 10
0.0429166666666647
 20
-0.0148538901807177
 30
0.0
 11
0.0493749999999978
 21
-0.0067288901807175
 31
0.0
  0
ARC
  5
BE
330
1F
100
AcDbEntity
  8
Unnamed Level 255
  6
Continuous2
 62
    18
420
        0
370
    -3
100
AcDbCircle
 10
0.0373151659315489
 20
-0.0459924755526778
 30
0.0
 40
0.0410739422751181
100
AcDbArc
 50
72.92562822995683
 51
89.16091118783461
  0
LINE
  5
BF
330
1F
100
AcDbEntity
  8
Unnamed Level 255
  6
Continuous2
 62
    18
420
        0
370
    -3
100
AcDbLine
 10
-0.0187500000000022
 20
-0.0094404071880697
 30
0.0
 11
-0.0291533228978707
 21
-0.010062223514053
 31
0.0
  0
LINE
  5
C0
330
1F
100
AcDbEntity
  8
Unnamed Level 255
  6
Continuous2
 62
    18
420
        0
370
    -3
100
AcDbLine
 10
-0.0291533228978707
 20
-0.010062223514053
 30
0.0
 11
-0.043750000000002
 21
-0.01610389018072
 31
0.0
  0
LINE
  5
C1
330
1F
100
AcDbEntity
  8
Unnamed Level 255
  6
Continuous2
 62
    18
420
        0
370
    -3
100
AcDbLine
 10
-0.043750000000002
 20
-0.01610389018072
 30
0.0
 11
-0.0989583333333353
 21
-0.0158955568473881
 31
0.0
  0
LINE
  5
C2
330
1F
100
AcDbEntity
  8
Unnamed Level 255
  6
Continuous2
 62
    18
420
        0
370
    -3
100
AcDbLine
 10
-0.0989583333333353
 20
-0.0158955568473881
 30
0.0
 11
-0.1004166666666688
 21
-0.0127705568473882
 31
0.0
  0
ARC
  5
C3
330
1F
100
AcDbEntity
  8
Unnamed Level 255
  6
Continuous2
 62
    18
420
        0
370
    -3
100
AcDbCircle
 10
-0.0718570568476417
 20
-0.0469371778902413
 30
0.0
 40
0.0445309926511975
100
AcDbArc
 50
129.8919853607666
 51
153.0120713835414
  0
ARC
  5
C4
330
1F
100
AcDbEntity
  8
Unnamed Level 255
  6
Continuous2
 62
    18
420
        0
370
    -3
100
AcDbCircle
 10
-0.1284922420868785
 20
-0.0262187438086529
 30
0.0
 40
0.0169611954265425
100
AcDbArc
 50
331.8187015677953
 51
358.2764397136231
  0
LINE
  5
C5
330
1F
100
AcDbEntity
  8
Unnamed Level 255
  6
Continuous2
 62
    18
420
        0
370
    -3
100
AcDbLine
 10
-0.1135416666666682
 20
-0.0342288901807219
 30
0.0
 11
-0.1112500000000015
 21
-0.035318719459484
 31
0.0
  0
ARC
  5
C6
330
1F
100
AcDbEntity
  8
Unnamed Level 255
  6
Continuous2
 62
    18
420
        0
370
    -3
100
AcDbCircle
 10
-0.0850197473270298
 20
1.151773224908194
 30
0.0
 40
1.187381703807972
100
AcDbArc
 50
268.7341854506737
 51
271.5090612390398
  0
ARC
  5
C7
330
1F
100
AcDbEntity
  8
Unnamed Level 255
  6
Continuous2
 62
    18
420
        0
370
    -3
100
AcDbCircle
 10
0.0962918344589699
 20
-0.3624821989400827
 30
0.0
 40
0.3600394068690353
100
AcDbArc
 50
110.3222848942217
 51
114.6287675017834
  0
LINE
  5
C8
330
1F
100
AcDbEntity
  8
Unnamed Level 255
  6
Continuous2
 62
    18
420
        0
370
    -3
100
AcDbLine
 10
-0.0287500000000017
 20
-0.0248538320427768
 30
0.0
 11
-0.0129166666666685
 21
-0.0244168883754196
 31
0.0
  0
LINE
  5
C9
330
1F
100
AcDbEntity
  8
Unnamed Level 255
  6
Continuous2
 62
    18
420
        0
370
    -3
100
AcDbLine
 10
-0.0129166666666685
 20
-0.0244168883754196
 30
0.0
 11
-0.0022916666666688
 21
-0.0100622235140522
 31
0.0
  0
LINE
  5
CA
330
1F
100
AcDbEntity
  8
Unnamed Level 255
  6
Continuous2
 62
    18
420
        0
370
    -3
100
AcDbLine
 10
-0.0022916666666688
 20
-0.0100622235140522
 30
0.0
 11
-0.0187500000000022
 21
-0.0094404071880697
 31
0.0
  0
ARC
  5
CB
330
1F
100
AcDbEntity
  8
Unnamed Level 255
  6
Continuous2
 62
    18
420
        0
370
    -3
100
AcDbCircle
 10
0.0308924091807475
 20
-0.0204619417559486
 30
0.0
 40
0.009115300889108
100
AcDbArc
 50
77.16921098755037
 51
194.8934689774107
  0
ARC
  5
CC
330
1F
100
AcDbEntity
  8
Unnamed Level 255
  6
Continuous2
 62
    18
420
        0
370
    -3
100
AcDbCircle
 10
0.0339839694784276
 20
-0.0164628120922215
 30
0.0
 40
0.0134850177215039
100
AcDbArc
 50
208.0536010048605
 51
243.2608604285396
  0
LINE
  5
CD
330
1F
100
AcDbEntity
  8
Unnamed Level 255
  6
Continuous2
 62
    18
420
        0
370
    -3
100
AcDbLine
 10
0.027916666666665
 20
-0.0285057992440727
 30
0.0
 11
0.03146041276395
 21
-0.0283955568473847
 31
0.0
  0
ARC
  5
CE
330
1F
100
AcDbEntity
  8
Unnamed Level 255
  6
Continuous2
 62
    18
420
        0
370
    -3
100
AcDbCircle
 10
-0.2552097848794019
 20
0.2157578563031851
 30
0.0
 40
0.3765510474954906
100
AcDbArc
 50
319.579379830723
 51
321.3874933843425
  0
ARC
  5
CF
330
1F
100
AcDbEntity
  8
Unnamed Level 255
  6
Continuous2
 62
    18
420
        0
370
    -3
100
AcDbCircle
 10
0.0294385750892717
 20
-0.0206095948404914
 30
0.0
 40
0.0096816633405532
100
AcDbArc
 50
8.198919823780285
 51
68.94614845273244
  0
LINE
  5
D0
330
1F
100
AcDbEntity
  8
Unnamed Level 255
  6
Continuous2
 62
    18
420
        0
370
    -3
100
AcDbLine
 10
0.068749999999998
 20
-0.0127705568473837
 30
0.0
 11
0.0409626040316271
 21
-0.0667288901807178
 31
0.0
  0
ARC
  5
D1
330
1F
100
AcDbEntity
  8
Unnamed Level 255
  6
Continuous2
 62
    18
420
        0
370
    -3
100
AcDbCircle
 10
0.044579076950297
 20
-0.0654401794340235
 30
0.0
 40
0.0038392254114754
100
AcDbArc
 50
199.6132530070862
 51
260.6953101538469
  0
LINE
  5
D2
330
1F
100
AcDbEntity
  8
Unnamed Level 255
  6
Continuous2
 62
    18
420
        0
370
    -3
100
AcDbLine
 10
0.0439583333333327
 20
-0.0692288901807177
 30
0.0
 11
0.0456249999999994
 21
-0.0708955568473843
 31
0.0
  0
LINE
  5
D3
330
1F
100
AcDbEntity
  8
Unnamed Level 255
  6
Continuous2
 62
    18
420
        0
370
    -3
100
AcDbLine
 10
0.0456249999999994
 20
-0.0708955568473843
 30
0.0
 11
0.0454166666666671
 21
-0.1102705568473843
 31
0.0
  0
ARC
  5
D4
330
1F
100
AcDbEntity
  8
Unnamed Level 255
  6
Continuous2
 62
    18
420
        0
370
    -3
100
AcDbCircle
 10
0.0275945348449955
 20
-0.0898001601384822
 30
0.0
 40
0.0271415829326307
100
AcDbArc
 50
299.6173982879652
 51
311.0437927012989
  0
ARC
  5
D5
330
1F
100
AcDbEntity
  8
Unnamed Level 255
  6
Continuous2
 62
    18
420
        0
370
    -3
100
AcDbCircle
 10
6.619752258327282
 20
3.183113513194224
 30
0.0
 40
7.358454132252952
100
AcDbArc
 50
206.6147556136643
 51
207.0929541897912
  0
ARC
  5
D6
330
1F
100
AcDbEntity
  8
Unnamed Level 255
  6
Continuous2
 62
    18
420
        0
370
    -3
100
AcDbCircle
 10
-0.0184854405357752
 20
-0.0330783163881066
 30
0.0
 40
0.160824248390092
100
AcDbArc
 50
302.8490195873644
 51
313.3309514551066
  0
ARC
  5
D7
330
1F
100
AcDbEntity
  8
Unnamed Level 255
  6
Continuous2
 62
    18
420
        0
370
    -3
100
AcDbCircle
 10
0.0395439622950577
 20
-0.0992029724331041
 30
0.0
 40
0.0729732514464691
100
AcDbArc
 50
315.8165935430328
 51
339.9435100724486
  0
LINE
  5
D8
330
1F
100
AcDbEntity
  8
Unnamed Level 255
  6
Continuous2
 62
    18
420
        0
370
    -3
100
AcDbLine
 10
0.1080917475806478
 20
-0.124228890180716
 30
0.0
 11
0.1079166666666675
 21
-0.122426262063345
 31
0.0
  0
ARC
  5
D9
330
1F
100
AcDbEntity
  8
Unnamed Level 255
  6
Continuous2
 62
    18
420
        0
370
    -3
100
AcDbCircle
 10
0.0733626289572651
 20
0.4896610169197163
 30
0.0
 40
0.6130618391442342
100
AcDbArc
 50
269.7625344899535
 51
273.2310774168739
  0
LINE
  5
DA
330
1F
100
AcDbEntity
  8
Unnamed Level 255
  6
Continuous2
 62
    18
420
        0
370
    -3
100
AcDbLine
 10
0.070821767714473
 20
-0.1233955568473836
 30
0.0
 11
0.056135396981226
 21
-0.1167288901807173
 31
0.0
  0
LINE
  5
DB
330
1F
100
AcDbEntity
  8
Unnamed Level 255
  6
Continuous2
 62
    18
420
        0
370
    -3
100
AcDbLine
 10
0.056135396981226
 20
-0.1167288901807173
 30
0.0
 11
0.0468750000000004
 21
-0.1050622235140509
 31
0.0
  0
LINE
  5
DC
330
1F
100
AcDbEntity
  8
Unnamed Level 255
  6
Continuous2
 62
    18
420
        0
370
    -3
100
AcDbLine
 10
0.0468750000000004
 20
-0.1050622235140509
 30
0.0
 11
0.0470833333333329
 21
-0.0756153848607826
 31
0.0
  0
LINE
  5
DD
330
1F
100
AcDbEntity
  8
Unnamed Level 255
  6
Continuous2
 62
    18
420
        0
370
    -3
100
AcDbLine
 10
0.0470833333333329
 20
-0.0756153848607826
 30
0.0
 11
0.0570833333333326
 21
-0.0631872235140507
 31
0.0
  0
LINE
  5
DE
330
1F
100
AcDbEntity
  8
Unnamed Level 255
  6
Continuous2
 62
    18
420
        0
370
    -3
100
AcDbLine
 10
0.0570833333333326
 20
-0.0631872235140507
 30
0.0
 11
0.0712499999999991
 21
-0.057353890180717
 31
0.0
  0
LINE
  5
DF
330
1F
100
AcDbEntity
  8
Unnamed Level 255
  6
Continuous2
 62
    18
420
        0
370
    -3
100
AcDbLine
 10
0.0712499999999991
 20
-0.057353890180717
 30
0.0
 11
0.1093749999999991
 21
-0.0583955568473826
 31
0.0
  0
LINE
  5
E0
330
1F
100
AcDbEntity
  8
Unnamed Level 255
  6
Continuous2
 62
    18
420
        0
370
    -3
100
AcDbLine
 10
0.1093749999999991
 20
-0.0583955568473826
 30
0.0
 11
0.1037499999999988
 21
-0.0465103578002124
 31
0.0
  0
ARC
  5
E1
330
1F
100
AcDbEntity
  8
Unnamed Level 255
  6
Continuous2
 62
    18
420
        0
370
    -3
100
AcDbCircle
 10
0.0249440225913211
 20
-0.0943054313348114
 30
0.0
 40
0.0921669741800974
100
AcDbArc
 50
31.23641196976924
 51
58.63439716337138
  0
LINE
  5
E2
330
1F
100
AcDbEntity
  8
Unnamed Level 255
  6
Continuous2
 62
    18
420
        0
370
    -3
100
AcDbLine
 10
0.0729166666666647
 20
-0.0156074227835453
 30
0.0
 11
0.068749999999998
 21
-0.0127705568473837
 31
0.0
  0
ARC
  5
E3
330
1F
100
AcDbEntity
  8
Unnamed Level 255
  6
Continuous2
 62
    18
420
        0
370
    -3
100
AcDbCircle
 10
0.169053221326611
 20
-0.1303538251950629
 30
0.0
 40
0.2058525931753737
100
AcDbArc
 50
147.9459350790431
 51
163.2115353357364
  0
ARC
  5
E4
330
1F
100
AcDbEntity
  8
Unnamed Level 255
  6
Continuous2
 62
    18
420
        0
370
    -3
100
AcDbCircle
 10
0.0931954205391372
 20
-0.1011936069176206
 30
0.0
 40
0.1249498794272704
100
AcDbArc
 50
165.9669455810858
 51
175.6557920863785
  0
ARC
  5
E5
330
1F
100
AcDbEntity
  8
Unnamed Level 255
  6
Continuous2
 62
    18
420
        0
370
    -3
100
AcDbCircle
 10
0.1235067728919588
 20
-0.0705874532894204
 30
0.0
 40
0.156338309676547
100
AcDbArc
 50
187.7718485935852
 51
214.4475911705637
  0
ARC
  5
E6
330
1F
100
AcDbEntity
  8
Unnamed Level 255
  6
Continuous2
 62
    18
420
        0
370
    -3
100
AcDbCircle
 10
-0.0802324304988335
 20
-0.098819698032211
 30
0.0
 40
0.0960288598280508
100
AcDbArc
 50
321.1779405767766
 51
342.5837554573893
  0
LINE
  5
E7
330
1F
100
AcDbEntity
  8
Unnamed Level 255
  6
Continuous2
 62
    18
420
        0
370
    -3
100
AcDbLine
 10
0.0113940348307925
 20
-0.1275622235140519
 30
0.0
 11
0.0112500000000009
 21
-0.1256877335045153
 31
0.0
  0
LINE
  5
E8
330
1F
100
AcDbEntity
  8
Unnamed Level 255
  6
Continuous2
 62
    18
420
        0
370
    -3
100
AcDbLine
 10
0.0112500000000009
 20
-0.1256877335045153
 30
0.0
 11
0.0054166666666674
 21
-0.1182435298203584
 31
0.0
  0
LINE
  5
E9
330
1F
100
AcDbEntity
  8
Unnamed Level 255
  6
Continuous2
 62
    18
420
        0
370
    -3
100
AcDbLine
 10
0.0054166666666674
 20
-0.1182435298203584
 30
0.0
 11
-0.002291666666666
 21
-0.1175622235140523
 31
0.0
  0
LINE
  5
EA
330
1F
100
AcDbEntity
  8
Unnamed Level 255
  6
Continuous2
 62
    18
420
        0
370
    -3
100
AcDbLine
 10
-0.002291666666666
 20
-0.1175622235140523
 30
0.0
 11
-0.0272916666666667
 21
-0.0925622235140529
 31
0.0
  0
LINE
  5
EB
330
1F
100
AcDbEntity
  8
Unnamed Level 255
  6
Continuous2
 62
    18
420
        0
370
    -3
100
AcDbLine
 10
-0.0272916666666667
 20
-0.0925622235140529
 30
0.0
 11
-0.0270833333333334
 21
-0.0881872235140529
 31
0.0
  0
LINE
  5
EC
330
1F
100
AcDbEntity
  8
Unnamed Level 255
  6
Continuous2
 62
    18
420
        0
370
    -3
100
AcDbLine
 10
-0.0270833333333334
 20
-0.0881872235140529
 30
0.0
 11
-0.0020833333333341
 21
-0.0631872235140522
 31
0.0
  0
LINE
  5
ED
330
1F
100
AcDbEntity
  8
Unnamed Level 255
  6
Continuous2
 62
    18
420
        0
370
    -3
100
AcDbLine
 10
-0.0020833333333341
 20
-0.0631872235140522
 30
0.0
 11
0.005586224738251
 21
-0.062562223514052
 31
0.0
  0
LINE
  5
EE
330
1F
100
AcDbEntity
  8
Unnamed Level 255
  6
Continuous2
 62
    18
420
        0
370
    -3
100
AcDbLine
 10
0.005586224738251
 20
-0.062562223514052
 30
0.0
 11
0.0113781974567619
 21
-0.0550622235140519
 31
0.0
  0
ARC
  5
EF
330
1F
100
AcDbEntity
  8
Unnamed Level 255
  6
Continuous2
 62
    18
420
        0
370
    -3
100
AcDbCircle
 10
-0.0206273158440473
 20
-0.0584553608256085
 30
0.0
 40
0.0321848763002648
100
AcDbArc
 50
6.051736824166247
 51
30.57280373465395
  0
ARC
  5
F0
330
1F
100
AcDbEntity
  8
Unnamed Level 255
  6
Continuous2
 62
    18
420
        0
370
    -3
100
AcDbCircle
 10
-0.0980368443131606
 20
-0.0904985493872767
 30
0.0
 40
0.1157329513736776
100
AcDbArc
 50
24.72860226581006
 51
36.84198604763934
  0
ARC
  5
F1
330
1F
100
AcDbEntity
  8
Unnamed Level 255
  6
Continuous2
 62
    18
420
        0
370
    -3
100
AcDbCircle
 10
0.0377979112865487
 20
-0.0779033846769319
 30
0.0
 40
0.063590707925846
100
AcDbArc
 50
42.35340235350895
 51
60.87351861112361
  0
ARC
  5
F2
330
1F
100
AcDbEntity
  8
Unnamed Level 255
  6
Continuous2
 62
    18
420
        0
370
    -3
100
AcDbCircle
 10
0.0829221012569381
 20
-0.0358328218458057
 30
0.0
 40
0.002022151480516
100
AcDbArc
 50
238.7849926151208
 51
22.40049972335428
  0
ARC
  5
F3
330
1F
100
AcDbEntity
  8
Unnamed Level 255
  6
Continuous2
 62
    18
420
        0
370
    -3
100
AcDbCircle
 10
-0.2106203174422137
 20
-0.3917579031509599
 30
0.0
 40
0.459355608342204
100
AcDbArc
 50
50.45014008369232
 51
52.96643296930425
  0
ARC
  5
F4
330
1F
100
AcDbEntity
  8
Unnamed Level 255
  6
Continuous2
 62
    18
420
        0
370
    -3
100
AcDbCircle
 10
0.0688964300350096
 20
-0.0252086535490618
 30
0.0
 40
0.002858516336213
100
AcDbArc
 50
92.936312278716
 51
177.0636877212859
  0
ARC
  5
F5
330
1F
100
AcDbEntity
  8
Unnamed Level 255
  6
Continuous2
 62
    18
420
        0
370
    -3
100
AcDbCircle
 10
-0.0241537868367261
 20
-0.0310303353352589
 30
0.0
 40
0.0068286165507046
100
AcDbArc
 50
266.3934918856486
 51
312.0137440484078
  0
ARC
  5
F6
330
1F
100
AcDbEntity
  8
Unnamed Level 255
  6
Continuous2
 62
    18
420
        0
370
    -3
100
AcDbCircle
 10
0.0486712982647126
 20
-0.1264665596357789
 30
0.0
 40
0.1149780237605351
100
AcDbArc
 50
129.577290940487
 51
138.3550620081172
  0
ARC
  5
F7
330
1F
100
AcDbEntity
  8
Unnamed Level 255
  6
Continuous2
 62
    18
420
        0
370
    -3
100
AcDbCircle
 10
0.0758906045694693
 20
-0.0596583217489101
 30
0.0
 40
0.1135459778500629
100
AcDbArc
 50
175.1519855205209
 51
185.7537028668491
  0
LINE
  5
F8
330
1F
100
AcDbEntity
  8
Unnamed Level 255
  6
Continuous2
 62
    18
420
        0
370
    -3
100
AcDbLine
 10
-0.0370833333333339
 20
-0.0710415743886673
 30
0.0
 11
-0.0337500000000004
 21
-0.0756872235140531
 31
0.0
  0
ARC
  5
F9
330
1F
100
AcDbEntity
  8
Unnamed Level 255
  6
Continuous2
 62
    18
420
        0
370
    -3
100
AcDbCircle
 10
0.1251857772106349
 20
-0.1141409914591291
 30
0.0
 40
0.1635214773255259
100
AcDbArc
 50
152.0753393368359
 51
166.3989249195127
  0
LINE
  5
FA
330
1F
100
AcDbEntity
  8
Unnamed Level 255
  6
Continuous2
 62
    18
420
        0
370
    -3
100
AcDbLine
 10
-0.019295937365074
 20
-0.0375622235140527
 30
0.0
 11
-0.0195833333333348
 21
-0.0361038901807194
 31
0.0
  0
LINE
  5
FB
330
1F
100
AcDbEntity
  8
Unnamed Level 255
  6
Continuous2
 62
    18
420
        0
370
    -3
100
AcDbLine
 10
-0.0445833333333348
 20
-0.0364610330378629
 30
0.0
 11
-0.052916666666668
 21
-0.0394372235140539
 31
0.0
  0
LINE
  5
FC
330
1F
100
AcDbEntity
  8
Unnamed Level 255
  6
Continuous2
 62
    18
420
        0
370
    -3
100
AcDbLine
 10
-0.052916666666668
 20
-0.0394372235140539
 30
0.0
 11
-0.092916666666668
 21
-0.0397169492268602
 31
0.0
  0
ARC
  5
FD
330
1F
100
AcDbEntity
  8
Unnamed Level 255
  6
Continuous2
 62
    18
420
        0
370
    -3
100
AcDbCircle
 10
-0.0810672851439537
 20
-0.0744475920520549
 30
0.0
 40
0.0366963948300387
100
AcDbArc
 50
108.8385863270616
 51
131.5701142753558
  0
ARC
  5
FE
330
1F
100
AcDbEntity
  8
Unnamed Level 255
  6
Continuous2
 62
    18
420
        0
370
    -3
100
AcDbCircle
 10
-0.0524848857213303
 20
-0.1185868392927925
 30
0.0
 40
0.0890359191624086
100
AcDbArc
 50
126.4769380177897
 51
141.6928766183917
  0
LINE
  5
FF
330
1F
100
AcDbEntity
  8
Unnamed Level 255
  6
Continuous2
 62
    18
420
        0
370
    -3
100
AcDbLine
 10
-0.1223513100117335
 20
-0.0633955568473888
 30
0.0
 11
-0.122083333333334
 21
-0.0648538901807221
 31
0.0
  0
ARC
  5
100
330
1F
100
AcDbEntity
  8
Unnamed Level 255
  6
Continuous2
 62
    18
420
        0
370
    -3
100
AcDbCircle
 10
-0.0714198936512672
 20
-0.1765215626254374
 30
0.0
 40
0.1226232163566046
100
AcDbArc
 50
85.79211884506293
 51
114.4037177096392
  0
LINE
  5
101
330
1F
100
AcDbEntity
  8
Unnamed Level 255
  6
Continuous2
 62
    18
420
        0
370
    -3
100
AcDbLine
 10
-0.0624223686600353
 20
-0.0542288901807205
 30
0.0
 11
-0.0585743859026985
 21
-0.0542288901807204
 31
0.0
  0
LINE
  5
102
330
1F
100
AcDbEntity
  8
Unnamed Level 255
  6
Continuous2
 62
    18
420
        0
370
    -3
100
AcDbLine
 10
-0.0585743859026985
 20
-0.0542288901807204
 30
0.0
 11
-0.0439583333333348
 21
-0.03672889018072
 31
0.0
  0
LINE
  5
103
330
1F
100
AcDbEntity
  8
Unnamed Level 255
  6
Continuous2
 62
    18
420
        0
370
    -3
100
AcDbLine
 10
-0.0439583333333348
 20
-0.03672889018072
 30
0.0
 11
-0.0445833333333348
 21
-0.0364610330378629
 31
0.0
  0
ARC
  5
104
330
1F
100
AcDbEntity
  8
Unnamed Level 255
  6
Continuous2
 62
    18
420
        0
370
    -3
100
AcDbCircle
 10
0.0279313717551499
 20
-0.0958840312374927
 30
0.0
 40
0.0833732550824171
100
AcDbArc
 50
34.72155823910145
 51
41.45598752285234
  0
ARC
  5
105
330
1F
100
AcDbEntity
  8
Unnamed Level 255
  6
Continuous2
 62
    18
420
        0
370
    -3
100
AcDbCircle
 10
0.0945964481036838
 20
-0.0491679849144397
 30
0.0
 40
0.00201575338947
100
AcDbArc
 50
238.9853253517529
 51
22.53177380527872
  0
LINE
  5
106
330
1F
100
AcDbEntity
  8
Unnamed Level 255
  6
Continuous2
 62
    18
420
        0
370
    -3
100
AcDbLine
 10
0.093557815857089
 20
-0.050895556847383
 30
0.0
 11
0.087708333333332
 21
-0.0433955568473832
 31
0.0
  0
ARC
  5
107
330
1F
100
AcDbEntity
  8
Unnamed Level 255
  6
Continuous2
 62
    18
420
        0
370
    -3
100
AcDbCircle
 10
0.0896959148714863
 20
-0.042674805052204
 30
0.0
 40
0.002114228824197
100
AcDbArc
 50
70.06796104391847
 51
199.9320389560839
  0
ARC
  5
108
330
1F
100
AcDbEntity
  8
Unnamed Level 255
  6
Continuous2
 62
    18
420
        0
370
    -3
100
AcDbCircle
 10
-0.0706806163964042
 20
-0.1772254563850639
 30
0.0
 40
0.1191253197646717
100
AcDbArc
 50
87.0661039753252
 51
115.8965590046352
  0
LINE
  5
109
330
1F
100
AcDbEntity
  8
Unnamed Level 255
  6
Continuous2
 62
    18
420
        0
370
    -3
100
AcDbLine
 10
-0.1227083333333339
 20
-0.0700622235140554
 30
0.0
 11
-0.0912500000000004
 21
-0.0773538901807213
 31
0.0
  0
LINE
  5
10A
330
1F
100
AcDbEntity
  8
Unnamed Level 255
  6
Continuous2
 62
    18
420
        0
370
    -3
100
AcDbLine
 10
-0.0912500000000004
 20
-0.0773538901807213
 30
0.0
 11
-0.0893750000000003
 21
-0.0800622235140546
 31
0.0
  0
LINE
  5
10B
330
1F
100
AcDbEntity
  8
Unnamed Level 255
  6
Continuous2
 62
    18
420
        0
370
    -3
100
AcDbLine
 10
-0.0893750000000003
 20
-0.0800622235140546
 30
0.0
 11
-0.0895833333333331
 21
-0.1012686347710275
 31
0.0
  0
LINE
  5
10C
330
1F
100
AcDbEntity
  8
Unnamed Level 255
  6
Continuous2
 62
    18
420
        0
370
    -3
100
AcDbLine
 10
-0.0895833333333331
 20
-0.1012686347710275
 30
0.0
 11
-0.0912499999999997
 21
-0.1036038901807213
 31
0.0
  0
LINE
  5
10D
330
1F
100
AcDbEntity
  8
Unnamed Level 255
  6
Continuous2
 62
    18
420
        0
370
    -3
100
AcDbLine
 10
-0.0912499999999997
 20
-0.1036038901807213
 30
0.0
 11
-0.1218749999999995
 21
-0.1108955568473887
 31
0.0
  0
ARC
  5
10E
330
1F
100
AcDbEntity
  8
Unnamed Level 255
  6
Continuous2
 62
    18
420
        0
370
    -3
100
AcDbCircle
 10
-0.0701648920657001
 20
0.0039437278286466
 30
0.0
 40
0.1259444185642237
100
AcDbArc
 50
245.7588008549713
 51
271.4020306192203
  0
LINE
  5
10F
330
1F
100
AcDbEntity
  8
Unnamed Level 255
  6
Continuous2
 62
    18
420
        0
370
    -3
100
AcDbLine
 10
-0.0670833333333326
 20
-0.1219629859052101
 30
0.0
 11
-0.0594528868334836
 21
-0.1208955568473871
 31
0.0
  0
LINE
  5
110
330
1F
100
AcDbEntity
  8
Unnamed Level 255
  6
Continuous2
 62
    18
420
        0
370
    -3
100
AcDbLine
 10
-0.0594528868334836
 20
-0.1208955568473871
 30
0.0
 11
-0.0518277571079439
 21
-0.0917288901807202
 31
0.0
  0
LINE
  5
111
330
1F
100
AcDbEntity
  8
Unnamed Level 255
  6
Continuous2
 62
    18
420
        0
370
    -3
100
AcDbLine
 10
-0.0518277571079439
 20
-0.0917288901807202
 30
0.0
 11
-0.0523996279338294
 21
-0.0858955568473869
 31
0.0
  0
LINE
  5
112
330
1F
100
AcDbEntity
  8
Unnamed Level 255
  6
Continuous2
 62
    18
420
        0
370
    -3
100
AcDbLine
 10
-0.0523996279338294
 20
-0.0858955568473869
 30
0.0
 11
-0.0595833333333342
 21
-0.0590768631536934
 31
0.0
  0
LINE
  5
113
330
1F
100
AcDbEntity
  8
Unnamed Level 255
  6
Continuous2
 62
    18
420
        0
370
    -3
100
AcDbLine
 10
-0.0595833333333342
 20
-0.0590768631536934
 30
0.0
 11
-0.0645833333333342
 21
-0.0582562799220654
 31
0.0
  0
ARC
  5
114
330
1F
100
AcDbEntity
  8
Unnamed Level 255
  6
Continuous2
 62
    18
420
        0
370
    -3
100
AcDbCircle
 10
0.0914839781408359
 20
-0.1280878666666647
 30
0.0
 40
0.0688852449510966
100
AcDbArc
 50
104.202218248398
 51
118.5207172145495
  0
ARC
  5
115
330
1F
100
AcDbEntity
  8
Unnamed Level 255
  6
Continuous2
 62
    18
420
        0
370
    -3
100
AcDbCircle
 10
0.0859181010394904
 20
-0.0934340014309216
 30
0.0
 40
0.0376299866633044
100
AcDbArc
 50
136.5650268176236
 51
157.8214305591094
  0
ARC
  5
116
330
1F
100
AcDbEntity
  8
Unnamed Level 255
  6
Continuous2
 62
    18
420
        0
370
    -3
100
AcDbCircle
 10
-0.5080923003124143
 20
-0.0922262791291169
 30
0.0
 40
0.5593156251640613
100
AcDbArc
 50
358.9411350673349
 51
1.331560459820004
  0
ARC
  5
117
330
1F
100
AcDbEntity
  8
Unnamed Level 255
  6
Continuous2
 62
    18
420
        0
370
    -3
100
AcDbCircle
 10
0.1449246808570461
 20
-0.0455607054484537
 30
0.0
 40
0.109758941325682
100
AcDbArc
 50
211.2875686028238
 51
218.2675974181895
  0
LINE
  5
118
330
1F
100
AcDbEntity
  8
Unnamed Level 255
  6
Continuous2
 62
    18
420
        0
370
    -3
100
AcDbLine
 10
0.0587500000000006
 20
-0.1135382721901433
 30
0.0
 11
0.0729166666666674
 21
-0.119466356170883
 31
0.0
  0
ARC
  5
119
330
1F
100
AcDbEntity
  8
Unnamed Level 255
  6
Continuous2
 62
    18
420
        0
370
    -3
100
AcDbCircle
 10
0.0714125388237785
 20
0.3236033013116992
 30
0.0
 40
0.4430722105732884
100
AcDbArc
 50
270.1945063145914
 51
276.3753089158307
  0
ARC
  5
11A
330
1F
100
AcDbEntity
  8
Unnamed Level 255
  6
Continuous2
 62
    18
420
        0
370
    -3
100
AcDbCircle
 10
0.1048445390102026
 20
-0.1014925925517241
 30
0.0
 40
0.0219258776678494
100
AcDbArc
 50
315.9807319288788
 51
341.6493378843207
  0
LINE
  5
11B
330
1F
100
AcDbEntity
  8
Unnamed Level 255
  6
Continuous2
 62
    18
420
        0
370
    -3
100
AcDbLine
 10
0.1256554302798808
 20
-0.1083955568473822
 30
0.0
 11
0.126003927028432
 21
-0.0775622235140489
 31
0.0
  0
ARC
  5
11C
330
1F
100
AcDbEntity
  8
Unnamed Level 255
  6
Continuous2
 62
    18
420
        0
370
    -3
100
AcDbCircle
 10
0.1083840395950753
 20
-0.0769531470489428
 30
0.0
 40
0.0176304114332169
100
AcDbArc
 50
358.020213178119
 51
46.96126029042854
  0
ARC
  5
11D
330
1F
100
AcDbEntity
  8
Unnamed Level 255
  6
Continuous2
 62
    18
420
        0
370
    -3
100
AcDbCircle
 10
0.0634535560771405
 20
-0.6282419610582292
 30
0.0
 40
0.5670431572395259
100
AcDbArc
 50
84.23454775317363
 51
88.87534095519673
  0
LINE
  5
11E
330
1F
100
AcDbEntity
  8
Unnamed Level 255
  6
Continuous2
 62
    18
420
        0
370
    -3
100
AcDbLine
 10
0.1295833333333327
 20
-0.0672943663711916
 30
0.0
 11
0.1281249999999994
 21
-0.0675622235140488
 31
0.0
  0
LINE
  5
11F
330
1F
100
AcDbEntity
  8
Unnamed Level 255
  6
Continuous2
 62
    18
420
        0
370
    -3
100
AcDbLine
 10
0.1281249999999994
 20
-0.0675622235140488
 30
0.0
 11
0.1297916666666661
 21
-0.0700622235140487
 31
0.0
  0
LINE
  5
120
330
1F
100
AcDbEntity
  8
Unnamed Level 255
  6
Continuous2
 62
    18
420
        0
370
    -3
100
AcDbLine
 10
0.1297916666666661
 20
-0.0700622235140487
 30
0.0
 11
0.1295833333333339
 21
-0.1119372235140487
 31
0.0
  0
LINE
  5
121
330
1F
100
AcDbEntity
  8
Unnamed Level 255
  6
Continuous2
 62
    18
420
        0
370
    -3
100
AcDbLine
 10
0.1295833333333339
 20
-0.1119372235140487
 30
0.0
 11
0.1281250000000006
 21
-0.1133955568473821
 31
0.0
  0
LINE
  5
122
330
1F
100
AcDbEntity
  8
Unnamed Level 255
  6
Continuous2
 62
    18
420
        0
370
    -3
100
AcDbLine
 10
0.1281250000000006
 20
-0.1133955568473821
 30
0.0
 11
0.1298358087371953
 21
-0.1133955568473821
 31
0.0
  0
ARC
  5
123
330
1F
100
AcDbEntity
  8
Unnamed Level 255
  6
Continuous2
 62
    18
420
        0
370
    -3
100
AcDbCircle
 10
0.0944827421201724
 20
-0.0246730774943069
 30
0.0
 40
0.0955066367420847
100
AcDbArc
 50
291.7256983174972
 51
301.7406522372698
  0
ARC
  5
124
330
1F
100
AcDbEntity
  8
Unnamed Level 255
  6
Continuous2
 62
    18
420
        0
370
    -3
100
AcDbCircle
 10
-0.2544050717048736
 20
-0.0901872908109473
 30
0.0
 40
0.3994404737509121
100
AcDbArc
 50
357.7462236581446
 51
2.170059875470446
  0
ARC
  5
125
330
1F
100
AcDbEntity
  8
Unnamed Level 255
  6
Continuous2
 62
    18
420
        0
370
    -3
100
AcDbCircle
 10
0.0660553189269234
 20
-0.2100117734208671
 30
0.0
 40
0.1562180107714976
100
AcDbArc
 50
59.75210093737377
 51
66.00464697276294
  0
LINE
  5
126
330
1F
100
AcDbEntity
  8
Unnamed Level 255
  6
Continuous2
 62
    18
420
        0
370
    -3
100
AcDbLine
 10
0.0070833333333327
 20
-0.0674240492715669
 30
0.0
 11
0.0001584260587634
 21
-0.0675622235140522
 31
0.0
  0
LINE
  5
127
330
1F
100
AcDbEntity
  8
Unnamed Level 255
  6
Continuous2
 62
    18
420
        0
370
    -3
100
AcDbLine
 10
0.0001584260587634
 20
-0.0675622235140522
 30
0.0
 11
-0.0045833333333339
 21
-0.0711210212490694
 31
0.0
  0
LINE
  5
128
330
1F
100
AcDbEntity
  8
Unnamed Level 255
  6
Continuous2
 62
    18
420
        0
370
    -3
100
AcDbLine
 10
-0.0045833333333339
 20
-0.0711210212490694
 30
0.0
 11
-0.0202083333333335
 21
-0.0875622235140527
 31
0.0
  0
ARC
  5
129
330
1F
100
AcDbEntity
  8
Unnamed Level 255
  6
Continuous2
 62
    18
420
        0
370
    -3
100
AcDbCircle
 10
-0.0148272946097783
 20
-0.0278464711831824
 30
0.0
 40
0.0599577072125531
100
AcDbArc
 50
264.8509338498356
 51
275.1490661501674
  0
LINE
  5
12A
330
1F
100
AcDbEntity
  8
Unnamed Level 255
  6
Continuous2
 62
    18
420
        0
370
    -3
100
AcDbLine
 10
-0.0094462558862201
 20
-0.0875622235140524
 30
0.0
 11
0.0090178571428566
 21
-0.0692288901807186
 31
0.0
  0
ARC
  5
12B
330
1F
100
AcDbEntity
  8
Unnamed Level 255
  6
Continuous2
 62
    18
420
        0
370
    -3
100
AcDbCircle
 10
0.0075991238037741
 20
-0.068810380654017
 30
0.0
 40
0.0014791735906797
100
AcDbArc
 50
343.5645652405489
 51
110.40793099186
  0
ARC
  5
12C
330
1F
100
AcDbEntity
  8
Unnamed Level 255
  6
Continuous2
 62
    18
420
        0
370
    -3
100
AcDbCircle
 10
0.0971993206911644
 20
0.1944774353355922
 30
0.0
 40
0.2637092976166675
100
AcDbArc
 50
264.8984582168328
 51
269.727976106626
  0
LINE
  5
12D
330
1F
100
AcDbEntity
  8
Unnamed Level 255
  6
Continuous2
 62
    18
420
        0
370
    -3
100
AcDbLine
 10
0.0959473094440548
 20
-0.0692288901807163
 30
0.0
 11
0.1023635053199344
 21
-0.0700622235140495
 31
0.0
  0
LINE
  5
12E
330
1F
100
AcDbEntity
  8
Unnamed Level 255
  6
Continuous2
 62
    18
420
        0
370
    -3
100
AcDbLine
 10
0.1023635053199344
 20
-0.0700622235140495
 30
0.0
 11
0.1081249999999996
 21
-0.0750622235140493
 31
0.0
  0
LINE
  5
12F
330
1F
100
AcDbEntity
  8
Unnamed Level 255
  6
Continuous2
 62
    18
420
        0
370
    -3
100
AcDbLine
 10
0.1081249999999996
 20
-0.0750622235140493
 30
0.0
 11
0.1079166666666671
 21
-0.1061010815321427
 31
0.0
  0
LINE
  5
130
330
1F
100
AcDbEntity
  8
Unnamed Level 255
  6
Continuous2
 62
    18
420
        0
370
    -3
100
AcDbLine
 10
0.1079166666666671
 20
-0.1061010815321427
 30
0.0
 11
0.1020833333333338
 21
-0.1111038901807162
 31
0.0
  0
ARC
  5
131
330
1F
100
AcDbEntity
  8
Unnamed Level 255
  6
Continuous2
 62
    18
420
        0
370
    -3
100
AcDbCircle
 10
0.0569498712518006
 20
0.5782361719687376
 30
0.0
 40
0.6908160034941851
100
AcDbArc
 50
270.4090840181595
 51
273.7460048736397
  0
LINE
  5
132
330
1F
100
AcDbEntity
  8
Unnamed Level 255
  6
Continuous2
 62
    18
420
        0
370
    -3
100
AcDbLine
 10
0.0618821609922292
 20
-0.1125622235140506
 30
0.0
 11
0.053541666666667
 21
-0.1025622235140508
 31
0.0
  0
LINE
  5
133
330
1F
100
AcDbEntity
  8
Unnamed Level 255
  6
Continuous2
 62
    18
420
        0
370
    -3
100
AcDbLine
 10
0.053541666666667
 20
-0.1025622235140508
 30
0.0
 11
0.0537499999999997
 21
-0.0781769330915072
 31
0.0
  0
LINE
  5
134
330
1F
100
AcDbEntity
  8
Unnamed Level 255
  6
Continuous2
 62
    18
420
        0
370
    -3
100
AcDbLine
 10
0.0537499999999997
 20
-0.0781769330915072
 30
0.0
 11
0.0620833333333327
 21
-0.0681872235140506
 31
0.0
  0
LINE
  5
135
330
1F
100
AcDbEntity
  8
Unnamed Level 255
  6
Continuous2
 62
    18
420
        0
370
    -3
100
AcDbLine
 10
0.0620833333333327
 20
-0.0681872235140506
 30
0.0
 11
0.0737499999999994
 21
-0.0681872235140503
 31
0.0
  0
LINE
  5
136
330
1F
100
AcDbEntity
  8
Unnamed Level 255
  6
Continuous2
 62
    18
420
        0
370
    -3
100
AcDbLine
 10
0.0379166666666661
 20
-0.0711038901807178
 30
0.0
 11
0.0341271021385081
 21
-0.0742288901807179
 31
0.0
  0
LINE
  5
137
330
1F
100
AcDbEntity
  8
Unnamed Level 255
  6
Continuous2
 62
    18
420
        0
370
    -3
100
AcDbLine
 10
0.0341271021385081
 20
-0.0742288901807179
 30
0.0
 11
0.0192978552568406
 21
-0.0742288901807184
 31
0.0
  0
LINE
  5
138
330
1F
100
AcDbEntity
  8
Unnamed Level 255
  6
Continuous2
 62
    18
420
        0
370
    -3
100
AcDbLine
 10
0.0192978552568406
 20
-0.0742288901807184
 30
0.0
 11
0.0145833333333328
 21
-0.071441529051017
 31
0.0
  0
ARC
  5
139
330
1F
100
AcDbEntity
  8
Unnamed Level 255
  6
Continuous2
 62
    18
420
        0
370
    -3
100
AcDbCircle
 10
0.0751227710558976
 20
-0.1576769176495422
 30
0.0
 40
0.1053639680654775
100
AcDbArc
 50
125.0698319429234
 51
140.0794297775233
  0
ARC
  5
13A
330
1F
100
AcDbEntity
  8
Unnamed Level 255
  6
Continuous2
 62
    18
420
        0
370
    -3
100
AcDbCircle
 10
0.0354369777585111
 20
-0.0619845943469229
 30
0.0
 40
0.0497928825321121
100
AcDbArc
 50
214.3251358041134
 51
231.710175242679
  0
LINE
  5
13B
330
1F
100
AcDbEntity
  8
Unnamed Level 255
  6
Continuous2
 62
    18
420
        0
370
    -3
100
AcDbLine
 10
0.0045833333333336
 20
-0.1010663519397106
 30
0.0
 11
0.0137500000000005
 21
-0.1094967473287686
 31
0.0
  0
LINE
  5
13C
330
1F
100
AcDbEntity
  8
Unnamed Level 255
  6
Continuous2
 62
    18
420
        0
370
    -3
100
AcDbLine
 10
0.0137500000000005
 20
-0.1094967473287686
 30
0.0
 11
0.0192878620315035
 21
-0.1067288901807184
 31
0.0
  0
LINE
  5
13D
330
1F
100
AcDbEntity
  8
Unnamed Level 255
  6
Continuous2
 62
    18
420
        0
370
    -3
100
AcDbLine
 10
0.0192878620315035
 20
-0.1067288901807184
 30
0.0
 11
0.03412307792364
 21
-0.1067288901807179
 31
0.0
  0
ARC
  5
13E
330
1F
100
AcDbEntity
  8
Unnamed Level 255
  6
Continuous2
 62
    18
420
        0
370
    -3
100
AcDbCircle
 10
0.0381951517202162
 20
-0.103325244247213
 30
0.0
 40
0.0053072206139775
100
AcDbArc
 50
219.8905894246003
 51
307.0278960812424
  0
ARC
  5
13F
330
1F
100
AcDbEntity
  8
Unnamed Level 255
  6
Continuous2
 62
    18
420
        0
370
    -3
100
AcDbCircle
 10
-0.4446746105001075
 20
-0.0903347578051879
 30
0.0
 40
0.4863709883991159
100
AcDbArc
 50
357.9701347068539
 51
1.995885981442349
  0
LINE
  5
140
330
1F
100
AcDbEntity
  8
Unnamed Level 255
  6
Continuous2
 62
    18
420
        0
370
    -3
100
AcDbLine
 10
0.0414013113755231
 20
-0.0733955568473844
 30
0.0
 11
0.0379166666666661
 21
-0.0711038901807178
 31
0.0
  0
LINE
  5
141
330
1F
100
AcDbEntity
  8
Unnamed Level 255
  6
Continuous2
 62
    18
420
        0
370
    -3
100
AcDbLine
 10
0.0645833333333329
 20
-0.0723686314641913
 30
0.0
 11
0.0577507422269598
 21
-0.0800622235140507
 31
0.0
  0
ARC
  5
142
330
1F
100
AcDbEntity
  8
Unnamed Level 255
  6
Continuous2
 62
    18
420
        0
370
    -3
100
AcDbCircle
 10
0.1707806463853092
 20
-0.0896551275406726
 30
0.0
 40
0.1134362510034143
100
AcDbArc
 50
175.148903969955
 51
185.7576521609968
  0
LINE
  5
143
330
1F
100
AcDbEntity
  8
Unnamed Level 255
  6
Continuous2
 62
    18
420
        0
370
    -3
100
AcDbLine
 10
0.0579166666666669
 20
-0.1010351593411348
 30
0.0
 11
0.0637500000000004
 21
-0.107877611983445
 31
0.0
  0
LINE
  5
144
330
1F
100
AcDbEntity
  8
Unnamed Level 255
  6
Continuous2
 62
    18
420
        0
370
    -3
100
AcDbLine
 10
0.0637500000000004
 20
-0.107877611983445
 30
0.0
 11
0.0654166666666671
 21
-0.1086107545409495
 31
0.0
  0
ARC
  5
145
330
1F
100
AcDbEntity
  8
Unnamed Level 255
  6
Continuous2
 62
    18
420
        0
370
    -3
100
AcDbCircle
 10
0.0595809162185457
 20
0.3291703790088036
 30
0.0
 40
0.4378200279514398
100
AcDbArc
 50
270.7637242501781
 51
275.3688977348341
  0
LINE
  5
146
330
1F
100
AcDbEntity
  8
Unnamed Level 255
  6
Continuous2
 62
    18
420
        0
370
    -3
100
AcDbLine
 10
0.1005468044115541
 20
-0.1067288901807162
 30
0.0
 11
0.1039156545854722
 21
-0.1033955568473828
 31
0.0
  0
ARC
  5
147
330
1F
100
AcDbEntity
  8
Unnamed Level 255
  6
Continuous2
 62
    18
420
        0
370
    -3
100
AcDbCircle
 10
-0.0614558269236722
 20
-0.0914052996906089
 30
0.0
 40
0.1658055884559228
100
AcDbArc
 50
355.8530269204091
 51
4.874817388513651
  0
ARC
  5
148
330
1F
100
AcDbEntity
  8
Unnamed Level 255
  6
Continuous2
 62
    18
420
        0
370
    -3
100
AcDbCircle
 10
0.0978935885738305
 20
-0.0799791742332776
 30
0.0
 40
0.0064337972571329
100
AcDbArc
 50
24.4590563855453
 51
66.91103060565514
  0
ARC
  5
149
330
1F
100
AcDbEntity
  8
Unnamed Level 255
  6
Continuous2
 62
    18
420
        0
370
    -3
100
AcDbCircle
 10
0.0611538518827214
 20
-0.5252555044959684
 30
0.0
 40
0.4528998577031362
100
AcDbArc
 50
85.02666887470511
 51
89.56613655853941
  0
ARC
  5
14A
330
1F
100
AcDbEntity
  8
Unnamed Level 255
  6
Continuous2
 62
    18
420
        0
370
    -3
100
AcDbCircle
 10
-0.1421600763582606
 20
-0.0458587027559041
 30
0.0
 40
0.0304486881537439
100
AcDbArc
 50
286.4421434008778
 51
297.8905482432899
  0
LINE
  5
14B
330
1F
100
AcDbEntity
  8
Unnamed Level 255
  6
Continuous2
 62
    18
420
        0
370
    -3
100
AcDbLine
 10
-0.1335416666666671
 20
-0.0750622235140557
 30
0.0
 11
-0.1268750000000004
 21
-0.0775622235140555
 31
0.0
  0
LINE
  5
14C
330
1F
100
AcDbEntity
  8
Unnamed Level 255
  6
Continuous2
 62
    18
420
        0
370
    -3
100
AcDbLine
 10
-0.1268750000000004
 20
-0.0775622235140555
 30
0.0
 11
-0.127083333333333
 21
-0.1035112922850179
 31
0.0
  0
LINE
  5
14D
330
1F
100
AcDbEntity
  8
Unnamed Level 255
  6
Continuous2
 62
    18
420
        0
370
    -3
100
AcDbLine
 10
-0.127083333333333
 20
-0.1035112922850179
 30
0.0
 11
-0.13223536036036
 21
-0.1050622235140557
 31
0.0
  0
LINE
  5
14E
330
1F
100
AcDbEntity
  8
Unnamed Level 255
  6
Continuous2
 62
    18
420
        0
370
    -3
100
AcDbLine
 10
-0.13223536036036
 20
-0.1050622235140557
 30
0.0
 11
-0.132708333333333
 21
-0.105895556847389
 31
0.0
  0
ARC
  5
14F
330
1F
100
AcDbEntity
  8
Unnamed Level 255
  6
Continuous2
 62
    18
420
        0
370
    -3
100
AcDbCircle
 10
-0.1268318673506209
 20
-0.0894138476251295
 30
0.0
 40
0.0174979882081652
100
AcDbArc
 50
250.3765769387997
 51
282.9294713102427
  0
LINE
  5
150
330
1F
100
AcDbEntity
  8
Unnamed Level 255
  6
Continuous2
 62
    18
420
        0
370
    -3
100
AcDbLine
 10
-0.1229166666666663
 20
-0.1064681958958037
 30
0.0
 11
-0.0952697420419986
 21
-0.1000622235140547
 31
0.0
  0
LINE
  5
151
330
1F
100
AcDbEntity
  8
Unnamed Level 255
  6
Continuous2
 62
    18
420
        0
370
    -3
100
AcDbLine
 10
-0.0952697420419986
 20
-0.1000622235140547
 30
0.0
 11
-0.0944402532743854
 21
-0.0992288901807214
 31
0.0
  0
ARC
  5
152
330
1F
100
AcDbEntity
  8
Unnamed Level 255
  6
Continuous2
 62
    18
420
        0
370
    -3
100
AcDbCircle
 10
-0.1767401706413547
 20
-0.0906226726487925
 30
0.0
 40
0.0827486759943436
100
AcDbArc
 50
354.030197345889
 51
6.856744499800333
  0
LINE
  5
153
330
1F
100
AcDbEntity
  8
Unnamed Level 255
  6
Continuous2
 62
    18
420
        0
370
    -3
100
AcDbLine
 10
-0.0945833333333336
 20
-0.0807435298539842
 30
0.0
 11
-0.1272916666666671
 21
-0.0733955568473889
 31
0.0
  0
LINE
  5
154
330
1F
100
AcDbEntity
  8
Unnamed Level 255
  6
Continuous2
 62
    18
420
        0
370
    -3
100
AcDbLine
 10
-0.1272916666666671
 20
-0.0733955568473889
 30
0.0
 11
-0.1279166666666672
 21
-0.0727705568473889
 31
0.0
  0
LINE
  5
155
330
1F
100
AcDbEntity
  8
Unnamed Level 255
  6
Continuous2
 62
    18
420
        0
370
    -3
100
AcDbLine
 10
-0.0612500000000005
 20
-0.0748538901807205
 30
0.0
 11
-0.0602083333333338
 21
-0.0758955568473871
 31
0.0
  0
LINE
  5
156
330
1F
100
AcDbEntity
  8
Unnamed Level 255
  6
Continuous2
 62
    18
420
        0
370
    -3
100
AcDbLine
 10
-0.0602083333333338
 20
-0.0758955568473871
 30
0.0
 11
-0.0577083333333333
 21
-0.0908955568473871
 31
0.0
  0
LINE
  5
157
330
1F
100
AcDbEntity
  8
Unnamed Level 255
  6
Continuous2
 62
    18
420
        0
370
    -3
100
AcDbLine
 10
-0.0577083333333333
 20
-0.0908955568473871
 30
0.0
 11
-0.0604166666666663
 21
-0.1044372235140538
 31
0.0
  0
ARC
  5
158
330
1F
100
AcDbEntity
  8
Unnamed Level 255
  6
Continuous2
 62
    18
420
        0
370
    -3
100
AcDbCircle
 10
-0.0621251925348012
 20
-0.1032738299390131
 30
0.0
 40
0.002067013607244
100
AcDbArc
 50
207.519363438832
 51
325.747715234311
  0
LINE
  5
159
330
1F
100
AcDbEntity
  8
Unnamed Level 255
  6
Continuous2
 62
    18
420
        0
370
    -3
100
AcDbLine
 10
-0.063958333333333
 20
-0.1042288901807206
 30
0.0
 11
-0.062589415117904
 21
-0.0892288901807205
 31
0.0
  0
ARC
  5
15A
330
1F
100
AcDbEntity
  8
Unnamed Level 255
  6
Continuous2
 62
    18
420
        0
370
    -3
100
AcDbCircle
 10
-0.0094391664708755
 20
-0.0777033829672469
 30
0.0
 40
0.0543855334419805
100
AcDbArc
 50
176.9966516788668
 51
192.2350276372935
  0
LINE
  5
15B
330
1F
100
AcDbEntity
  8
Unnamed Level 255
  6
Continuous2
 62
    18
420
        0
370
    -3
100
AcDbLine
 10
-0.0637500000000004
 20
-0.0748538901807205
 30
0.0
 11
-0.0612500000000005
 21
-0.0748538901807205
 31
0.0
  0
LINE
  5
15C
330
1F
100
AcDbEntity
  8
Unnamed Level 255
  6
Continuous2
 62
    18
420
        0
370
    -3
100
AcDbLine
 10
-0.0737500000000005
 20
-0.0748538901807208
 30
0.0
 11
-0.0727083333333338
 21
-0.0758955568473874
 31
0.0
  0
LINE
  5
15D
330
1F
100
AcDbEntity
  8
Unnamed Level 255
  6
Continuous2
 62
    18
420
        0
370
    -3
100
AcDbLine
 10
-0.0727083333333338
 20
-0.0758955568473874
 30
0.0
 11
-0.0702083333333333
 21
-0.0908955568473874
 31
0.0
  0
LINE
  5
15E
330
1F
100
AcDbEntity
  8
Unnamed Level 255
  6
Continuous2
 62
    18
420
        0
370
    -3
100
AcDbLine
 10
-0.0702083333333333
 20
-0.0908955568473874
 30
0.0
 11
-0.0729166666666663
 21
-0.1044372235140541
 31
0.0
  0
ARC
  5
15F
330
1F
100
AcDbEntity
  8
Unnamed Level 255
  6
Continuous2
 62
    18
420
        0
370
    -3
100
AcDbCircle
 10
-0.074625192534801
 20
-0.1032738299390094
 30
0.0
 40
0.0020670136072461
100
AcDbArc
 50
207.5193634389293
 51
325.7477152342134
  0
LINE
  5
160
330
1F
100
AcDbEntity
  8
Unnamed Level 255
  6
Continuous2
 62
    18
420
        0
370
    -3
100
AcDbLine
 10
-0.076458333333333
 20
-0.1042288901807209
 30
0.0
 11
-0.0749267365835552
 21
-0.0892288901807208
 31
0.0
  0
ARC
  5
161
330
1F
100
AcDbEntity
  8
Unnamed Level 255
  6
Continuous2
 62
    18
420
        0
370
    -3
100
AcDbCircle
 10
-0.0106944378191506
 20
-0.076116757341386
 30
0.0
 40
0.0655569693637228
100
AcDbArc
 50
179.6245913776543
 51
191.5376181967862
  0
ARC
  5
162
330
1F
100
AcDbEntity
  8
Unnamed Level 255
  6
Continuous2
 62
    18
420
        0
370
    -3
100
AcDbCircle
 10
-0.0743546024789504
 20
-0.0772067494105374
 30
0.0
 40
0.002429298399309
100
AcDbArc
 50
75.58878555988267
 51
141.2811120859647
  0
ARC
  5
163
330
1F
100
AcDbEntity
  8
Unnamed Level 255
  6
Continuous2
 62
    18
420
        0
370
    -3
100
AcDbCircle
 10
-0.1392751000288221
 20
-0.0896330769121828
 30
0.0
 40
0.0106220345379627
100
AcDbArc
 50
82.6524209033092
 51
115.7051968410378
  0
LINE
  5
164
330
1F
100
AcDbEntity
  8
Unnamed Level 255
  6
Continuous2
 62
    18
420
        0
370
    -3
100
AcDbLine
 10
-0.1438823099173812
 20
-0.080062223514056
 30
0.0
 11
-0.1447482609459543
 21
-0.082562223514056
 31
0.0
  0
LINE
  5
165
330
1F
100
AcDbEntity
  8
Unnamed Level 255
  6
Continuous2
 62
    18
420
        0
370
    -3
100
AcDbLine
 10
-0.1447482609459543
 20
-0.082562223514056
 30
0.0
 11
-0.1445833333333331
 21
-0.0995432469362231
 31
0.0
  0
ARC
  5
166
330
1F
100
AcDbEntity
  8
Unnamed Level 255
  6
Continuous2
 62
    18
420
        0
370
    -3
100
AcDbCircle
 10
-0.1402415120596438
 20
-0.0971538333759944
 30
0.0
 40
0.0049558762226739
100
AcDbArc
 50
208.8250960093289
 51
292.6077832564482
  0
LINE
  5
167
330
1F
100
AcDbEntity
  8
Unnamed Level 255
  6
Continuous2
 62
    18
420
        0
370
    -3
100
AcDbLine
 10
-0.1383363704985056
 20
-0.1017288901807225
 30
0.0
 11
-0.1312499999999998
 21
-0.1003300806569128
 31
0.0
  0
ARC
  5
168
330
1F
100
AcDbEntity
  8
Unnamed Level 255
  6
Continuous2
 62
    18
420
        0
370
    -3
100
AcDbCircle
 10
-0.2282225779592794
 20
-0.0905368052490186
 30
0.0
 40
0.097465835651696
100
AcDbArc
 50
354.233242542527
 51
5.766757457475895
  0
LINE
  5
169
330
1F
100
AcDbEntity
  8
Unnamed Level 255
  6
Continuous2
 62
    18
420
        0
370
    -3
100
AcDbLine
 10
-0.1312500000000003
 20
-0.0807435298411194
 30
0.0
 11
-0.137916666666667
 21
-0.0790982643117491
 31
0.0
  0
ARC
  5
16A
330
1F
100
AcDbEntity
  8
Unnamed Level 255
  6
Continuous2
 62
    18
420
        0
370
    -3
100
AcDbCircle
 10
-0.0095527884103791
 20
-0.5010881378696079
 30
0.0
 40
0.407831805108633
100
AcDbArc
 50
90.00429121797403
 51
91.4971545289524
  0
ARC
  5
16B
330
1F
100
AcDbEntity
  8
Unnamed Level 255
  6
Continuous2
 62
    18
420
        0
370
    -3
100
AcDbCircle
 10
0.1899354351064401
 20
0.0977284098157109
 30
0.0
 40
0.2840576949267626
100
AcDbArc
 50
222.2862523994872
 51
227.9238469869793
  0
ARC
  5
16C
330
1F
100
AcDbEntity
  8
Unnamed Level 255
  6
Continuous2
 62
    18
420
        0
370
    -3
100
AcDbCircle
 10
0.003364114221036
 20
-0.0980218051803575
 30
0.0
 40
0.0155593137241205
100
AcDbArc
 50
255.9368317205951
 51
290.8500045554858
  0
LINE
  5
16D
330
1F
100
AcDbEntity
  8
Unnamed Level 255
  6
Continuous2
 62
    18
420
        0
370
    -3
100
AcDbLine
 10
0.0089020270270276
 20
-0.112562223514052
 30
0.0
 11
0.0093750000000005
 21
-0.1117288901807186
 31
0.0
  0
LINE
  5
16E
330
1F
100
AcDbEntity
  8
Unnamed Level 255
  6
Continuous2
 62
    18
420
        0
370
    -3
100
AcDbLine
 10
0.0093750000000005
 20
-0.1117288901807186
 30
0.0
 11
-0.0095833333333333
 21
-0.0932563339048194
 31
0.0
  0
LINE
  5
16F
330
1F
100
AcDbEntity
  8
Unnamed Level 255
  6
Continuous2
 62
    18
420
        0
370
    -3
100
AcDbLine
 10
-0.0337499999999996
 20
-0.1052705568473864
 30
0.0
 11
-0.0372522559116206
 21
-0.1100622235140532
 31
0.0
  0
ARC
  5
170
330
1F
100
AcDbEntity
  8
Unnamed Level 255
  6
Continuous2
 62
    18
420
        0
370
    -3
100
AcDbCircle
 10
0.0760309255151955
 20
-0.1196357668670041
 30
0.0
 40
0.1136869910170541
100
AcDbArc
 50
175.1694209717939
 51
185.7536113868127
  0
LINE
  5
171
330
1F
100
AcDbEntity
  8
Unnamed Level 255
  6
Continuous2
 62
    18
420
        0
370
    -3
100
AcDbLine
 10
-0.0370833333333323
 20
-0.1310329758086705
 30
0.0
 11
-0.0266525920025129
 21
-0.1417288901807195
 31
0.0
  0
ARC
  5
172
330
1F
100
AcDbEntity
  8
Unnamed Level 255
  6
Continuous2
 62
    18
420
        0
370
    -3
100
AcDbCircle
 10
-0.0625978474724732
 20
-0.2326013159128341
 30
0.0
 40
0.0977233807706189
100
AcDbArc
 50
63.88552398125799
 51
68.41836178219688
  0
LINE
  5
173
330
1F
100
AcDbEntity
  8
Unnamed Level 255
  6
Continuous2
 62
    18
420
        0
370
    -3
100
AcDbLine
 10
-0.0195833333333319
 20
-0.1448538901807194
 30
0.0
 11
-0.019583333333332
 21
-0.1431432214847033
 31
0.0
  0
ARC
  5
174
330
1F
100
AcDbEntity
  8
Unnamed Level 255
  6
Continuous2
 62
    18
420
        0
370
    -3
100
AcDbCircle
 10
0.1291716358868856
 20
-0.0659139407475128
 30
0.0
 40
0.1676078836776231
100
AcDbArc
 50
193.5806373406529
 51
207.43703499108
  0
ARC
  5
175
330
1F
100
AcDbEntity
  8
Unnamed Level 255
  6
Continuous2
 62
    18
420
        0
370
    -3
100
AcDbCircle
 10
0.0280482239485446
 20
-0.1386988201699644
 30
0.0
 40
0.0282525109325907
100
AcDbArc
 50
81.788763725932
 51
109.2148510923077
  0
LINE
  5
176
330
1F
100
AcDbEntity
  8
Unnamed Level 255
  6
Continuous2
 62
    18
420
        0
370
    -3
100
AcDbLine
 10
0.0187500000000005
 20
-0.1120202256530323
 30
0.0
 11
0.0102646396396403
 21
-0.1167288901807186
 31
0.0
  0
LINE
  5
177
330
1F
100
AcDbEntity
  8
Unnamed Level 255
  6
Continuous2
 62
    18
420
        0
370
    -3
100
AcDbLine
 10
0.0102646396396403
 20
-0.1167288901807186
 30
0.0
 11
0.0097916666666674
 21
-0.1175622235140519
 31
0.0
  0
ARC
  5
178
330
1F
100
AcDbEntity
  8
Unnamed Level 255
  6
Continuous2
 62
    18
420
        0
370
    -3
100
AcDbCircle
 10
-0.9865674293312985
 20
-0.949587957791513
 30
0.0
 40
1.298074832464536
100
AcDbArc
 50
36.54812680264666
 51
39.86411379623546
  0
LINE
  5
179
330
1F
100
AcDbEntity
  8
Unnamed Level 255
  6
Continuous2
 62
    18
420
        0
370
    -3
100
AcDbLine
 10
0.0562500000000023
 20
-0.176587259369649
 30
0.0
 11
0.0887500000000034
 21
-0.2190205568473832
 31
0.0
  0
LINE
  5
17A
330
1F
100
AcDbEntity
  8
Unnamed Level 255
  6
Continuous2
 62
    18
420
        0
370
    -3
100
AcDbLine
 10
0.0887500000000034
 20
-0.2190205568473832
 30
0.0
 11
0.0887500000000034
 21
-0.2173099189122936
 31
0.0
  0
LINE
  5
17B
330
1F
100
AcDbEntity
  8
Unnamed Level 255
  6
Continuous2
 62
    18
420
        0
370
    -3
100
AcDbLine
 10
0.0887500000000034
 20
-0.2173099189122936
 30
0.0
 11
0.0362500000000006
 21
-0.1141012553397405
 31
0.0
  0
LINE
  5
17C
330
1F
100
AcDbEntity
  8
Unnamed Level 255
  6
Continuous2
 62
    18
420
        0
370
    -3
100
AcDbLine
 10
0.0362500000000006
 20
-0.1141012553397405
 30
0.0
 11
0.0320833333333339
 21
-0.1107359471729181
 31
0.0
  0
LINE
  5
17D
330
1F
100
AcDbEntity
  8
Unnamed Level 255
  6
Continuous2
 62
    18
420
        0
370
    -3
100
AcDbLine
 10
-0.1229166666666661
 20
-0.1147943663711983
 30
0.0
 11
-0.1243749999999994
 21
-0.1150622235140555
 31
0.0
  0
ARC
  5
17E
330
1F
100
AcDbEntity
  8
Unnamed Level 255
  6
Continuous2
 62
    18
420
        0
370
    -3
100
AcDbCircle
 10
-0.0476884446084957
 20
-0.0571668632649443
 30
0.0
 40
0.096086942485379
100
AcDbArc
 50
217.051382076944
 51
240.7877405906127
  0
LINE
  5
17F
330
1F
100
AcDbEntity
  8
Unnamed Level 255
  6
Continuous2
 62
    18
420
        0
370
    -3
100
AcDbLine
 10
-0.094583333333332
 20
-0.1410332446562607
 30
0.0
 11
-0.0515452750919692
 21
-0.1417288901807202
 31
0.0
  0
LINE
  5
180
330
1F
100
AcDbEntity
  8
Unnamed Level 255
  6
Continuous2
 62
    18
420
        0
370
    -3
100
AcDbLine
 10
-0.0515452750919692
 20
-0.1417288901807202
 30
0.0
 11
-0.0454166666666653
 21
-0.1445162513104216
 31
0.0
  0
LINE
  5
181
330
1F
100
AcDbEntity
  8
Unnamed Level 255
  6
Continuous2
 62
    18
420
        0
370
    -3
100
AcDbLine
 10
-0.0454166666666653
 20
-0.1445162513104216
 30
0.0
 11
-0.0439583333333319
 21
-0.14422889018072
 31
0.0
  0
LINE
  5
182
330
1F
100
AcDbEntity
  8
Unnamed Level 255
  6
Continuous2
 62
    18
420
        0
370
    -3
100
AcDbLine
 10
-0.0439583333333319
 20
-0.14422889018072
 30
0.0
 11
-0.0594035253007812
 21
-0.1258955568473871
 31
0.0
  0
ARC
  5
183
330
1F
100
AcDbEntity
  8
Unnamed Level 255
  6
Continuous2
 62
    18
420
        0
370
    -3
100
AcDbCircle
 10
-0.0678684564284833
 20
0.0653791334100665
 30
0.0
 40
0.1914619079401477
100
AcDbArc
 50
262.4826692803927
 51
272.533992160967
  0
ARC
  5
184
330
1F
100
AcDbEntity
  8
Unnamed Level 255
  6
Continuous2
 62
    18
420
        0
370
    -3
100
AcDbCircle
 10
-0.0631738967411671
 20
0.0195839337144937
 30
0.0
 40
0.1470602804712795
100
AcDbArc
 50
246.0307176598838
 51
258.3315045110737
  0
ARC
  5
185
330
1F
100
AcDbEntity
  8
Unnamed Level 255
  6
Continuous2
 62
    18
420
        0
370
    -3
100
AcDbCircle
 10
-0.1710582020825532
 20
-0.046428113484881
 30
0.0
 40
0.2047995699069763
100
AcDbArc
 50
325.4543777336637
 51
335.5778280608063
  0
ARC
  5
186
330
1F
100
AcDbEntity
  8
Unnamed Level 255
  6
Continuous2
 62
    18
420
        0
370
    -3
100
AcDbCircle
 10
0.0172727039248976
 20
-0.1549473970346547
 30
0.0
 40
0.0210670060730338
100
AcDbArc
 50
201.1897305644496
 51
248.5926703482595
  0
ARC
  5
187
330
1F
100
AcDbEntity
  8
Unnamed Level 255
  6
Continuous2
 62
    18
420
        0
370
    -3
100
AcDbCircle
 10
0.0286920192461431
 20
-0.0800750934400455
 30
0.0
 40
0.0963987714317371
100
AcDbArc
 50
258.5667950563007
 51
282.3895080749606
  0
LINE
  5
188
330
1F
100
AcDbEntity
  8
Unnamed Level 255
  6
Continuous2
 62
    18
420
        0
370
    -3
100
AcDbLine
 10
0.0493750000000022
 20
-0.1742288901807175
 30
0.0
 11
0.0420833333333353
 21
-0.1652705568473844
 31
0.0
  0
ARC
  5
189
330
1F
100
AcDbEntity
  8
Unnamed Level 255
  6
Continuous2
 62
    18
420
        0
370
    -3
100
AcDbCircle
 10
0.0298175633692347
 20
-0.159265560179302
 30
0.0
 40
0.01365683337366
100
AcDbArc
 50
256.8121034601706
 51
333.9148519227095
  0
ARC
  5
18A
330
1F
100
AcDbEntity
  8
Unnamed Level 255
  6
Continuous2
 62
    18
420
        0
370
    -3
100
AcDbCircle
 10
0.0354552005251932
 20
-0.1549790902147483
 30
0.0
 40
0.0196414919419002
100
AcDbArc
 50
205.3726859435158
 51
243.5345870377987
  0
ARC
  5
18B
330
1F
100
AcDbEntity
  8
Unnamed Level 255
  6
Continuous2
 62
    18
420
        0
370
    -3
100
AcDbCircle
 10
0.0319782582665259
 20
-0.1611989641928424
 30
0.0
 40
0.0144379976758859
100
AcDbArc
 50
109.1778227018901
 51
188.7509457988363
  0
LINE
  5
18C
330
1F
100
AcDbEntity
  8
Unnamed Level 255
  6
Continuous2
 62
    18
420
        0
370
    -3
100
AcDbLine
 10
0.0272353603603619
 20
-0.1475622235140515
 30
0.0
 11
0.0277083333333348
 21
-0.1467288901807181
 31
0.0
  0
LINE
  5
18D
330
1F
100
AcDbEntity
  8
Unnamed Level 255
  6
Continuous2
 62
    18
420
        0
370
    -3
100
AcDbLine
 10
0.0277083333333348
 20
-0.1467288901807181
 30
0.0
 11
0.0154166666666677
 21
-0.1311038901807184
 31
0.0
  0
ARC
  5
18E
330
1F
100
AcDbEntity
  8
Unnamed Level 255
  6
Continuous2
 62
    18
420
        0
370
    -3
100
AcDbCircle
 10
-0.0861385661637121
 20
-1.336272100568976
 30
0.0
 40
1.190945488247216
100
AcDbArc
 50
88.40150401534056
 51
91.28838932213188
  0
ARC
  5
18F
330
1F
100
AcDbEntity
  8
Unnamed Level 255
  6
Continuous2
 62
    18
420
        0
370
    -3
100
AcDbCircle
 10
-0.1124252756052495
 20
-0.146553260520628
 30
0.0
 40
0.0010479160269472
100
AcDbArc
 50
117.9643552327477
 51
254.3288960865478
  0
ARC
  5
190
330
1F
100
AcDbEntity
  8
Unnamed Level 255
  6
Continuous2
 62
    18
420
        0
370
    -3
100
AcDbCircle
 10
-0.0899238895354509
 20
-0.1464063404960831
 30
0.0
 40
0.0228137446450606
100
AcDbArc
 50
182.9041960070729
 51
222.1935172527408
  0
LINE
  5
191
330
1F
100
AcDbEntity
  8
Unnamed Level 255
  6
Continuous2
 62
    18
420
        0
370
    -3
100
AcDbLine
 10
-0.10682615020945
 20
-0.1617288901807217
 30
0.0
 11
-0.1004166666666646
 21
-0.1681872235140549
 31
0.0
  0
ARC
  5
192
330
1F
100
AcDbEntity
  8
Unnamed Level 255
  6
Continuous2
 62
    18
420
        0
370
    -3
100
AcDbCircle
 10
-0.0903476848767361
 20
-0.1711383810756853
 30
0.0
 40
0.0104925557058078
100
AcDbArc
 50
143.2054389389872
 51
163.6644587068614
  0
LINE
  5
193
330
1F
100
AcDbEntity
  8
Unnamed Level 255
  6
Continuous2
 62
    18
420
        0
370
    -3
100
AcDbLine
 10
-0.0987499999999981
 20
-0.1648538901807214
 30
0.0
 11
-0.0433215516913096
 21
-0.1650622235140534
 31
0.0
  0
LINE
  5
194
330
1F
100
AcDbEntity
  8
Unnamed Level 255
  6
Continuous2
 62
    18
420
        0
370
    -3
100
AcDbLine
 10
-0.0433215516913096
 20
-0.1650622235140534
 30
0.0
 11
-0.0287499999999979
 21
-0.171031880383145
 31
0.0
  0
ARC
  5
195
330
1F
100
AcDbEntity
  8
Unnamed Level 255
  6
Continuous2
 62
    18
420
        0
370
    -3
100
AcDbCircle
 10
-0.0164868354804375
 20
0.0165226656431862
 30
0.0
 40
0.1879550290340138
100
AcDbArc
 50
266.2590677232558
 51
274.331346951196
  0
LINE
  5
196
330
1F
100
AcDbEntity
  8
Unnamed Level 255
  6
Continuous2
 62
    18
420
        0
370
    -3
100
AcDbLine
 10
-0.0022916666666646
 20
-0.1708955568473856
 30
0.0
 11
-0.0120833333333316
 21
-0.1565768631536922
 31
0.0
  0
LINE
  5
197
330
1F
100
AcDbEntity
  8
Unnamed Level 255
  6
Continuous2
 62
    18
420
        0
370
    -3
100
AcDbLine
 10
-0.0120833333333316
 20
-0.1565768631536922
 30
0.0
 11
-0.030416666666665
 21
-0.1557819473978761
 31
0.0
  0
LINE
  5
198
330
1F
100
AcDbEntity
  8
Unnamed Level 255
  6
Continuous2
 62
    18
420
        0
370
    -3
100
AcDbLine
 10
-0.030416666666665
 20
-0.1557819473978761
 30
0.0
 11
-0.0529166666666652
 21
-0.145790071569711
 31
0.0
  0
ARC
  5
199
330
1F
100
AcDbEntity
  8
Unnamed Level 255
  6
Continuous2
 62
    18
420
        0
370
    -3
100
AcDbCircle
 10
0.0305113192053887
 20
-0.1600534176304101
 30
0.0
 40
0.0086240780552247
100
AcDbArc
 50
85.08640645478921
 51
230.7190332687008
  0
ARC
  5
19A
330
1F
100
AcDbEntity
  8
Unnamed Level 255
  6
Continuous2
 62
    18
420
        0
370
    -3
100
AcDbCircle
 10
0.0304384180955885
 20
-0.160210843437214
 30
0.0
 40
0.0084561776511042
100
AcDbArc
 50
230.4260485959772
 51
321.7952860962463
  0
LINE
  5
19B
330
1F
100
AcDbEntity
  8
Unnamed Level 255
  6
Continuous2
 62
    18
420
        0
370
    -3
100
AcDbLine
 10
0.0370833333333353
 20
-0.1654407614050406
 30
0.0
 11
0.0390365645343861
 21
-0.1625622235140511
 31
0.0
  0
ARC
  5
19C
330
1F
100
AcDbEntity
  8
Unnamed Level 255
  6
Continuous2
 62
    18
420
        0
370
    -3
100
AcDbCircle
 10
-0.0978034667909089
 20
-0.2502627479101807
 30
0.0
 40
0.1625317696712363
100
AcDbArc
 50
32.65573557812706
 51
37.43721526219717
  0
LINE
  5
19D
330
1F
100
AcDbEntity
  8
Unnamed Level 255
  6
Continuous2
 62
    18
420
        0
370
    -3
100
AcDbLine
 10
-0.0479166666666646
 20
-0.168961033037863
 30
0.0
 11
-0.0895833333333313
 21
-0.1686740694870121
 31
0.0
  0
LINE
  5
19E
330
1F
100
AcDbEntity
  8
Unnamed Level 255
  6
Continuous2
 62
    18
420
        0
370
    -3
100
AcDbLine
 10
-0.0895833333333313
 20
-0.1686740694870121
 30
0.0
 11
-0.0939020270270249
 21
-0.1692288901807213
 31
0.0
  0
ARC
  5
19F
330
1F
100
AcDbEntity
  8
Unnamed Level 255
  6
Continuous2
 62
    18
420
        0
370
    -3
100
AcDbCircle
 10
-0.0660911449394405
 20
-0.1677467255313438
 30
0.0
 40
0.0278503496304335
100
AcDbArc
 50
183.0506588921398
 51
212.486819449825
  0
ARC
  5
1A0
330
1F
100
AcDbEntity
  8
Unnamed Level 255
  6
Continuous2
 62
    18
420
        0
370
    -3
100
AcDbCircle
 10
-0.0595824268918525
 20
0.2154985406700313
 30
0.0
 40
0.3993323878798397
100
AcDbArc
 50
265.6914428265224
 51
271.6740288343377
  0
ARC
  5
1A1
330
1F
100
AcDbEntity
  8
Unnamed Level 255
  6
Continuous2
 62
    18
420
        0
370
    -3
100
AcDbCircle
 10
-0.1103955812803373
 20
-0.1763122235140373
 30
0.0
 40
0.062909894076525
100
AcDbArc
 50
353.289502951961
 51
6.710497048042097
  0
LINE
  5
1A2
330
1F
100
AcDbEntity
  8
Unnamed Level 255
  6
Continuous2
 62
    18
420
        0
370
    -3
100
AcDbLine
 10
-0.0412499999999979
 20
-0.1706276997045295
 30
0.0
 11
-0.0430333679114778
 21
-0.1708955568473867
 31
0.0
  0
ARC
  5
1A3
330
1F
100
AcDbEntity
  8
Unnamed Level 255
  6
Continuous2
 62
    18
420
        0
370
    -3
100
AcDbCircle
 10
0.0126071894431507
 20
-0.1771470672213281
 30
0.0
 40
0.0559906510471989
100
AcDbArc
 50
173.5894016419427
 51
187.4036372029489
  0
LINE
  5
1A4
330
1F
100
AcDbEntity
  8
Unnamed Level 255
  6
Continuous2
 62
    18
420
        0
370
    -3
100
AcDbLine
 10
-0.0429166666666642
 20
-0.1843619412594367
 30
0.0
 11
-0.0345833333333308
 21
-0.1876920522312542
 31
0.0
  0
LINE
  5
1A5
330
1F
100
AcDbEntity
  8
Unnamed Level 255
  6
Continuous2
 62
    18
420
        0
370
    -3
100
AcDbLine
 10
-0.0345833333333308
 20
-0.1876920522312542
 30
0.0
 11
-0.0319483333333308
 21
-0.187562223514053
 31
0.0
  0
LINE
  5
1A6
330
1F
100
AcDbEntity
  8
Unnamed Level 255
  6
Continuous2
 62
    18
420
        0
370
    -3
100
AcDbLine
 10
-0.0319483333333308
 20
-0.187562223514053
 30
0.0
 11
-0.0312499999999978
 21
-0.1749341508687535
 31
0.0
  0
LINE
  5
1A7
330
1F
100
AcDbEntity
  8
Unnamed Level 255
  6
Continuous2
 62
    18
420
        0
370
    -3
100
AcDbLine
 10
-0.0312499999999978
 20
-0.1749341508687535
 30
0.0
 11
-0.0412499999999979
 21
-0.1706276997045295
 31
0.0
  0
ARC
  5
1A8
330
1F
100
AcDbEntity
  8
Unnamed Level 255
  6
Continuous2
 62
    18
420
        0
370
    -3
100
AcDbCircle
 10
-0.0149676060244204
 20
-0.6088155758390034
 30
0.0
 40
0.4333347764069783
100
AcDbArc
 50
87.85519769260353
 51
91.49193337252044
  0
ARC
  5
1A9
330
1F
100
AcDbEntity
  8
Unnamed Level 255
  6
Continuous2
 62
    18
420
        0
370
    -3
100
AcDbCircle
 10
0.00559542098771
 20
-0.1844591060891463
 30
0.0
 40
0.0330473081598784
100
AcDbArc
 50
164.5001845636799
 51
188.5649434142936
  0
ARC
  5
1AA
330
1F
100
AcDbEntity
  8
Unnamed Level 255
  6
Continuous2
 62
    18
420
        0
370
    -3
100
AcDbCircle
 10
-0.0139308437734916
 20
0.0134964189305532
 30
0.0
 40
0.2033031614288563
100
AcDbArc
 50
266.2907178049164
 51
274.3209268538263
  0
ARC
  5
1AB
330
1F
100
AcDbEntity
  8
Unnamed Level 255
  6
Continuous2
 62
    18
420
        0
370
    -3
100
AcDbCircle
 10
-0.0013758792155182
 20
-0.1867858685936727
 30
0.0
 40
0.0036877797717776
100
AcDbArc
 50
318.5119315772421
 51
20.27828243426443
  0
LINE
  5
1AC
330
1F
100
AcDbEntity
  8
Unnamed Level 255
  6
Continuous2
 62
    18
420
        0
370
    -3
100
AcDbLine
 10
0.0020833333333358
 20
-0.1855077574142432
 30
0.0
 11
0.0020833333333356
 21
-0.1766026281635443
 31
0.0
  0
LINE
  5
1AD
330
1F
100
AcDbEntity
  8
Unnamed Level 255
  6
Continuous2
 62
    18
420
        0
370
    -3
100
AcDbLine
 10
0.0020833333333356
 20
-0.1766026281635443
 30
0.0
 11
0.0012500000000022
 21
-0.1757843786966699
 31
0.0
  0
LINE
  5
1AE
330
1F
100
AcDbEntity
  8
Unnamed Level 255
  6
Continuous2
 62
    18
420
        0
370
    -3
100
AcDbLine
 10
0.007916666666669
 20
-0.1781276997045282
 30
0.0
 11
0.0064583333333356
 21
-0.1783955568473853
 31
0.0
  0
LINE
  5
1AF
330
1F
100
AcDbEntity
  8
Unnamed Level 255
  6
Continuous2
 62
    18
420
        0
370
    -3
100
AcDbLine
 10
0.0064583333333356
 20
-0.1783955568473853
 30
0.0
 11
0.0068154761904788
 21
-0.1908955568473854
 31
0.0
  0
ARC
  5
1B0
330
1F
100
AcDbEntity
  8
Unnamed Level 255
  6
Continuous2
 62
    18
420
        0
370
    -3
100
AcDbCircle
 10
0.0296067961518741
 20
-0.1549607296214437
 30
0.0
 40
0.0425529796059097
100
AcDbArc
 50
237.6154780654966
 51
260.9544963861557
  0
ARC
  5
1B1
330
1F
100
AcDbEntity
  8
Unnamed Level 255
  6
Continuous2
 62
    18
420
        0
370
    -3
100
AcDbCircle
 10
0.0176121906706253
 20
-0.1368861855540248
 30
0.0
 40
0.0603319670111464
100
AcDbArc
 50
275.044042745182
 51
309.5660312112739
  0
LINE
  5
1B2
330
1F
100
AcDbEntity
  8
Unnamed Level 255
  6
Continuous2
 62
    18
420
        0
370
    -3
100
AcDbLine
 10
0.0560416666666691
 20
-0.183395556847384
 30
0.0
 11
0.0520833333333357
 21
-0.1790744871322383
 31
0.0
  0
ARC
  5
1B3
330
1F
100
AcDbEntity
  8
Unnamed Level 255
  6
Continuous2
 62
    18
420
        0
370
    -3
100
AcDbCircle
 10
0.025713476661018
 20
0.1373304079398736
 30
0.0
 40
0.3175018534851612
100
AcDbArc
 50
268.4970931185311
 51
274.7641420059189
  0
LINE
  5
1B4
330
1F
100
AcDbEntity
  8
Unnamed Level 255
  6
Continuous2
 62
    18
420
        0
370
    -3
100
AcDbLine
 10
0.0173861442390788
 20
-0.1800622235140517
 30
0.0
 11
0.007916666666669
 21
-0.1781276997045282
 31
0.0
  0
LINE
  5
1B5
330
1F
100
AcDbEntity
  8
Unnamed Level 255
  6
Continuous2
 62
    18
420
        0
370
    -3
100
AcDbLine
 10
-0.0843749999999975
 20
-0.1875622235140544
 30
0.0
 11
-0.0793011423935668
 21
-0.1908955568473876
 31
0.0
  0
ARC
  5
1B6
330
1F
100
AcDbEntity
  8
Unnamed Level 255
  6
Continuous2
 62
    18
420
        0
370
    -3
100
AcDbCircle
 10
-0.0171970590777566
 20
-0.0507193804359465
 30
0.0
 40
0.1533175710668172
100
AcDbArc
 50
246.1045946219465
 51
258.7593350528118
  0
LINE
  5
1B7
330
1F
100
AcDbEntity
  8
Unnamed Level 255
  6
Continuous2
 62
    18
420
        0
370
    -3
100
AcDbLine
 10
-0.0470833333333304
 20
-0.2010958686545147
 30
0.0
 11
0.0102083333333361
 21
-0.1975622235140519
 31
0.0
  0
LINE
  5
1B8
330
1F
100
AcDbEntity
  8
Unnamed Level 255
  6
Continuous2
 62
    18
420
        0
370
    -3
100
AcDbLine
 10
0.0102083333333361
 20
-0.1975622235140519
 30
0.0
 11
0.0029166666666694
 21
-0.1939938598885917
 31
0.0
  0
ARC
  5
1B9
330
1F
100
AcDbEntity
  8
Unnamed Level 255
  6
Continuous2
 62
    18
420
        0
370
    -3
100
AcDbCircle
 10
-0.0049451082525402
 20
0.2313509041023831
 30
0.0
 40
0.4254174135592223
100
AcDbArc
 50
266.342504465906
 51
271.0588945140227
  0
LINE
  5
1BA
330
1F
100
AcDbEntity
  8
Unnamed Level 255
  6
Continuous2
 62
    18
420
        0
370
    -3
100
AcDbLine
 10
-0.0320833333333307
 20
-0.1932000262921724
 30
0.0
 11
-0.0454166666666641
 21
-0.1885003311225065
 31
0.0
  0
ARC
  5
1BB
330
1F
100
AcDbEntity
  8
Unnamed Level 255
  6
Continuous2
 62
    18
420
        0
370
    -3
100
AcDbCircle
 10
-0.0764440527213664
 20
-0.6676131251490458
 30
0.0
 40
0.480116410972698
100
AcDbArc
 50
86.29469442913553
 51
90.94650060822333
  0
VIEWPORT
  5
1BC
330
23
100
AcDbEntity
 67
     1
  8
0
100
AcDbViewport
 10
5.25
 20
4.0
 30
0.0
 40
11.638
 41
8.993
 68
     1
 69
     1
 12
5.25
 22
4.0
 13
0.0
 23
0.0
 14
0.5
 24
0.5
 15
0.5
 25
0.5
 16
0.0
 26
0.0
 36
1.0
 17
0.0
 27
0.0
 37
0.0
 42
50.0
 43
0.0
 44
0.0
 45
8.993
 50
0.0
 51
0.0
 72
   100
 90
   557152
  1

281
     0
 71
     1
 74
     0
110
0.0
120
0.0
130
0.0
111
1.0
121
0.0
131
0.0
112
0.0
122
1.0
132
0.0
 79
     0
146
0.0
170
     0
 61
     5
348
2F
292
     1
282
     1
141
0.0
142
0.0
 63
   256
361
1BD
  0
ENDSEC
  0
SECTION
  2
OBJECTS
  0
DICTIONARY
  5
C
330
0
100
AcDbDictionary
281
     1
  3
ACAD_DETAILVIEWSTYLE
350
1C5
  3
ACAD_GROUP
350
D
  3
ACAD_LAYOUT
350
1A
  3
ACAD_MATERIAL
350
43
  3
ACAD_MLEADERSTYLE
350
5B
  3
ACAD_MLINESTYLE
350
17
  3
ACAD_PLOTSETTINGS
350
19
  3
ACAD_PLOTSTYLENAME
350
E
  3
ACAD_SCALELIST
350
47
  3
ACAD_SECTIONVIEWSTYLE
350
1C6
  3
ACAD_TABLESTYLE
350
59
  3
ACAD_VISUALSTYLE
350
2A
  3
ACDB_RECOMPOSE_DATA
350
1C2
  3
AcDbVariableDictionary
350
1BE
  0
SUN
  5
5D
330
29
100
AcDbSun
 90
        1
290
     0
 63
     7
421
 16777215
 40
1.0
291
     1
 91
  2455826
 92
 54000000
292
     0
 70
     2
 71
   256
280
     1
  0
SUN
  5
1BD
330
1BC
100
AcDbSun
 90
        1
290
     0
 63
     7
421
 16777215
 40
1.0
291
     1
 91
  2455826
 92
 54000000
292
     0
 70
     2
 71
   256
280
     1
  0
DICTIONARY
  5
1C5
102
{ACAD_REACTORS
330
C
102
}
330
C
100
AcDbDictionary
281
     1
  0
DICTIONARY
  5
D
102
{ACAD_REACTORS
330
C
102
}
330
C
100
AcDbDictionary
281
     1
  0
DICTIONARY
  5
1A
102
{ACAD_REACTORS
330
C
102
}
330
C
100
AcDbDictionary
281
     1
  3
Layout2
350
26
  3
Model
350
22
  0
DICTIONARY
  5
43
102
{ACAD_REACTORS
330
C
102
}
330
C
100
AcDbDictionary
281
     1
  3
ByBlock
350
45
  3
ByLayer
350
44
  3
Global
350
46
  0
DICTIONARY
  5
5B
102
{ACAD_REACTORS
330
C
102
}
330
C
100
AcDbDictionary
281
     1
  3
Standard
350
5C
  0
DICTIONARY
  5
17
102
{ACAD_REACTORS
330
C
102
}
330
C
100
AcDbDictionary
281
     1
  3
Standard
350
18
  0
DICTIONARY
  5
19
102
{ACAD_REACTORS
330
C
102
}
330
C
100
AcDbDictionary
281
     1
  0
ACDBDICTIONARYWDFLT
  5
E
102
{ACAD_REACTORS
330
C
102
}
330
C
100
AcDbDictionary
281
     1
  3
Normal
350
F
100
AcDbDictionaryWithDefault
340
F
  0
DICTIONARY
  5
47
102
{ACAD_REACTORS
330
C
102
}
330
C
100
AcDbDictionary
281
     1
  3
A0
350
48
  3
A1
350
49
  3
A2
350
4A
  3
A3
350
4B
  3
A4
350
4C
  3
A5
350
4D
  3
A6
350
4E
  3
A7
350
4F
  3
A8
350
50
  3
A9
350
51
  3
B1
350
52
  3
B2
350
53
  3
B3
350
54
  3
B4
350
55
  3
B5
350
56
  3
B6
350
57
  3
B7
350
58
  0
DICTIONARY
  5
1C6
102
{ACAD_REACTORS
330
C
102
}
330
C
100
AcDbDictionary
281
     1
  0
DICTIONARY
  5
59
102
{ACAD_REACTORS
330
C
102
}
330
C
100
AcDbDictionary
281
     1
  3
Standard
350
5A
  0
DICTIONARY
  5
2A
102
{ACAD_REACTORS
330
C
102
}
330
C
100
AcDbDictionary
281
     1
  3
2dWireframe
350
2F
  3
Basic
350
32
  3
Brighten
350
36
  3
ColorChange
350
3A
  3
Conceptual
350
34
  3
Dim
350
35
  3
EdgeColorOff
350
3D
  3
Facepattern
350
39
  3
Flat
350
2B
  3
FlatWithEdges
350
2C
  3
Gouraud
350
2D
  3
GouraudWithEdges
350
2E
  3
Hidden
350
31
  3
JitterOff
350
3B
  3
Linepattern
350
38
  3
OverhangOff
350
3C
  3
Realistic
350
33
  3
Shaded
350
42
  3
Shaded with edges
350
41
  3
Shades of Gray
350
3E
  3
Sketchy
350
3F
  3
Thicken
350
37
  3
Wireframe
350
30
  3
X-Ray
350
40
  0
XRECORD
  5
1C2
102
{ACAD_REACTORS
330
C
102
}
330
C
100
AcDbXrecord
280
     1
 90
        1
330
5A
  0
DICTIONARY
  5
1BE
102
{ACAD_REACTORS
330
C
102
}
330
C
100
AcDbDictionary
281
     1
  3
CANNOSCALE
350
1BF
  3
CMLEADERSTYLE
350
1C4
  3
CTABLESTYLE
350
1C3
  0
LAYOUT
  5
26
102
{ACAD_REACTORS
330
1A
102
}
330
1A
100
AcDbPlotSettings
  1

  2
none_device
  4
Letter_(8.50_x_11.00_Inches)
  6

 40
6.35
 41
6.35
 42
6.35001
 43
6.35001
 44
215.9
 45
279.4
 46
0.0
 47
0.0
 48
0.0
 49
0.0
140
0.0
141
0.0
142
1.0
143
1.0
 70
   688
 72
     0
 73
     1
 74
     5
  7

 75
    16
 76
     0
 77
     2
 78
   300
147
1.0
148
0.0
149
0.0
100
AcDbLayout
  1
Layout2
 70
     1
 71
     1
 10
-0.25
 20
-0.25
 11
10.75
 21
8.25
 12
0.0
 22
0.0
 32
0.0
 14
0.0
 24
0.0
 34
0.0
 15
0.0
 25
0.0
 35
0.0
146
0.0
 13
0.0
 23
0.0
 33
0.0
 16
1.0
 26
0.0
 36
0.0
 17
0.0
 27
1.0
 37
0.0
 76
     0
330
23
331
1BC
  0
LAYOUT
  5
22
102
{ACAD_REACTORS
330
1A
102
}
330
1A
100
AcDbPlotSettings
  1

  2
none_device
  4
Letter_(8.50_x_11.00_Inches)
  6

 40
6.35
 41
6.35
 42
6.35000508
 43
6.35000508
 44
215.9
 45
279.4
 46
0.0
 47
0.0
 48
0.0
 49
0.0
140
0.0
141
0.0
142
1.0
143
1.0
 70
  1712
 72
     0
 73
     0
 74
     0
  7

 75
     0
 76
     0
 77
     2
 78
   300
147
1.0
148
0.0
149
0.0
100
AcDbLayout
  1
Model
 70
     1
 71
     0
 10
0.0
 20
0.0
 11
12.0
 21
9.0
 12
0.0
 22
0.0
 32
0.0
 14
-0.1489583333333331
 24
-0.2429107891465571
 34
0.0
 15
0.1489583333333328
 25
0.0618127764859506
 35
0.0
146
0.0
 13
0.0
 23
0.0
 33
0.0
 16
1.0
 26
0.0
 36
0.0
 17
0.0
 27
1.0
 37
0.0
 76
     0
330
1F
331
29
  0
MATERIAL
  5
45
102
{ACAD_REACTORS
330
43
102
}
330
43
100
AcDbMaterial
  1
ByBlock
 72
     1
 94
      127
  0
MATERIAL
  5
44
102
{ACAD_REACTORS
330
43
102
}
330
43
100
AcDbMaterial
  1
ByLayer
 72
     1
 94
      127
  0
MATERIAL
  5
46
102
{ACAD_REACTORS
330
43
102
}
330
43
100
AcDbMaterial
  1
Global
 72
     1
 94
      127
  0
MLEADERSTYLE
  5
5C
102
{ACAD_REACTORS
330
5B
102
}
330
5B
100
AcDbMLeaderStyle
179
     2
170
     2
171
     1
172
     0
 90
        2
 40
0.0
 41
0.0
173
     1
 91
-1056964608
340
14
 92
       -2
290
     1
 42
0.09
291
     1
 43
0.36
  3
Standard
341
0
 44
0.18
300

342
11
174
     1
178
     6
175
     1
176
     0
 93
-1056964608
 45
0.18
292
     0
297
     0
 46
0.18
343
0
 94
-1056964608
 47
1.0
 49
1.0
140
1.0
293
     1
141
0.0
294
     1
177
     0
142
1.0
295
     0
296
     0
143
0.125
271
     0
272
     9
273
     9
298
     0
  0
MLINESTYLE
  5
18
102
{ACAD_REACTORS
330
17
102
}
330
17
100
AcDbMlineStyle
  2
Standard
 70
     0
  3

 62
   256
 51
90.0
 52
90.0
 71
     2
 49
0.5
 62
   256
  6
BYLAYER
 49
-0.5
 62
   256
  6
BYLAYER
  0
ACDBPLACEHOLDER
  5
F
102
{ACAD_REACTORS
330
E
102
}
330
E
  0
SCALE
  5
48
102
{ACAD_REACTORS
330
47
102
}
330
47
100
AcDbScale
 70
     0
300
1:1
140
1.0
141
1.0
290
     1
  0
SCALE
  5
49
102
{ACAD_REACTORS
330
47
102
}
330
47
100
AcDbScale
 70
     0
300
1/128" = 1'-0"
140
0.0078125
141
12.0
290
     0
  0
SCALE
  5
4A
102
{ACAD_REACTORS
330
47
102
}
330
47
100
AcDbScale
 70
     0
300
1/64" = 1'-0"
140
0.015625
141
12.0
290
     0
  0
SCALE
  5
4B
102
{ACAD_REACTORS
330
47
102
}
330
47
100
AcDbScale
 70
     0
300
1/32" = 1'-0"
140
0.03125
141
12.0
290
     0
  0
SCALE
  5
4C
102
{ACAD_REACTORS
330
47
102
}
330
47
100
AcDbScale
 70
     0
300
1/16" = 1'-0"
140
0.0625
141
12.0
290
     0
  0
SCALE
  5
4D
102
{ACAD_REACTORS
330
47
102
}
330
47
100
AcDbScale
 70
     0
300
3/32" = 1'-0"
140
0.09375
141
12.0
290
     0
  0
SCALE
  5
4E
102
{ACAD_REACTORS
330
47
102
}
330
47
100
AcDbScale
 70
     0
300
1/8" = 1'-0"
140
0.125
141
12.0
290
     0
  0
SCALE
  5
4F
102
{ACAD_REACTORS
330
47
102
}
330
47
100
AcDbScale
 70
     0
300
3/16" = 1'-0"
140
0.1875
141
12.0
290
     0
  0
SCALE
  5
50
102
{ACAD_REACTORS
330
47
102
}
330
47
100
AcDbScale
 70
     0
300
1/4" = 1'-0"
140
0.25
141
12.0
290
     0
  0
SCALE
  5
51
102
{ACAD_REACTORS
330
47
102
}
330
47
100
AcDbScale
 70
     0
300
3/8" = 1'-0"
140
0.375
141
12.0
290
     0
  0
SCALE
  5
52
102
{ACAD_REACTORS
330
47
102
}
330
47
100
AcDbScale
 70
     0
300
1/2" = 1'-0"
140
0.5
141
12.0
290
     0
  0
SCALE
  5
53
102
{ACAD_REACTORS
330
47
102
}
330
47
100
AcDbScale
 70
     0
300
3/4" = 1'-0"
140
0.75
141
12.0
290
     0
  0
SCALE
  5
54
102
{ACAD_REACTORS
330
47
102
}
330
47
100
AcDbScale
 70
     0
300
1" = 1'-0"
140
1.0
141
12.0
290
     0
  0
SCALE
  5
55
102
{ACAD_REACTORS
330
47
102
}
330
47
100
AcDbScale
 70
     0
300
1-1/2" = 1'-0"
140
1.5
141
12.0
290
     0
  0
SCALE
  5
56
102
{ACAD_REACTORS
330
47
102
}
330
47
100
AcDbScale
 70
     0
300
3" = 1'-0"
140
3.0
141
12.0
290
     0
  0
SCALE
  5
57
102
{ACAD_REACTORS
330
47
102
}
330
47
100
AcDbScale
 70
     0
300
6" = 1'-0"
140
6.0
141
12.0
290
     0
  0
SCALE
  5
58
102
{ACAD_REACTORS
330
47
102
}
330
47
100
AcDbScale
 70
     0
300
1'-0" = 1'-0"
140
12.0
141
12.0
290
     0
  0
TABLESTYLE
  5
5A
102
{ACAD_REACTORS
330
59
102
}
102
{ACAD_XDICTIONARY
360
1C0
102
}
330
59
100
AcDbTableStyle
  3
Standard
 70
     0
 71
     0
 40
0.06
 41
0.06
280
     0
281
     0
  7
Standard
140
0.18
170
     2
 62
     0
 63
   257
283
     0
 90
        4
 91
        0
  1

274
    -2
284
     1
 64
     0
275
    -2
285
     1
 65
     0
276
    -2
286
     1
 66
     0
277
    -2
287
     1
 67
     0
278
    -2
288
     1
 68
     0
279
    -2
289
     1
 69
     0
  7
Standard
140
0.25
170
     5
 62
     0
 63
   257
283
     0
 90
        4
 91
        0
  1

274
    -2
284
     1
 64
     0
275
    -2
285
     1
 65
     0
276
    -2
286
     1
 66
     0
277
    -2
287
     1
 67
     0
278
    -2
288
     1
 68
     0
279
    -2
289
     1
 69
     0
  7
Standard
140
0.18
170
     5
 62
     0
 63
   257
283
     0
 90
        4
 91
        0
  1

274
    -2
284
     1
 64
     0
275
    -2
285
     1
 65
     0
276
    -2
286
     1
 66
     0
277
    -2
287
     1
 67
     0
278
    -2
288
     1
 68
     0
279
    -2
289
     1
 69
     0
  0
VISUALSTYLE
  5
2F
102
{ACAD_REACTORS
330
2A
102
}
330
2A
100
AcDbVisualStyle
  2
2dWireframe
 70
     4
177
     3
291
     0
 70
    58
 90
        0
176
     1
 90
        2
176
     1
 90
        0
176
     1
 90
        0
176
     1
 40
0.6
176
     1
 40
30.0
176
     1
 62
     7
420
 16777215
176
     1
 90
        1
176
     1
 90
        4
176
     1
 62
     7
176
     1
 62
   257
176
     1
 90
        1
176
     1
 90
        1
176
     1
 40
1.0
176
     1
 90
        0
176
     1
 62
   257
176
     1
 40
1.0
176
     1
 90
        1
176
     1
 90
        6
176
     1
 90
        2
176
     1
 62
     7
176
     1
 90
        5
176
     1
 90
        0
176
     1
 90
        0
176
     1
290
     0
176
     1
 90
        1
176
     1
 40
0.0
176
     1
 90
        0
176
     1
290
     1
176
     1
290
     1
176
     1
290
     0
176
     1
290
     0
176
     1
290
     0
176
     1
290
     0
176
     1
290
     0
176
     1
290
     0
176
     1
290
     0
176
     1
 90
       50
176
     1
 40
0.0
176
     1
 40
1.0
176
     1
 90
        0
176
     1
 62
    18
420
        0
176
     1
 90
       50
176
     1
 90
        3
176
     1
 62
     5
420
      255
176
     1
290
     0
176
     1
 90
       50
176
     1
 90
       50
176
     1
 90
       50
176
     1
290
     0
176
     1
 90
       50
176
     1
 62
   256
176
     0
 40
1.0
176
     0
 90
        2
176
     1
  1
strokes_ogs.tif
176
     1
290
     0
176
     1
 40
1.0
176
     1
 40
1.0
176
     1
  0
VISUALSTYLE
  5
32
102
{ACAD_REACTORS
330
2A
102
}
330
2A
100
AcDbVisualStyle
  2
Basic
 70
     7
177
     3
291
     1
 70
    58
 90
        1
176
     1
 90
        0
176
     1
 90
        1
176
     1
 90
        0
176
     1
 40
0.6
176
     1
 40
30.0
176
     1
 62
     7
420
 16777215
176
     1
 90
        0
176
     1
 90
        4
176
     1
 62
     7
176
     1
 62
   257
176
     1
 90
        1
176
     1
 90
        1
176
     1
 40
1.0
176
     1
 90
        8
176
     1
 62
     7
176
     1
 40
1.0
176
     1
 90
        1
176
     1
 90
        6
176
     1
 90
        2
176
     1
 62
     7
176
     1
 90
        5
176
     1
 90
        0
176
     1
 90
        0
176
     1
290
     0
176
     1
 90
        1
176
     1
 40
0.0
176
     1
 90
        0
176
     1
290
     0
176
     1
290
     1
176
     1
290
     1
176
     1
290
     0
176
     1
290
     0
176
     1
290
     0
176
     1
290
     0
176
     1
290
     0
176
     1
290
     0
176
     1
 90
       50
176
     1
 40
0.0
176
     1
 40
1.0
176
     1
 90
        0
176
     1
 62
    18
420
        0
176
     1
 90
       50
176
     1
 90
        3
176
     1
 62
     5
420
      255
176
     1
290
     0
176
     1
 90
       50
176
     1
 90
       50
176
     1
 90
       50
176
     1
290
     0
176
     1
 90
       50
176
     1
 62
   256
176
     0
 40
1.0
176
     0
 90
        2
176
     1
  1
strokes_ogs.tif
176
     1
290
     0
176
     1
 40
1.0
176
     1
 40
1.0
176
     1
  0
VISUALSTYLE
  5
36
102
{ACAD_REACTORS
330
2A
102
}
330
2A
100
AcDbVisualStyle
  2
Brighten
 70
    12
177
     3
291
     1
 70
    58
 90
        2
176
     1
 90
        2
176
     1
 90
        0
176
     1
 90
        0
176
     1
 40
0.6
176
     1
 40
30.0
176
     1
 62
     7
420
 16777215
176
     1
 90
        1
176
     1
 90
        4
176
     1
 62
     7
176
     1
 62
   257
176
     1
 90
        1
176
     1
 90
        1
176
     1
 40
1.0
176
     1
 90
        8
176
     1
 62
     7
176
     1
 40
1.0
176
     1
 90
        1
176
     1
 90
        6
176
     1
 90
        2
176
     1
 62
     7
176
     1
 90
        5
176
     1
 90
        0
176
     1
 90
        0
176
     1
290
     0
176
     1
 90
        1
176
     1
 40
50.0
176
     1
 90
        0
176
     1
290
     0
176
     1
290
     1
176
     1
290
     1
176
     1
290
     0
176
     1
290
     0
176
     1
290
     0
176
     1
290
     0
176
     1
290
     0
176
     1
290
     0
176
     1
 90
       50
176
     1
 40
0.0
176
     1
 40
1.0
176
     1
 90
        0
176
     1
 62
    18
420
        0
176
     1
 90
       50
176
     1
 90
        3
176
     1
 62
     5
420
      255
176
     1
290
     0
176
     1
 90
       50
176
     1
 90
       50
176
     1
 90
       50
176
     1
290
     0
176
     1
 90
       50
176
     1
 62
   256
176
     0
 40
1.0
176
     0
 90
        2
176
     1
  1
strokes_ogs.tif
176
     1
290
     0
176
     1
 40
1.0
176
     1
 40
1.0
176
     1
  0
VISUALSTYLE
  5
3A
102
{ACAD_REACTORS
330
2A
102
}
330
2A
100
AcDbVisualStyle
  2
ColorChange
 70
    16
177
     3
291
     1
 70
    58
 90
        2
176
     1
 90
        2
176
     1
 90
        3
176
     1
 90
        0
176
     1
 40
0.6
176
     1
 40
30.0
176
     1
 62
     8
420
  8421504
176
     1
 90
        1
176
     1
 90
        4
176
     1
 62
     7
176
     1
 62
   257
176
     1
 90
        1
176
     1
 90
        1
176
     1
 40
1.0
176
     1
 90
        8
176
     1
 62
     8
420
  8421504
176
     1
 40
1.0
176
     1
 90
        1
176
     1
 90
        6
176
     1
 90
        2
176
     1
 62
     7
176
     1
 90
        5
176
     1
 90
        0
176
     1
 90
        0
176
     1
290
     0
176
     1
 90
        1
176
     1
 40
0.0
176
     1
 90
        0
176
     1
290
     0
176
     1
290
     1
176
     1
290
     1
176
     1
290
     0
176
     1
290
     0
176
     1
290
     0
176
     1
290
     0
176
     1
290
     0
176
     1
290
     0
176
     1
 90
       50
176
     1
 40
0.0
176
     1
 40
1.0
176
     1
 90
        0
176
     1
 62
    18
420
        0
176
     1
 90
       50
176
     1
 90
        3
176
     1
 62
     5
420
      255
176
     1
290
     0
176
     1
 90
       50
176
     1
 90
       50
176
     1
 90
       50
176
     1
290
     0
176
     1
 90
       50
176
     1
 62
   256
176
     0
 40
1.0
176
     0
 90
        2
176
     1
  1
strokes_ogs.tif
176
     1
290
     0
176
     1
 40
1.0
176
     1
 40
1.0
176
     1
  0
VISUALSTYLE
  5
34
102
{ACAD_REACTORS
330
2A
102
}
330
2A
100
AcDbVisualStyle
  2
Conceptual
 70
     9
177
     3
291
     0
 70
    58
 90
        3
176
     1
 90
        2
176
     1
 90
        0
176
     1
 90
        0
176
     1
 40
0.6
176
     1
 40
30.0
176
     1
 62
     7
420
 16777215
176
     1
 90
        2
176
     1
 90
        2
176
     1
 62
     7
176
     1
 62
   257
176
     1
 90
        1
176
     1
 90
        1
176
     1
 40
179.0
176
     1
 90
        8
176
     1
 62
     7
176
     1
 40
1.0
176
     1
 90
        1
176
     1
 90
        6
176
     1
 90
        2
176
     1
 62
     7
176
     1
 90
        3
176
     1
 90
        0
176
     1
 90
        0
176
     1
290
     0
176
     1
 90
        1
176
     1
 40
0.0
176
     1
 90
        0
176
     1
290
     0
176
     1
290
     1
176
     1
290
     1
176
     1
290
     0
176
     1
290
     0
176
     1
290
     0
176
     1
290
     0
176
     1
290
     0
176
     1
290
     0
176
     1
 90
       50
176
     1
 40
0.0
176
     1
 40
1.0
176
     1
 90
        0
176
     1
 62
    18
420
        0
176
     1
 90
       50
176
     1
 90
        3
176
     1
 62
     5
420
      255
176
     1
290
     0
176
     1
 90
       50
176
     1
 90
       50
176
     1
 90
       50
176
     1
290
     0
176
     1
 90
       50
176
     1
 62
   256
176
     0
 40
1.0
176
     0
 90
        2
176
     1
  1
strokes_ogs.tif
176
     1
290
     0
176
     1
 40
1.0
176
     1
 40
1.0
176
     1
  0
VISUALSTYLE
  5
35
102
{ACAD_REACTORS
330
2A
102
}
330
2A
100
AcDbVisualStyle
  2
Dim
 70
    11
177
     3
291
     1
 70
    58
 90
        2
176
     1
 90
        2
176
     1
 90
        0
176
     1
 90
        0
176
     1
 40
0.6
176
     1
 40
30.0
176
     1
 62
     7
420
 16777215
176
     1
 90
        1
176
     1
 90
        4
176
     1
 62
     7
176
     1
 62
   257
176
     1
 90
        1
176
     1
 90
        1
176
     1
 40
1.0
176
     1
 90
        8
176
     1
 62
     7
176
     1
 40
1.0
176
     1
 90
        1
176
     1
 90
        6
176
     1
 90
        2
176
     1
 62
     7
176
     1
 90
        5
176
     1
 90
        0
176
     1
 90
        0
176
     1
290
     0
176
     1
 90
        1
176
     1
 40
-50.0
176
     1
 90
        0
176
     1
290
     0
176
     1
290
     1
176
     1
290
     1
176
     1
290
     0
176
     1
290
     0
176
     1
290
     0
176
     1
290
     0
176
     1
290
     0
176
     1
290
     0
176
     1
 90
       50
176
     1
 40
0.0
176
     1
 40
1.0
176
     1
 90
        0
176
     1
 62
    18
420
        0
176
     1
 90
       50
176
     1
 90
        3
176
     1
 62
     5
420
      255
176
     1
290
     0
176
     1
 90
       50
176
     1
 90
       50
176
     1
 90
       50
176
     1
290
     0
176
     1
 90
       50
176
     1
 62
   256
176
     0
 40
1.0
176
     0
 90
        2
176
     1
  1
strokes_ogs.tif
176
     1
290
     0
176
     1
 40
1.0
176
     1
 40
1.0
176
     1
  0
VISUALSTYLE
  5
3D
102
{ACAD_REACTORS
330
2A
102
}
330
2A
100
AcDbVisualStyle
  2
EdgeColorOff
 70
    22
177
     3
291
     1
 70
    58
 90
        2
176
     0
 90
        2
176
     0
 90
        0
176
     0
 90
        0
176
     0
 40
0.6
176
     0
 40
30.0
176
     0
 62
     7
420
 16777215
176
     0
 90
        1
176
     0
 90
        4
176
     0
 62
     7
176
     0
 62
   257
176
     0
 90
        1
176
     0
 90
        1
176
     0
 40
1.0
176
     0
 90
        8
176
     2
 62
     7
176
     0
 40
1.0
176
     0
 90
        1
176
     0
 90
        6
176
     0
 90
        2
176
     0
 62
     7
176
     0
 90
        5
176
     0
 90
        0
176
     0
 90
        0
176
     0
290
     0
176
     0
 90
        1
176
     0
 40
0.0
176
     0
 90
        0
176
     0
290
     0
176
     0
290
     1
176
     0
290
     1
176
     0
290
     0
176
     0
290
     0
176
     0
290
     0
176
     0
290
     0
176
     0
290
     0
176
     0
290
     0
176
     0
 90
       50
176
     0
 40
0.0
176
     0
 40
1.0
176
     0
 90
        0
176
     0
 62
    18
420
        0
176
     0
 90
       50
176
     0
 90
        3
176
     0
 62
     5
420
      255
176
     0
290
     0
176
     0
 90
       50
176
     0
 90
       50
176
     0
 90
       50
176
     0
290
     0
176
     0
 90
       50
176
     0
 62
   256
176
     0
 40
1.0
176
     0
 90
        2
176
     0
  1
strokes_ogs.tif
176
     0
290
     0
176
     0
 40
1.0
176
     0
 40
1.0
176
     0
  0
VISUALSTYLE
  5
39
102
{ACAD_REACTORS
330
2A
102
}
330
2A
100
AcDbVisualStyle
  2
Facepattern
 70
    15
177
     3
291
     1
 70
    58
 90
        2
176
     1
 90
        2
176
     1
 90
        0
176
     1
 90
        0
176
     1
 40
0.6
176
     1
 40
30.0
176
     1
 62
     7
420
 16777215
176
     1
 90
        1
176
     1
 90
        4
176
     1
 62
     7
176
     1
 62
   257
176
     1
 90
        1
176
     1
 90
        1
176
     1
 40
1.0
176
     1
 90
        8
176
     1
 62
     7
176
     1
 40
1.0
176
     1
 90
        1
176
     1
 90
        6
176
     1
 90
        2
176
     1
 62
     7
176
     1
 90
        5
176
     1
 90
        0
176
     1
 90
        0
176
     1
290
     0
176
     1
 90
        1
176
     1
 40
0.0
176
     1
 90
        0
176
     1
290
     0
176
     1
290
     1
176
     1
290
     1
176
     1
290
     0
176
     1
290
     0
176
     1
290
     0
176
     1
290
     0
176
     1
290
     0
176
     1
290
     0
176
     1
 90
       50
176
     1
 40
0.0
176
     1
 40
1.0
176
     1
 90
        0
176
     1
 62
    18
420
        0
176
     1
 90
       50
176
     1
 90
        3
176
     1
 62
     5
420
      255
176
     1
290
     0
176
     1
 90
       50
176
     1
 90
       50
176
     1
 90
       50
176
     1
290
     0
176
     1
 90
       50
176
     1
 62
   256
176
     0
 40
1.0
176
     0
 90
        2
176
     1
  1
strokes_ogs.tif
176
     1
290
     0
176
     1
 40
1.0
176
     1
 40
1.0
176
     1
  0
VISUALSTYLE
  5
2B
102
{ACAD_REACTORS
330
2A
102
}
330
2A
100
AcDbVisualStyle
  2
Flat
 70
     0
177
     3
291
     1
 70
    58
 90
        2
176
     1
 90
        1
176
     1
 90
        1
176
     1
 90
        2
176
     1
 40
0.6
176
     1
 40
30.0
176
     1
 62
     7
420
 16777215
176
     1
 90
        0
176
     1
 90
        0
176
     1
 62
     7
176
     1
 62
   257
176
     1
 90
        1
176
     1
 90
        1
176
     1
 40
1.0
176
     1
 90
        8
176
     1
 62
     7
176
     1
 40
1.0
176
     1
 90
        1
176
     1
 90
        6
176
     1
 90
        2
176
     1
 62
     7
176
     1
 90
        5
176
     1
 90
        0
176
     1
 90
        0
176
     1
290
     0
176
     1
 90
       13
176
     1
 40
0.0
176
     1
 90
        0
176
     1
290
     0
176
     1
290
     1
176
     1
290
     1
176
     1
290
     0
176
     1
290
     0
176
     1
290
     0
176
     1
290
     0
176
     1
290
     0
176
     1
290
     0
176
     1
 90
       50
176
     1
 40
0.0
176
     1
 40
1.0
176
     1
 90
        0
176
     1
 62
    18
420
        0
176
     1
 90
       50
176
     1
 90
        3
176
     1
 62
     5
420
      255
176
     1
290
     0
176
     1
 90
       50
176
     1
 90
       50
176
     1
 90
       50
176
     1
290
     0
176
     1
 90
       50
176
     1
 62
   256
176
     0
 40
1.0
176
     0
 90
        2
176
     1
  1
strokes_ogs.tif
176
     1
290
     0
176
     1
 40
1.0
176
     1
 40
1.0
176
     1
  0
VISUALSTYLE
  5
2C
102
{ACAD_REACTORS
330
2A
102
}
330
2A
100
AcDbVisualStyle
  2
FlatWithEdges
 70
     1
177
     3
291
     1
 70
    58
 90
        2
176
     1
 90
        1
176
     1
 90
        1
176
     1
 90
        2
176
     1
 40
0.6
176
     1
 40
30.0
176
     1
 62
     7
420
 16777215
176
     1
 90
        1
176
     1
 90
        0
176
     1
 62
     7
176
     1
 62
   257
176
     1
 90
        1
176
     1
 90
        1
176
     1
 40
1.0
176
     1
 90
        0
176
     1
 62
   257
176
     1
 40
1.0
176
     1
 90
        1
176
     1
 90
        6
176
     1
 90
        2
176
     1
 62
     7
176
     1
 90
        5
176
     1
 90
        0
176
     1
 90
        0
176
     1
290
     0
176
     1
 90
       13
176
     1
 40
0.0
176
     1
 90
        0
176
     1
290
     0
176
     1
290
     1
176
     1
290
     1
176
     1
290
     0
176
     1
290
     0
176
     1
290
     0
176
     1
290
     0
176
     1
290
     0
176
     1
290
     0
176
     1
 90
       50
176
     1
 40
0.0
176
     1
 40
1.0
176
     1
 90
        0
176
     1
 62
    18
420
        0
176
     1
 90
       50
176
     1
 90
        3
176
     1
 62
     5
420
      255
176
     1
290
     0
176
     1
 90
       50
176
     1
 90
       50
176
     1
 90
       50
176
     1
290
     0
176
     1
 90
       50
176
     1
 62
   256
176
     0
 40
1.0
176
     0
 90
        2
176
     1
  1
strokes_ogs.tif
176
     1
290
     0
176
     1
 40
1.0
176
     1
 40
1.0
176
     1
  0
VISUALSTYLE
  5
2D
102
{ACAD_REACTORS
330
2A
102
}
330
2A
100
AcDbVisualStyle
  2
Gouraud
 70
     2
177
     3
291
     1
 70
    58
 90
        2
176
     1
 90
        2
176
     1
 90
        1
176
     1
 90
        2
176
     1
 40
0.6
176
     1
 40
30.0
176
     1
 62
     7
420
 16777215
176
     1
 90
        0
176
     1
 90
        0
176
     1
 62
     7
176
     1
 62
   257
176
     1
 90
        1
176
     1
 90
        1
176
     1
 40
1.0
176
     1
 90
        0
176
     1
 62
     7
176
     1
 40
1.0
176
     1
 90
        1
176
     1
 90
        6
176
     1
 90
        2
176
     1
 62
     7
176
     1
 90
        5
176
     1
 90
        0
176
     1
 90
        0
176
     1
290
     0
176
     1
 90
       13
176
     1
 40
0.0
176
     1
 90
        0
176
     1
290
     0
176
     1
290
     1
176
     1
290
     1
176
     1
290
     0
176
     1
290
     0
176
     1
290
     0
176
     1
290
     0
176
     1
290
     0
176
     1
290
     0
176
     1
 90
       50
176
     1
 40
0.0
176
     1
 40
1.0
176
     1
 90
        0
176
     1
 62
    18
420
        0
176
     1
 90
       50
176
     1
 90
        3
176
     1
 62
     5
420
      255
176
     1
290
     0
176
     1
 90
       50
176
     1
 90
       50
176
     1
 90
       50
176
     1
290
     0
176
     1
 90
       50
176
     1
 62
   256
176
     0
 40
1.0
176
     0
 90
        2
176
     1
  1
strokes_ogs.tif
176
     1
290
     0
176
     1
 40
1.0
176
     1
 40
1.0
176
     1
  0
VISUALSTYLE
  5
2E
102
{ACAD_REACTORS
330
2A
102
}
330
2A
100
AcDbVisualStyle
  2
GouraudWithEdges
 70
     3
177
     3
291
     1
 70
    58
 90
        2
176
     1
 90
        2
176
     1
 90
        1
176
     1
 90
        2
176
     1
 40
0.6
176
     1
 40
30.0
176
     1
 62
     7
420
 16777215
176
     1
 90
        1
176
     1
 90
        0
176
     1
 62
     7
176
     1
 62
   257
176
     1
 90
        1
176
     1
 90
        1
176
     1
 40
1.0
176
     1
 90
        0
176
     1
 62
   257
176
     1
 40
1.0
176
     1
 90
        1
176
     1
 90
        6
176
     1
 90
        2
176
     1
 62
     7
176
     1
 90
        5
176
     1
 90
        0
176
     1
 90
        0
176
     1
290
     0
176
     1
 90
       13
176
     1
 40
0.0
176
     1
 90
        0
176
     1
290
     0
176
     1
290
     1
176
     1
290
     1
176
     1
290
     0
176
     1
290
     0
176
     1
290
     0
176
     1
290
     0
176
     1
290
     0
176
     1
290
     0
176
     1
 90
       50
176
     1
 40
0.0
176
     1
 40
1.0
176
     1
 90
        0
176
     1
 62
    18
420
        0
176
     1
 90
       50
176
     1
 90
        3
176
     1
 62
     5
420
      255
176
     1
290
     0
176
     1
 90
       50
176
     1
 90
       50
176
     1
 90
       50
176
     1
290
     0
176
     1
 90
       50
176
     1
 62
   256
176
     0
 40
1.0
176
     0
 90
        2
176
     1
  1
strokes_ogs.tif
176
     1
290
     0
176
     1
 40
1.0
176
     1
 40
1.0
176
     1
  0
VISUALSTYLE
  5
31
102
{ACAD_REACTORS
330
2A
102
}
330
2A
100
AcDbVisualStyle
  2
Hidden
 70
     6
177
     3
291
     0
 70
    58
 90
        1
176
     1
 90
        2
176
     1
 90
        2
176
     1
 90
        0
176
     1
 40
0.6
176
     1
 40
30.0
176
     1
 62
     7
420
 16777215
176
     1
 90
        2
176
     1
 90
        2
176
     1
 62
     7
176
     1
 62
   257
176
     1
 90
        2
176
     1
 90
        1
176
     1
 40
40.0
176
     1
 90
        0
176
     1
 62
   257
176
     1
 40
1.0
176
     1
 90
        1
176
     1
 90
        6
176
     1
 90
        2
176
     1
 62
     7
176
     1
 90
        3
176
     1
 90
        0
176
     1
 90
        0
176
     1
290
     0
176
     1
 90
        1
176
     1
 40
0.0
176
     1
 90
        0
176
     1
290
     0
176
     1
290
     1
176
     1
290
     1
176
     1
290
     0
176
     1
290
     0
176
     1
290
     0
176
     1
290
     0
176
     1
290
     0
176
     1
290
     0
176
     1
 90
       50
176
     1
 40
0.0
176
     1
 40
1.0
176
     1
 90
        0
176
     1
 62
    18
420
        0
176
     1
 90
       50
176
     1
 90
        3
176
     1
 62
     5
420
      255
176
     1
290
     0
176
     1
 90
       50
176
     1
 90
       50
176
     1
 90
       50
176
     1
290
     0
176
     1
 90
       50
176
     1
 62
   256
176
     0
 40
1.0
176
     0
 90
        2
176
     1
  1
strokes_ogs.tif
176
     1
290
     0
176
     1
 40
1.0
176
     1
 40
1.0
176
     1
  0
VISUALSTYLE
  5
3B
102
{ACAD_REACTORS
330
2A
102
}
330
2A
100
AcDbVisualStyle
  2
JitterOff
 70
    20
177
     3
291
     1
 70
    58
 90
        2
176
     0
 90
        2
176
     0
 90
        0
176
     0
 90
        0
176
     0
 40
0.6
176
     0
 40
30.0
176
     0
 62
     7
420
 16777215
176
     0
 90
        1
176
     0
 90
        4
176
     0
 62
     7
176
     0
 62
   257
176
     0
 90
        1
176
     0
 90
        1
176
     0
 40
1.0
176
     0
 90
       10
176
     2
 62
     7
176
     0
 40
1.0
176
     0
 90
        1
176
     0
 90
        6
176
     0
 90
        2
176
     0
 62
     7
176
     0
 90
        5
176
     0
 90
        0
176
     0
 90
        0
176
     0
290
     0
176
     0
 90
        1
176
     0
 40
0.0
176
     0
 90
        0
176
     0
290
     0
176
     0
290
     1
176
     0
290
     1
176
     0
290
     0
176
     0
290
     0
176
     0
290
     0
176
     0
290
     0
176
     0
290
     0
176
     0
290
     0
176
     0
 90
       50
176
     0
 40
0.0
176
     0
 40
1.0
176
     0
 90
        0
176
     0
 62
    18
420
        0
176
     0
 90
       50
176
     0
 90
        3
176
     0
 62
     5
420
      255
176
     0
290
     0
176
     0
 90
       50
176
     0
 90
       50
176
     0
 90
       50
176
     0
290
     0
176
     0
 90
       50
176
     0
 62
   256
176
     0
 40
1.0
176
     0
 90
        2
176
     0
  1
strokes_ogs.tif
176
     0
290
     0
176
     0
 40
1.0
176
     0
 40
1.0
176
     0
  0
VISUALSTYLE
  5
38
102
{ACAD_REACTORS
330
2A
102
}
330
2A
100
AcDbVisualStyle
  2
Linepattern
 70
    14
177
     3
291
     1
 70
    58
 90
        2
176
     1
 90
        2
176
     1
 90
        0
176
     1
 90
        0
176
     1
 40
0.6
176
     1
 40
30.0
176
     1
 62
     7
420
 16777215
176
     1
 90
        1
176
     1
 90
        4
176
     1
 62
     7
176
     1
 62
   257
176
     1
 90
        7
176
     1
 90
        7
176
     1
 40
1.0
176
     1
 90
        8
176
     1
 62
     7
176
     1
 40
1.0
176
     1
 90
        1
176
     1
 90
        6
176
     1
 90
        2
176
     1
 62
     7
176
     1
 90
        5
176
     1
 90
        0
176
     1
 90
        0
176
     1
290
     0
176
     1
 90
        1
176
     1
 40
0.0
176
     1
 90
        0
176
     1
290
     0
176
     1
290
     1
176
     1
290
     1
176
     1
290
     0
176
     1
290
     0
176
     1
290
     0
176
     1
290
     0
176
     1
290
     0
176
     1
290
     0
176
     1
 90
       50
176
     1
 40
0.0
176
     1
 40
1.0
176
     1
 90
        0
176
     1
 62
    18
420
        0
176
     1
 90
       50
176
     1
 90
        3
176
     1
 62
     5
420
      255
176
     1
290
     0
176
     1
 90
       50
176
     1
 90
       50
176
     1
 90
       50
176
     1
290
     0
176
     1
 90
       50
176
     1
 62
   256
176
     0
 40
1.0
176
     0
 90
        2
176
     1
  1
strokes_ogs.tif
176
     1
290
     0
176
     1
 40
1.0
176
     1
 40
1.0
176
     1
  0
VISUALSTYLE
  5
3C
102
{ACAD_REACTORS
330
2A
102
}
330
2A
100
AcDbVisualStyle
  2
OverhangOff
 70
    21
177
     3
291
     1
 70
    58
 90
        2
176
     0
 90
        2
176
     0
 90
        0
176
     0
 90
        0
176
     0
 40
0.6
176
     0
 40
30.0
176
     0
 62
     7
420
 16777215
176
     0
 90
        1
176
     0
 90
        4
176
     0
 62
     7
176
     0
 62
   257
176
     0
 90
        1
176
     0
 90
        1
176
     0
 40
1.0
176
     0
 90
        9
176
     2
 62
     7
176
     0
 40
1.0
176
     0
 90
        1
176
     0
 90
        6
176
     0
 90
        2
176
     0
 62
     7
176
     0
 90
        5
176
     0
 90
        0
176
     0
 90
        0
176
     0
290
     0
176
     0
 90
        1
176
     0
 40
0.0
176
     0
 90
        0
176
     0
290
     0
176
     0
290
     1
176
     0
290
     1
176
     0
290
     0
176
     0
290
     0
176
     0
290
     0
176
     0
290
     0
176
     0
290
     0
176
     0
290
     0
176
     0
 90
       50
176
     0
 40
0.0
176
     0
 40
1.0
176
     0
 90
        0
176
     0
 62
    18
420
        0
176
     0
 90
       50
176
     0
 90
        3
176
     0
 62
     5
420
      255
176
     0
290
     0
176
     0
 90
       50
176
     0
 90
       50
176
     0
 90
       50
176
     0
290
     0
176
     0
 90
       50
176
     0
 62
   256
176
     0
 40
1.0
176
     0
 90
        2
176
     0
  1
strokes_ogs.tif
176
     0
290
     0
176
     0
 40
1.0
176
     0
 40
1.0
176
     0
  0
VISUALSTYLE
  5
33
102
{ACAD_REACTORS
330
2A
102
}
330
2A
100
AcDbVisualStyle
  2
Realistic
 70
     8
177
     3
291
     0
 70
    58
 90
        2
176
     1
 90
        3
176
     1
 90
        0
176
     1
 90
        2
176
     1
 40
0.6
176
     1
 40
30.0
176
     1
 62
     7
420
 16777215
176
     1
 90
        0
176
     1
 90
        0
176
     1
 62
     7
176
     1
 62
   257
176
     1
 90
        1
176
     1
 90
        1
176
     1
 40
1.0
176
     1
 90
        8
176
     1
 62
   257
176
     1
 40
1.0
176
     1
 90
        1
176
     1
 90
        6
176
     1
 90
        2
176
     1
 62
     7
176
     1
 90
        3
176
     1
 90
        0
176
     1
 90
        0
176
     1
290
     0
176
     1
 90
       13
176
     1
 40
0.0
176
     1
 90
        0
176
     1
290
     0
176
     1
290
     1
176
     1
290
     1
176
     1
290
     0
176
     1
290
     0
176
     1
290
     0
176
     1
290
     0
176
     1
290
     0
176
     1
290
     0
176
     1
 90
       50
176
     1
 40
0.0
176
     1
 40
1.0
176
     1
 90
        0
176
     1
 62
    18
420
        0
176
     1
 90
       50
176
     1
 90
        3
176
     1
 62
     5
420
      255
176
     1
290
     0
176
     1
 90
       50
176
     1
 90
       50
176
     1
 90
       50
176
     1
290
     0
176
     1
 90
       50
176
     1
 62
   256
176
     0
 40
1.0
176
     0
 90
        2
176
     1
  1
strokes_ogs.tif
176
     1
290
     0
176
     1
 40
1.0
176
     1
 40
1.0
176
     1
  0
VISUALSTYLE
  5
42
102
{ACAD_REACTORS
330
2A
102
}
330
2A
100
AcDbVisualStyle
  2
Shaded
 70
    27
177
     3
291
     0
 70
    58
 90
        2
176
     1
 90
        2
176
     1
 90
        1
176
     1
 90
        2
176
     1
 40
0.6
176
     1
 40
30.0
176
     1
 62
     7
420
 16777215
176
     1
 90
        0
176
     1
 90
        4
176
     1
 62
     7
176
     1
 62
   257
176
     1
 90
        1
176
     1
 90
        1
176
     1
 40
1.0
176
     1
 90
        8
176
     1
 62
   257
176
     1
 40
1.0
176
     1
 90
        1
176
     1
 90
        6
176
     1
 90
        2
176
     1
 62
     8
420
  7895160
176
     1
 90
        3
176
     1
 90
        0
176
     1
 90
        0
176
     1
290
     0
176
     1
 90
        5
176
     1
 40
0.0
176
     1
 90
        0
176
     1
290
     0
176
     1
290
     1
176
     1
290
     1
176
     1
290
     0
176
     1
290
     0
176
     1
290
     0
176
     1
290
     0
176
     1
290
     0
176
     1
290
     0
176
     1
 90
       50
176
     1
 40
0.0
176
     1
 40
1.0
176
     1
 90
        0
176
     1
 62
    18
420
        0
176
     1
 90
       50
176
     1
 90
        3
176
     1
 62
     5
420
      255
176
     1
290
     0
176
     1
 90
       50
176
     1
 90
       50
176
     1
 90
       50
176
     1
290
     0
176
     1
 90
       50
176
     1
 62
   256
176
     0
 40
1.0
176
     0
 90
        2
176
     1
  1
strokes_ogs.tif
176
     1
290
     0
176
     1
 40
1.0
176
     1
 40
1.0
176
     1
  0
VISUALSTYLE
  5
41
102
{ACAD_REACTORS
330
2A
102
}
330
2A
100
AcDbVisualStyle
  2
Shaded with edges
 70
    26
177
     3
291
     0
 70
    58
 90
        2
176
     1
 90
        2
176
     1
 90
        1
176
     1
 90
        2
176
     1
 40
0.6
176
     1
 40
30.0
176
     1
 62
     7
420
 16777215
176
     1
 90
        1
176
     1
 90
       10
176
     1
 62
     7
176
     1
 62
   257
176
     1
 90
        2
176
     1
 90
        1
176
     1
 40
1.0
176
     1
 90
        8
176
     1
 62
   257
176
     1
 40
1.0
176
     1
 90
        1
176
     1
 90
        6
176
     1
 90
        2
176
     1
 62
     7
176
     1
 90
        3
176
     1
 90
        0
176
     1
 90
        0
176
     1
290
     0
176
     1
 90
        5
176
     1
 40
0.0
176
     1
 90
        0
176
     1
290
     0
176
     1
290
     1
176
     1
290
     1
176
     1
290
     0
176
     1
290
     0
176
     1
290
     0
176
     1
290
     0
176
     1
290
     0
176
     1
290
     0
176
     1
 90
       50
176
     1
 40
0.0
176
     1
 40
1.0
176
     1
 90
        0
176
     1
 62
    18
420
        0
176
     1
 90
       50
176
     1
 90
        3
176
     1
 62
     5
420
      255
176
     1
290
     0
176
     1
 90
       50
176
     1
 90
       50
176
     1
 90
       50
176
     1
290
     0
176
     1
 90
       50
176
     1
 62
   256
176
     0
 40
1.0
176
     0
 90
        2
176
     1
  1
strokes_ogs.tif
176
     1
290
     0
176
     1
 40
1.0
176
     1
 40
1.0
176
     1
  0
VISUALSTYLE
  5
3E
102
{ACAD_REACTORS
330
2A
102
}
330
2A
100
AcDbVisualStyle
  2
Shades of Gray
 70
    23
177
     3
291
     0
 70
    58
 90
        2
176
     1
 90
        2
176
     1
 90
        3
176
     1
 90
        0
176
     1
 40
0.6
176
     1
 40
30.0
176
     1
 62
     7
420
 16777215
176
     1
 90
        2
176
     1
 90
        2
176
     1
 62
     7
176
     1
 62
     7
176
     1
 90
        1
176
     1
 90
        1
176
     1
 40
40.0
176
     1
 90
        8
176
     1
 62
     7
176
     1
 40
1.0
176
     1
 90
        1
176
     1
 90
        6
176
     1
 90
        2
176
     1
 62
     7
176
     1
 90
        3
176
     1
 90
        0
176
     1
 90
        0
176
     1
290
     0
176
     1
 90
        1
176
     1
 40
0.0
176
     1
 90
        0
176
     1
290
     0
176
     1
290
     1
176
     1
290
     1
176
     1
290
     0
176
     1
290
     0
176
     1
290
     0
176
     1
290
     0
176
     1
290
     0
176
     1
290
     0
176
     1
 90
       50
176
     1
 40
0.0
176
     1
 40
1.0
176
     1
 90
        0
176
     1
 62
    18
420
        0
176
     1
 90
       50
176
     1
 90
        3
176
     1
 62
     5
420
      255
176
     1
290
     0
176
     1
 90
       50
176
     1
 90
       50
176
     1
 90
       50
176
     1
290
     0
176
     1
 90
       50
176
     1
 62
   256
176
     0
 40
1.0
176
     0
 90
        2
176
     1
  1
strokes_ogs.tif
176
     1
290
     0
176
     1
 40
1.0
176
     1
 40
1.0
176
     1
  0
VISUALSTYLE
  5
3F
102
{ACAD_REACTORS
330
2A
102
}
330
2A
100
AcDbVisualStyle
  2
Sketchy
 70
    24
177
     3
291
     0
 70
    58
 90
        1
176
     1
 90
        2
176
     1
 90
        2
176
     1
 90
        0
176
     1
 40
0.6
176
     1
 40
30.0
176
     1
 62
     7
420
 16777215
176
     1
 90
        2
176
     1
 90
        2
176
     1
 62
     7
176
     1
 62
     7
176
     1
 90
        1
176
     1
 90
        1
176
     1
 40
40.0
176
     1
 90
       11
176
     1
 62
     7
176
     1
 40
1.0
176
     1
 90
        1
176
     1
 90
        6
176
     1
 90
        2
176
     1
 62
     7
176
     1
 90
        6
176
     1
 90
        0
176
     1
 90
        0
176
     1
290
     0
176
     1
 90
        1
176
     1
 40
0.0
176
     1
 90
        0
176
     1
290
     0
176
     1
290
     1
176
     1
290
     1
176
     1
290
     0
176
     1
290
     0
176
     1
290
     0
176
     1
290
     0
176
     1
290
     0
176
     1
290
     0
176
     1
 90
       50
176
     1
 40
0.0
176
     1
 40
1.0
176
     1
 90
        0
176
     1
 62
    18
420
        0
176
     1
 90
       50
176
     1
 90
        3
176
     1
 62
     5
420
      255
176
     1
290
     0
176
     1
 90
       50
176
     1
 90
       50
176
     1
 90
       50
176
     1
290
     0
176
     1
 90
       50
176
     1
 62
   256
176
     0
 40
1.0
176
     0
 90
        2
176
     1
  1
strokes_ogs.tif
176
     1
290
     0
176
     1
 40
1.0
176
     1
 40
1.0
176
     1
  0
VISUALSTYLE
  5
37
102
{ACAD_REACTORS
330
2A
102
}
330
2A
100
AcDbVisualStyle
  2
Thicken
 70
    13
177
     3
291
     1
 70
    58
 90
        2
176
     1
 90
        2
176
     1
 90
        0
176
     1
 90
        0
176
     1
 40
0.6
176
     1
 40
30.0
176
     1
 62
     7
420
 16777215
176
     1
 90
        1
176
     1
 90
        4
176
     1
 62
     7
176
     1
 62
   257
176
     1
 90
        1
176
     1
 90
        1
176
     1
 40
1.0
176
     1
 90
       12
176
     1
 62
     7
176
     1
 40
1.0
176
     1
 90
        1
176
     1
 90
        6
176
     1
 90
        2
176
     1
 62
     7
176
     1
 90
        5
176
     1
 90
        0
176
     1
 90
        0
176
     1
290
     0
176
     1
 90
        1
176
     1
 40
0.0
176
     1
 90
        0
176
     1
290
     0
176
     1
290
     1
176
     1
290
     1
176
     1
290
     0
176
     1
290
     0
176
     1
290
     0
176
     1
290
     0
176
     1
290
     0
176
     1
290
     0
176
     1
 90
       50
176
     1
 40
0.0
176
     1
 40
1.0
176
     1
 90
        0
176
     1
 62
    18
420
        0
176
     1
 90
       50
176
     1
 90
        3
176
     1
 62
     5
420
      255
176
     1
290
     0
176
     1
 90
       50
176
     1
 90
       50
176
     1
 90
       50
176
     1
290
     0
176
     1
 90
       50
176
     1
 62
   256
176
     0
 40
1.0
176
     0
 90
        2
176
     1
  1
strokes_ogs.tif
176
     1
290
     0
176
     1
 40
1.0
176
     1
 40
1.0
176
     1
  0
VISUALSTYLE
  5
30
102
{ACAD_REACTORS
330
2A
102
}
330
2A
100
AcDbVisualStyle
  2
Wireframe
 70
     5
177
     3
291
     0
 70
    58
 90
        0
176
     1
 90
        2
176
     1
 90
        0
176
     1
 90
        0
176
     1
 40
0.6
176
     1
 40
30.0
176
     1
 62
     7
420
 16777215
176
     1
 90
        1
176
     1
 90
        4
176
     1
 62
     7
176
     1
 62
   257
176
     1
 90
        1
176
     1
 90
        1
176
     1
 40
1.0
176
     1
 90
        0
176
     1
 62
   257
176
     1
 40
1.0
176
     1
 90
        1
176
     1
 90
        6
176
     1
 90
        2
176
     1
 62
     7
176
     1
 90
        3
176
     1
 90
        0
176
     1
 90
        0
176
     1
290
     0
176
     1
 90
        1
176
     1
 40
0.0
176
     1
 90
        0
176
     1
290
     0
176
     1
290
     1
176
     1
290
     1
176
     1
290
     0
176
     1
290
     0
176
     1
290
     0
176
     1
290
     0
176
     1
290
     0
176
     1
290
     0
176
     1
 90
       50
176
     1
 40
0.0
176
     1
 40
1.0
176
     1
 90
        0
176
     1
 62
    18
420
        0
176
     1
 90
       50
176
     1
 90
        3
176
     1
 62
     5
420
      255
176
     1
290
     0
176
     1
 90
       50
176
     1
 90
       50
176
     1
 90
       50
176
     1
290
     0
176
     1
 90
       50
176
     1
 62
   256
176
     0
 40
1.0
176
     0
 90
        2
176
     1
  1
strokes_ogs.tif
176
     1
290
     0
176
     1
 40
1.0
176
     1
 40
1.0
176
     1
  0
VISUALSTYLE
  5
40
102
{ACAD_REACTORS
330
2A
102
}
330
2A
100
AcDbVisualStyle
  2
X-Ray
 70
    25
177
     3
291
     0
 70
    58
 90
        2
176
     1
 90
        2
176
     1
 90
        1
176
     1
 90
        1
176
     1
 40
0.5
176
     1
 40
30.0
176
     1
 62
     7
420
 16777215
176
     1
 90
        1
176
     1
 90
        0
176
     1
 62
     7
176
     1
 62
   257
176
     1
 90
        1
176
     1
 90
        1
176
     1
 40
1.0
176
     1
 90
        8
176
     1
 62
     7
176
     1
 40
1.0
176
     1
 90
        1
176
     1
 90
        6
176
     1
 90
        2
176
     1
 62
     7
176
     1
 90
        3
176
     1
 90
        0
176
     1
 90
        0
176
     1
290
     0
176
     1
 90
       13
176
     1
 40
0.0
176
     1
 90
        0
176
     1
290
     0
176
     1
290
     1
176
     1
290
     1
176
     1
290
     0
176
     1
290
     0
176
     1
290
     0
176
     1
290
     0
176
     1
290
     0
176
     1
290
     0
176
     1
 90
       50
176
     1
 40
0.0
176
     1
 40
1.0
176
     1
 90
        0
176
     1
 62
    18
420
        0
176
     1
 90
       50
176
     1
 90
        3
176
     1
 62
     5
420
      255
176
     1
290
     0
176
     1
 90
       50
176
     1
 90
       50
176
     1
 90
       50
176
     1
290
     0
176
     1
 90
       50
176
     1
 62
   256
176
     0
 40
1.0
176
     0
 90
        2
176
     1
  1
strokes_ogs.tif
176
     1
290
     0
176
     1
 40
1.0
176
     1
 40
1.0
176
     1
  0
DICTIONARYVAR
  5
1BF
102
{ACAD_REACTORS
330
1BE
102
}
330
1BE
100
DictionaryVariables
280
     0
  1
1:1
  0
DICTIONARYVAR
  5
1C4
102
{ACAD_REACTORS
330
1BE
102
}
330
1BE
100
DictionaryVariables
280
     0
  1
Standard
  0
DICTIONARYVAR
  5
1C3
102
{ACAD_REACTORS
330
1BE
102
}
330
1BE
100
DictionaryVariables
280
     0
  1
Standard
  0
DICTIONARY
  5
1C0
330
5A
100
AcDbDictionary
280
     1
281
     1
  3
ACAD_ROUNDTRIP_2008_TABLESTYLE_CELLSTYLEMAP
360
1C1
  0
CELLSTYLEMAP
  5
1C1
102
{ACAD_REACTORS
330
1C0
102
}
330
1C0
100
AcDbCellStyleMap
 90
        3
300
CELLSTYLE
  1
TABLEFORMAT_BEGIN
 90
        5
170
     1
 91
        0
 92
    32768
 62
   257
 93
        1
300
CONTENTFORMAT
  1
CONTENTFORMAT_BEGIN
 90
        0
 91
        0
 92
        4
 93
        0
300

 40
0.0
140
1.0
 94
        5
 62
     0
340
11
144
0.25
309
CONTENTFORMAT_END
171
     1
301
MARGIN
  1
CELLMARGIN_BEGIN
 40
0.06
 40
0.06
 40
0.06
 40
0.06
 40
0.06
 40
0.06
309
CELLMARGIN_END
 94
        6
 95
        1
302
GRIDFORMAT
  1
GRIDFORMAT_BEGIN
 90
        0
 91
        1
 62
     0
 92
       -2
340
14
 93
        0
 40
0.045
309
GRIDFORMAT_END
 95
        2
302
GRIDFORMAT
  1
GRIDFORMAT_BEGIN
 90
        0
 91
        1
 62
     0
 92
       -2
340
14
 93
        0
 40
0.045
309
GRIDFORMAT_END
 95
        4
302
GRIDFORMAT
  1
GRIDFORMAT_BEGIN
 90
        0
 91
        1
 62
     0
 92
       -2
340
14
 93
        0
 40
0.045
309
GRIDFORMAT_END
 95
        8
302
GRIDFORMAT
  1
GRIDFORMAT_BEGIN
 90
        0
 91
        1
 62
     0
 92
       -2
340
14
 93
        0
 40
0.045
309
GRIDFORMAT_END
 95
       16
302
GRIDFORMAT
  1
GRIDFORMAT_BEGIN
 90
        0
 91
        1
 62
     0
 92
       -2
340
14
 93
        0
 40
0.045
309
GRIDFORMAT_END
 95
       32
302
GRIDFORMAT
  1
GRIDFORMAT_BEGIN
 90
        0
 91
        1
 62
     0
 92
       -2
340
14
 93
        0
 40
0.045
309
GRIDFORMAT_END
309
TABLEFORMAT_END
  1
CELLSTYLE_BEGIN
 90
        1
 91
        1
300
_TITLE
309
CELLSTYLE_END
300
CELLSTYLE
  1
TABLEFORMAT_BEGIN
 90
        5
170
     1
 91
        0
 92
        0
 62
   257
 93
        1
300
CONTENTFORMAT
  1
CONTENTFORMAT_BEGIN
 90
        0
 91
        0
 92
        4
 93
        0
300

 40
0.0
140
1.0
 94
        5
 62
     0
340
11
144
0.18
309
CONTENTFORMAT_END
171
     1
301
MARGIN
  1
CELLMARGIN_BEGIN
 40
0.06
 40
0.06
 40
0.06
 40
0.06
 40
0.06
 40
0.06
309
CELLMARGIN_END
 94
        6
 95
        1
302
GRIDFORMAT
  1
GRIDFORMAT_BEGIN
 90
        0
 91
        1
 62
     0
 92
       -2
340
14
 93
        0
 40
0.045
309
GRIDFORMAT_END
 95
        2
302
GRIDFORMAT
  1
GRIDFORMAT_BEGIN
 90
        0
 91
        1
 62
     0
 92
       -2
340
14
 93
        0
 40
0.045
309
GRIDFORMAT_END
 95
        4
302
GRIDFORMAT
  1
GRIDFORMAT_BEGIN
 90
        0
 91
        1
 62
     0
 92
       -2
340
14
 93
        0
 40
0.045
309
GRIDFORMAT_END
 95
        8
302
GRIDFORMAT
  1
GRIDFORMAT_BEGIN
 90
        0
 91
        1
 62
     0
 92
       -2
340
14
 93
        0
 40
0.045
309
GRIDFORMAT_END
 95
       16
302
GRIDFORMAT
  1
GRIDFORMAT_BEGIN
 90
        0
 91
        1
 62
     0
 92
       -2
340
14
 93
        0
 40
0.045
309
GRIDFORMAT_END
 95
       32
302
GRIDFORMAT
  1
GRIDFORMAT_BEGIN
 90
        0
 91
        1
 62
     0
 92
       -2
340
14
 93
        0
 40
0.045
309
GRIDFORMAT_END
309
TABLEFORMAT_END
  1
CELLSTYLE_BEGIN
 90
        2
 91
        1
300
_HEADER
309
CELLSTYLE_END
300
CELLSTYLE
  1
TABLEFORMAT_BEGIN
 90
        5
170
     1
 91
        0
 92
        0
 62
   257
 93
        1
300
CONTENTFORMAT
  1
CONTENTFORMAT_BEGIN
 90
        0
 91
        0
 92
        4
 93
        0
300

 40
0.0
140
1.0
 94
        2
 62
     0
340
11
144
0.18
309
CONTENTFORMAT_END
171
     1
301
MARGIN
  1
CELLMARGIN_BEGIN
 40
0.06
 40
0.06
 40
0.06
 40
0.06
 40
0.06
 40
0.06
309
CELLMARGIN_END
 94
        6
 95
        1
302
GRIDFORMAT
  1
GRIDFORMAT_BEGIN
 90
        0
 91
        1
 62
     0
 92
       -2
340
14
 93
        0
 40
0.045
309
GRIDFORMAT_END
 95
        2
302
GRIDFORMAT
  1
GRIDFORMAT_BEGIN
 90
        0
 91
        1
 62
     0
 92
       -2
340
14
 93
        0
 40
0.045
309
GRIDFORMAT_END
 95
        4
302
GRIDFORMAT
  1
GRIDFORMAT_BEGIN
 90
        0
 91
        1
 62
     0
 92
       -2
340
14
 93
        0
 40
0.045
309
GRIDFORMAT_END
 95
        8
302
GRIDFORMAT
  1
GRIDFORMAT_BEGIN
 90
        0
 91
        1
 62
     0
 92
       -2
340
14
 93
        0
 40
0.045
309
GRIDFORMAT_END
 95
       16
302
GRIDFORMAT
  1
GRIDFORMAT_BEGIN
 90
        0
 91
        1
 62
     0
 92
       -2
340
14
 93
        0
 40
0.045
309
GRIDFORMAT_END
 95
       32
302
GRIDFORMAT
  1
GRIDFORMAT_BEGIN
 90
        0
 91
        1
 62
     0
 92
       -2
340
14
 93
        0
 40
0.045
309
GRIDFORMAT_END
309
TABLEFORMAT_END
  1
CELLSTYLE_BEGIN
 90
        3
 91
        2
300
_DATA
309
CELLSTYLE_END
  0
ENDSEC
  0
EOF
